<svg width="52" height="52" viewBox="0 0 52 52" fill="none" xmlns="http://www.w3.org/2000/svg">
<g filter="url(#filter0_d_21868_13619)">
<rect x="2" y="1" width="48" height="48" rx="8" fill="white"/>
<rect x="2.5" y="1.5" width="47" height="47" rx="7.5" stroke="#EAECF0"/>
<path d="M28.6399 18.226V18.306C28.6266 18.306 28.6266 18.306 28.6133 18.306C28.3733 18.306 28.0533 18.306 27.7866 18.3727C25.5866 18.706 23.8399 20.426 23.4533 22.6393C23.4399 22.666 23.4399 22.706 23.4399 22.7327C23.3733 23.0393 23.3599 23.3327 23.3599 23.5593C23.3599 25.466 24.3866 27.1193 25.9199 28.0393C24.6799 28.5727 23.6133 29.466 22.8799 30.6527C22.6666 30.986 22.4933 31.3193 22.3466 31.6793H18.9999C17.6799 31.6793 16.6133 30.6127 16.6133 29.2927V28.9327C16.6133 26.146 18.2933 23.7593 20.6933 22.7193C19.1599 21.7993 18.1333 20.146 18.1333 18.226C18.1333 15.3327 20.4933 12.9727 23.3866 12.9727C26.2799 12.9727 28.6399 15.3327 28.6399 18.226Z" fill="#3071F1"/>
<path d="M35.3865 34.2666V34.6266C35.3865 35.9466 34.3198 37.0133 32.9998 37.0133H24.2265C22.9065 37.0133 21.8398 35.9466 21.8398 34.6266V34.2666C21.8398 33.36 22.0132 32.4933 22.3465 31.68C22.4932 31.32 22.6665 30.9866 22.8798 30.6533C23.6132 29.4666 24.6798 28.5733 25.9198 28.04C24.3865 27.12 23.3598 25.4666 23.3598 23.56C23.3598 23.3333 23.3732 23.04 23.4398 22.7333C23.4398 22.7066 23.4398 22.6666 23.4532 22.64C23.8398 20.4266 25.5865 18.7066 27.7865 18.3733C28.0532 18.3066 28.3732 18.3066 28.6132 18.3066C28.6265 18.3066 28.6265 18.3066 28.6398 18.3066C31.5198 18.32 33.8665 20.6666 33.8665 23.56C33.8665 25.4533 32.8532 27.1333 31.3065 28.0533C32.0798 28.3866 32.7865 28.8533 33.3998 29.4666C34.6798 30.7466 35.3865 32.4533 35.3865 34.2666Z" fill="#90B2F2"/>
</g>
<defs>
<filter id="filter0_d_21868_13619" x="0" y="0" width="52" height="52" filterUnits="userSpaceOnUse" color-interpolation-filters="sRGB">
<feFlood flood-opacity="0" result="BackgroundImageFix"/>
<feColorMatrix in="SourceAlpha" type="matrix" values="0 0 0 0 0 0 0 0 0 0 0 0 0 0 0 0 0 0 127 0" result="hardAlpha"/>
<feOffset dy="1"/>
<feGaussianBlur stdDeviation="1"/>
<feColorMatrix type="matrix" values="0 0 0 0 0.0627451 0 0 0 0 0.0941176 0 0 0 0 0.156863 0 0 0 0.05 0"/>
<feBlend mode="normal" in2="BackgroundImageFix" result="effect1_dropShadow_21868_13619"/>
<feBlend mode="normal" in="SourceGraphic" in2="effect1_dropShadow_21868_13619" result="shape"/>
</filter>
</defs>
</svg>
