<svg width="25" height="24" viewBox="0 0 25 24" fill="none" xmlns="http://www.w3.org/2000/svg">
<path d="M22.375 6V8.42C22.375 10 21.375 11 19.795 11H16.375V4.01C16.375 2.9 17.285 2 18.395 2C19.485 2.01 20.485 2.45 21.205 3.17C21.925 3.9 22.375 4.9 22.375 6Z" stroke="#475467" stroke-width="1.5" stroke-miterlimit="10" stroke-linecap="round" stroke-linejoin="round"/>
<path d="M2.375 7V21C2.375 21.83 3.31498 22.3 3.97498 21.8L5.685 20.52C6.085 20.22 6.645 20.26 7.005 20.62L8.66498 22.29C9.05498 22.68 9.69502 22.68 10.085 22.29L11.765 20.61C12.115 20.26 12.675 20.22 13.065 20.52L14.775 21.8C15.435 22.29 16.375 21.82 16.375 21V4C16.375 2.9 17.275 2 18.375 2H7.375H6.375C3.375 2 2.375 3.79 2.375 6V7Z" stroke="#475467" stroke-width="1.5" stroke-miterlimit="10" stroke-linecap="round" stroke-linejoin="round"/>
<path d="M6.375 9H12.375" stroke="#475467" stroke-width="1.5" stroke-linecap="round" stroke-linejoin="round"/>
<path d="M7.125 13H11.625" stroke="#475467" stroke-width="1.5" stroke-linecap="round" stroke-linejoin="round"/>
</svg>
