<svg width="25" height="24" viewBox="0 0 25 24" fill="none" xmlns="http://www.w3.org/2000/svg">
<path d="M17.3964 2.75H19.2964C20.2606 2.75 20.8736 3.00289 21.2486 3.37783C21.6235 3.75277 21.8764 4.3658 21.8764 5.33V7.23C21.8764 8.1942 21.6235 8.80723 21.2486 9.18217C20.8736 9.55711 20.2606 9.81 19.2964 9.81H17.3964C16.4322 9.81 15.8192 9.55711 15.4442 9.18217C15.0693 8.80723 14.8164 8.1942 14.8164 7.23V5.33C14.8164 4.3658 15.0693 3.75277 15.4442 3.37783C15.8192 3.00289 16.4322 2.75 17.3964 2.75Z" fill="#6254F6" stroke="#6254F6" stroke-width="1.5"/>
<path d="M10.435 16.7663H10.435V16.7697V18.6697C10.435 19.6339 10.1821 20.2469 9.80717 20.6219C9.43223 20.9968 8.8192 21.2497 7.855 21.2497H5.955C4.99081 21.2497 4.3782 20.9968 4.00342 20.6212C3.62836 20.2453 3.375 19.6298 3.375 18.6597V16.7597C3.375 15.7955 3.62787 15.1829 4.00349 14.8081C4.37938 14.4331 4.99492 14.1797 5.965 14.1797H7.865C8.82946 14.1797 9.4415 14.4327 9.81474 14.8076C10.1879 15.1825 10.4394 15.7968 10.435 16.7663Z" fill="#6254F6" stroke="#6254F6" stroke-width="1.5"/>
<path d="M10.455 6.29C10.455 8.24509 8.87009 9.83 6.915 9.83C4.95991 9.83 3.375 8.24509 3.375 6.29C3.375 4.33491 4.95991 2.75 6.915 2.75C8.87009 2.75 10.455 4.33491 10.455 6.29Z" fill="#6254F6" stroke="#6254F6" stroke-width="1.5"/>
<path d="M21.8769 17.7099C21.8769 19.665 20.292 21.2499 18.3369 21.2499C16.3818 21.2499 14.7969 19.665 14.7969 17.7099C14.7969 15.7548 16.3818 14.1699 18.3369 14.1699C20.292 14.1699 21.8769 15.7548 21.8769 17.7099Z" fill="#6254F6" stroke="#6254F6" stroke-width="1.5"/>
</svg>
