<svg width="25" height="24" viewBox="0 0 25 24" fill="none" xmlns="http://www.w3.org/2000/svg">
<path d="M11.076 3.34523L11.0766 3.34477C12.0679 2.54855 13.6782 2.5512 14.6889 3.35611C14.6891 3.35626 14.6893 3.35641 14.6895 3.35656L21.2354 8.59329C21.5714 8.86808 21.8752 9.31037 22.0738 9.83023C22.2722 10.3495 22.3413 10.8823 22.2763 11.3116L21.018 18.8417C21.0178 18.8424 21.0177 18.8432 21.0176 18.8439C20.7881 20.1582 19.4968 21.25 18.1769 21.25H7.57692C6.23519 21.25 4.9757 20.1864 4.74637 18.8547C4.74628 18.8542 4.7462 18.8537 4.74611 18.8532L3.48666 11.3164L3.48637 11.3147C3.41315 10.8827 3.4775 10.3494 3.67519 9.831C3.87286 9.31265 4.1802 8.87113 4.52468 8.59628L4.52598 8.59523L11.076 3.34523ZM12.8769 19.5C13.7011 19.5 14.3769 18.8242 14.3769 18V15C14.3769 14.1758 13.7011 13.5 12.8769 13.5C12.0527 13.5 11.3769 14.1758 11.3769 15V18C11.3769 18.8242 12.0527 19.5 12.8769 19.5Z" fill="#6254F6" stroke="#6254F6" stroke-width="1.5"/>
</svg>
