<svg width="21" height="20" viewBox="0 0 21 20" fill="none" xmlns="http://www.w3.org/2000/svg">
<g clip-path="url(#clip0_21767_10833)">
<path d="M15.8763 10.8327H11.7096V14.9993C11.7096 15.4577 11.3346 15.8327 10.8763 15.8327C10.418 15.8327 10.043 15.4577 10.043 14.9993V10.8327H5.8763C5.41797 10.8327 5.04297 10.4577 5.04297 9.99935C5.04297 9.54102 5.41797 9.16602 5.8763 9.16602H10.043V4.99935C10.043 4.54102 10.418 4.16602 10.8763 4.16602C11.3346 4.16602 11.7096 4.54102 11.7096 4.99935V9.16602H15.8763C16.3346 9.16602 16.7096 9.54102 16.7096 9.99935C16.7096 10.4577 16.3346 10.8327 15.8763 10.8327Z" fill="#475467"/>
</g>
<defs>
<clipPath id="clip0_21767_10833">
<rect width="20" height="20" fill="white" transform="translate(0.875)"/>
</clipPath>
</defs>
</svg>
