<svg width="32" height="32" viewBox="0 0 32 32" fill="none" xmlns="http://www.w3.org/2000/svg">
<rect width="32" height="32" rx="16" fill="#8A7EF9"/>
<path d="M9.83203 16.0007C9.83203 12.6035 12.6015 9.83398 15.9987 9.83398C19.3959 9.83398 22.1654 12.6035 22.1654 16.0007C22.1654 19.3978 19.3959 22.1673 15.9987 22.1673C12.6015 22.1673 9.83203 19.3978 9.83203 16.0007ZM16.9987 18.6673V17.0007H18.6654C19.2148 17.0007 19.6654 16.5501 19.6654 16.0007C19.6654 15.4512 19.2148 15.0007 18.6654 15.0007H16.9987V13.334C16.9987 12.7845 16.5482 12.334 15.9987 12.334C15.4492 12.334 14.9987 12.7845 14.9987 13.334V15.0007H13.332C12.7826 15.0007 12.332 15.4512 12.332 16.0007C12.332 16.5501 12.7826 17.0007 13.332 17.0007H14.9987V18.6673C14.9987 19.2168 15.4492 19.6673 15.9987 19.6673C16.5482 19.6673 16.9987 19.2168 16.9987 18.6673Z" fill="white" stroke="white"/>
</svg>
