<svg width="12" height="12" viewBox="0 0 12 12" fill="none" xmlns="http://www.w3.org/2000/svg">
<g clip-path="url(#clip0_17954_9801)">
<path d="M9 6.5H6.5V9C6.5 9.275 6.275 9.5 6 9.5C5.725 9.5 5.5 9.275 5.5 9V6.5H3C2.725 6.5 2.5 6.275 2.5 6C2.5 5.725 2.725 5.5 3 5.5H5.5V3C5.5 2.725 5.725 2.5 6 2.5C6.275 2.5 6.5 2.725 6.5 3V5.5H9C9.275 5.5 9.5 5.725 9.5 6C9.5 6.275 9.275 6.5 9 6.5Z" fill="#323232"/>
</g>
<defs>
<clipPath id="clip0_17954_9801">
<rect width="12" height="12" fill="white"/>
</clipPath>
</defs>
</svg>
