<svg width="56" height="56" viewBox="0 0 56 56" fill="none" xmlns="http://www.w3.org/2000/svg">
<rect x="0.75" y="0.75" width="54.5" height="54.5" rx="27.25" fill="white"/>
<rect x="0.75" y="0.75" width="54.5" height="54.5" rx="27.25" stroke="#EAECF0" stroke-width="1.5"/>
<path d="M25.5695 28.4609L22.5195 31.5109" stroke="#475467" stroke-width="1.5" stroke-miterlimit="10" stroke-linecap="round" stroke-linejoin="round"/>
<path d="M22.5508 28.4902L25.6008 31.5402" stroke="#475467" stroke-width="1.5" stroke-miterlimit="10" stroke-linecap="round" stroke-linejoin="round"/>
<path d="M29.5312 30H29.5413" stroke="#475467" stroke-width="2" stroke-miterlimit="10" stroke-linecap="round" stroke-linejoin="round"/>
<path d="M33.4688 30H33.4788" stroke="#475467" stroke-width="2" stroke-miterlimit="10" stroke-linecap="round" stroke-linejoin="round"/>
<path d="M31.5 31.9809V31.9609" stroke="#475467" stroke-width="2" stroke-miterlimit="10" stroke-linecap="round" stroke-linejoin="round"/>
<path d="M31.5 28.0395V28.0195" stroke="#475467" stroke-width="2" stroke-miterlimit="10" stroke-linecap="round" stroke-linejoin="round"/>
<path d="M25 38H31C36 38 38 36 38 31V29C38 24 36 22 31 22H25C20 22 18 24 18 29V31C18 36 20 38 25 38Z" stroke="#475467" stroke-width="1.5" stroke-linecap="round" stroke-linejoin="round"/>
<path d="M29.0105 18L29.0005 19.01C28.9905 19.56 28.5505 20 28.0005 20H27.9705C27.4205 20 26.9805 20.45 26.9805 21C26.9805 21.55 27.4305 22 27.9805 22H28.9805" stroke="#475467" stroke-width="1.5" stroke-linecap="round" stroke-linejoin="round"/>
</svg>
