<svg width="40" height="40" viewBox="0 0 40 40" fill="none" xmlns="http://www.w3.org/2000/svg">
<path d="M36.6668 36.666H3.3335C2.65016 36.666 2.0835 36.0993 2.0835 35.416C2.0835 34.7327 2.65016 34.166 3.3335 34.166H36.6668C37.3502 34.166 37.9168 34.7327 37.9168 35.416C37.9168 36.0993 37.3502 36.666 36.6668 36.666Z" fill="#6254F6"/>
<path d="M16.25 6.66732V36.6673H23.75V6.66732C23.75 4.83398 23 3.33398 20.75 3.33398H19.25C17 3.33398 16.25 4.83398 16.25 6.66732Z" fill="#6254F6"/>
<path opacity="0.4" d="M5 16.6673V36.6673H11.6667V16.6673C11.6667 14.834 11 13.334 9 13.334H7.66667C5.66667 13.334 5 14.834 5 16.6673Z" fill="#6254F6"/>
<path opacity="0.4" d="M28.3335 24.9993V36.666H35.0002V24.9993C35.0002 23.166 34.3335 21.666 32.3335 21.666H31.0002C29.0002 21.666 28.3335 23.166 28.3335 24.9993Z" fill="#6254F6"/>
</svg>
