<svg width="12" height="12" viewBox="0 0 12 12" fill="none" xmlns="http://www.w3.org/2000/svg">
<g clip-path="url(#clip0_17954_9799)">
<path d="M4.505 6.99928H1.5C1.225 6.99928 1 7.22428 1 7.49928C1 7.77428 1.225 7.99928 1.5 7.99928H4.505V8.89428C4.505 9.11928 4.775 9.22928 4.93 9.06928L6.32 7.67428C6.415 7.57428 6.415 7.41928 6.32 7.31928L4.93 5.92428C4.775 5.76428 4.505 5.87928 4.505 6.09928V6.99928ZM7.495 5.89428V4.99928H10.5C10.775 4.99928 11 4.77428 11 4.49928C11 4.22428 10.775 3.99928 10.5 3.99928H7.495V3.10428C7.495 2.87928 7.225 2.76928 7.07 2.92928L5.68 4.32428C5.585 4.42428 5.585 4.57928 5.68 4.67928L7.07 6.07428C7.225 6.22928 7.495 6.11928 7.495 5.89428Z" fill="#323232"/>
</g>
<defs>
<clipPath id="clip0_17954_9799">
<rect width="12" height="12" fill="white"/>
</clipPath>
</defs>
</svg>
