<svg width="20" height="26" viewBox="0 0 20 26" fill="none" xmlns="http://www.w3.org/2000/svg">
<path d="M14.168 16.6663V19.1663C14.168 22.4997 12.8346 23.833 9.5013 23.833H6.33464C3.0013 23.833 1.66797 22.4997 1.66797 19.1663V15.9997C1.66797 12.6663 3.0013 11.333 6.33464 11.333H8.83464" stroke="#6254F6" stroke-width="1.5" stroke-linecap="round" stroke-linejoin="round"/>
<path d="M14.1654 16.6663H11.4987C9.4987 16.6663 8.83203 15.9997 8.83203 13.9997V11.333L14.1654 16.6663Z" stroke="#6254F6" stroke-width="1.5" stroke-linecap="round" stroke-linejoin="round"/>
<path d="M9.66797 7.16699H13.0013" stroke="#6254F6" stroke-width="1.5" stroke-linecap="round" stroke-linejoin="round"/>
<path d="M5.83203 9.66699C5.83203 8.28366 6.9487 7.16699 8.33203 7.16699H10.5154" stroke="#6254F6" stroke-width="1.5" stroke-linecap="round" stroke-linejoin="round"/>
<path d="M18.3339 12.167V17.3253C18.3339 18.617 17.2839 19.667 15.9922 19.667" stroke="#6254F6" stroke-width="1.5" stroke-linecap="round" stroke-linejoin="round"/>
<path d="M18.332 12.167H15.832C13.957 12.167 13.332 11.542 13.332 9.66699V7.16699L18.332 12.167Z" stroke="#6254F6" stroke-width="1.5" stroke-linecap="round" stroke-linejoin="round"/>
</svg>
