<svg width="40" height="40" viewBox="0 0 40 40" fill="none" xmlns="http://www.w3.org/2000/svg">
<path opacity="0.4" d="M35.133 14.2988V25.6987C35.133 27.5654 34.133 29.2988 32.5163 30.2488L22.6163 35.9654C20.9997 36.8988 18.9996 36.8988 17.3663 35.9654L7.46629 30.2488C5.84962 29.3154 4.84961 27.582 4.84961 25.6987V14.2988C4.84961 12.4321 5.84962 10.6987 7.46629 9.74869L17.3663 4.03203C18.983 3.0987 20.983 3.0987 22.6163 4.03203L32.5163 9.74869C34.133 10.6987 35.133 12.4154 35.133 14.2988Z" fill="#FF2A52"/>
<path d="M20 22.918C19.3167 22.918 18.75 22.3513 18.75 21.668V12.918C18.75 12.2346 19.3167 11.668 20 11.668C20.6833 11.668 21.25 12.2346 21.25 12.918V21.668C21.25 22.3513 20.6833 22.918 20 22.918Z" fill="#FF2A52"/>
<path d="M20.0007 28.7494C19.784 28.7494 19.5673 28.6994 19.3673 28.6161C19.1506 28.5327 18.9839 28.4161 18.8173 28.2661C18.6673 28.0995 18.5507 27.9161 18.4507 27.7161C18.3673 27.5161 18.334 27.2994 18.334 27.0828C18.334 26.6494 18.5006 26.2161 18.8173 25.8994C18.9839 25.7494 19.1506 25.6328 19.3673 25.5495C19.984 25.2828 20.7174 25.4327 21.184 25.8994C21.334 26.0661 21.4506 26.2328 21.534 26.4494C21.6173 26.6494 21.6673 26.8661 21.6673 27.0828C21.6673 27.2994 21.6173 27.5161 21.534 27.7161C21.4506 27.9161 21.334 28.0995 21.184 28.2661C20.8674 28.5828 20.4507 28.7494 20.0007 28.7494Z" fill="#FF2A52"/>
</svg>
