<svg width="48" height="48" viewBox="0 0 48 48" fill="none" xmlns="http://www.w3.org/2000/svg">
<rect width="48" height="48" rx="24" fill="#FFF8F8"/>
<mask id="path-2-inside-1_21767_10617" fill="white">
<path d="M15.5 33.25H32.5C32.91 33.25 33.25 33.59 33.25 34C33.25 34.41 32.91 34.75 32.5 34.75H15.5C15.09 34.75 14.75 34.41 14.75 34C14.75 33.59 15.09 33.25 15.5 33.25Z"/>
</mask>
<path d="M15.5 33.25H32.5C32.91 33.25 33.25 33.59 33.25 34C33.25 34.41 32.91 34.75 32.5 34.75H15.5C15.09 34.75 14.75 34.41 14.75 34C14.75 33.59 15.09 33.25 15.5 33.25Z" fill="#292D32"/>
<path d="M15.5 31.75H32.5V34.75H15.5V31.75ZM32.5 31.75C33.7384 31.75 34.75 32.7616 34.75 34H31.75C31.75 34.4184 32.0816 34.75 32.5 34.75V31.75ZM34.75 34C34.75 35.2384 33.7384 36.25 32.5 36.25V33.25C32.0816 33.25 31.75 33.5816 31.75 34H34.75ZM32.5 36.25H15.5V33.25H32.5V36.25ZM15.5 36.25C14.2616 36.25 13.25 35.2384 13.25 34H16.25C16.25 33.5816 15.9184 33.25 15.5 33.25V36.25ZM13.25 34C13.25 32.7616 14.2616 31.75 15.5 31.75V34.75C15.9184 34.75 16.25 34.4184 16.25 34H13.25Z" fill="#E90A0A" mask="url(#path-2-inside-1_21767_10617)"/>
<mask id="path-4-inside-2_21767_10617" fill="white">
<path d="M31 26.52C30.59 26.52 30.25 26.18 30.25 25.77V17.31L17.53 30.03C17.38 30.18 17.19 30.25 17 30.25C16.81 30.25 16.62 30.18 16.47 30.03C16.18 29.74 16.18 29.26 16.47 28.97L29.19 16.25H20.73C20.32 16.25 19.98 15.91 19.98 15.5C19.98 15.09 20.32 14.75 20.73 14.75H31C31.1 14.75 31.19 14.77 31.29 14.81C31.47 14.88 31.62 15.03 31.69 15.21C31.73 15.31 31.75 15.4 31.75 15.5V25.77C31.75 26.18 31.41 26.52 31 26.52Z"/>
</mask>
<path d="M31 26.52C30.59 26.52 30.25 26.18 30.25 25.77V17.31L17.53 30.03C17.38 30.18 17.19 30.25 17 30.25C16.81 30.25 16.62 30.18 16.47 30.03C16.18 29.74 16.18 29.26 16.47 28.97L29.19 16.25H20.73C20.32 16.25 19.98 15.91 19.98 15.5C19.98 15.09 20.32 14.75 20.73 14.75H31C31.1 14.75 31.19 14.77 31.29 14.81C31.47 14.88 31.62 15.03 31.69 15.21C31.73 15.31 31.75 15.4 31.75 15.5V25.77C31.75 26.18 31.41 26.52 31 26.52Z" fill="#292D32"/>
<path d="M30.25 17.31L29.1893 16.2493L31.75 13.6887V17.31H30.25ZM17.53 30.03L18.5907 31.0907L17.53 30.03ZM16.47 28.97L15.4093 27.9093L16.47 28.97ZM29.19 16.25V14.75H32.8113L30.2507 17.3107L29.19 16.25ZM31.29 14.81L30.7463 16.208L30.7396 16.2054L30.7329 16.2027L31.29 14.81ZM31.69 15.21L30.2973 15.7671L30.2946 15.7604L30.292 15.7537L31.69 15.21ZM31 28.02C29.7616 28.02 28.75 27.0084 28.75 25.77H31.75C31.75 25.3516 31.4184 25.02 31 25.02V28.02ZM28.75 25.77V17.31H31.75V25.77H28.75ZM31.3107 18.3707L18.5907 31.0907L16.4693 28.9693L29.1893 16.2493L31.3107 18.3707ZM18.5907 31.0907C18.1445 31.5368 17.5664 31.75 17 31.75V28.75C16.8136 28.75 16.6155 28.8232 16.4693 28.9693L18.5907 31.0907ZM17 31.75C16.4336 31.75 15.8555 31.5368 15.4093 31.0907L17.5307 28.9693C17.3845 28.8232 17.1864 28.75 17 28.75V31.75ZM15.4093 31.0907C14.5336 30.2149 14.5336 28.7851 15.4093 27.9093L17.5307 30.0307C17.8264 29.7349 17.8264 29.2651 17.5307 28.9693L15.4093 31.0907ZM15.4093 27.9093L28.1293 15.1893L30.2507 17.3107L17.5307 30.0307L15.4093 27.9093ZM29.19 17.75H20.73V14.75H29.19V17.75ZM20.73 17.75C19.4916 17.75 18.48 16.7384 18.48 15.5H21.48C21.48 15.0816 21.1484 14.75 20.73 14.75V17.75ZM18.48 15.5C18.48 14.2616 19.4916 13.25 20.73 13.25V16.25C21.1484 16.25 21.48 15.9184 21.48 15.5H18.48ZM20.73 13.25H31V16.25H20.73V13.25ZM31 13.25C31.3244 13.25 31.604 13.32 31.8471 13.4173L30.7329 16.2027C30.7474 16.2085 30.7835 16.2218 30.836 16.2328C30.8905 16.2443 30.9466 16.25 31 16.25V13.25ZM31.8337 13.412C32.4056 13.6344 32.8656 14.0944 33.088 14.6663L30.292 15.7537C30.3744 15.9656 30.5344 16.1256 30.7463 16.208L31.8337 13.412ZM33.0827 14.6529C33.18 14.896 33.25 15.1756 33.25 15.5H30.25C30.25 15.5534 30.2557 15.6095 30.2672 15.664C30.2782 15.7165 30.2915 15.7526 30.2973 15.7671L33.0827 14.6529ZM33.25 15.5V25.77H30.25V15.5H33.25ZM33.25 25.77C33.25 27.0084 32.2384 28.02 31 28.02V25.02C30.5816 25.02 30.25 25.3516 30.25 25.77H33.25Z" fill="#E90A0A" mask="url(#path-4-inside-2_21767_10617)"/>
</svg>
