<svg width="16" height="16" viewBox="0 0 16 16" fill="none" xmlns="http://www.w3.org/2000/svg">
<path d="M1.32031 8.66682H3.84698C4.35365 8.66682 4.81365 8.95349 5.04031 9.40682L5.63365 10.6002C6.00031 11.3335 6.66698 11.3335 6.82698 11.3335H9.18031C9.68698 11.3335 10.147 11.0468 10.3736 10.5935L10.967 9.40016C11.1936 8.94682 11.6536 8.66016 12.1603 8.66016H14.6536" stroke="#344054" stroke-width="1.5" stroke-linecap="round" stroke-linejoin="round"/>
<path d="M12.668 5.33398C13.7725 5.33398 14.668 4.43855 14.668 3.33398C14.668 2.22941 13.7725 1.33398 12.668 1.33398C11.5634 1.33398 10.668 2.22941 10.668 3.33398C10.668 4.43855 11.5634 5.33398 12.668 5.33398Z" stroke="#344054" stroke-width="1.5" stroke-linecap="round" stroke-linejoin="round"/>
<path d="M9.33203 1.33398H5.9987C2.66536 1.33398 1.33203 2.66732 1.33203 6.00065V10.0007C1.33203 13.334 2.66536 14.6673 5.9987 14.6673H9.9987C13.332 14.6673 14.6654 13.334 14.6654 10.0007V6.66732" stroke="#344054" stroke-width="1.5" stroke-linecap="round" stroke-linejoin="round"/>
</svg>
