<svg width="41" height="40" viewBox="0 0 41 40" fill="none" xmlns="http://www.w3.org/2000/svg">
<g clip-path="url(#clip0_17675_26515)">
<path d="M34.6167 9.38333C35.2667 10.0333 35.2667 11.0667 34.6167 11.7167L15.7167 30.6167C15.0667 31.2667 14.0333 31.2667 13.3833 30.6167L6.38333 23.6167C5.73333 22.9667 5.73333 21.9333 6.38333 21.2833C7.03333 20.6333 8.06667 20.6333 8.71667 21.2833L14.55 27.1167L32.2833 9.38333C32.9333 8.73333 33.9667 8.73333 34.6167 9.38333ZM31.1 5.85L14.55 22.4L9.9 17.75C8.6 16.45 6.48333 16.45 5.18333 17.75L2.85 20.0833C1.55 21.3833 1.55 23.5 2.85 24.8L12.1833 34.1333C13.4833 35.4333 15.6 35.4333 16.9 34.1333L38.15 12.9C39.45 11.6 39.45 9.48333 38.15 8.18333L35.8167 5.85C34.5 4.55 32.4 4.55 31.1 5.85Z" fill="#6254F6"/>
</g>
<defs>
<clipPath id="clip0_17675_26515">
<rect width="40" height="40" fill="white" transform="translate(0.5)"/>
</clipPath>
</defs>
</svg>
