<svg width="35" height="35" viewBox="0 0 35 35" fill="none" xmlns="http://www.w3.org/2000/svg">
<rect opacity="0.1" width="35" height="35" rx="8" fill="#004E92"/>
<path d="M24.8432 13.5657L24.2482 12.9707L18.7368 18.4822C18.0478 19.1711 16.8892 19.1711 16.2002 18.4822L10.6887 13.002L10.0938 13.597L14.196 17.6993L10.0938 21.8016L10.6887 22.3966L14.791 18.2943L15.6052 19.1085C16.1063 19.6095 16.7639 19.8914 17.4528 19.8914C18.1418 19.8914 18.7994 19.6095 19.3004 19.1085L20.1146 18.2943L24.2169 22.3966L24.8119 21.8016L20.7096 17.6993L24.8432 13.5657Z" fill="#004E92"/>
<path d="M23.6848 23.4614H11.3152C10.595 23.4614 10 22.8664 10 22.1461V13.3152C10 12.595 10.595 12 11.3152 12H23.6848C24.405 12 25 12.595 25 13.3152V22.1461C25 22.8664 24.405 23.4614 23.6848 23.4614ZM11.2839 12.8455C11.0334 12.8455 10.8455 13.0334 10.8455 13.2839V22.1148C10.8455 22.3653 11.0334 22.5532 11.2839 22.5532H23.6534C23.904 22.5532 24.0919 22.3653 24.0919 22.1148V13.2839C24.0919 13.0334 23.904 12.8455 23.6534 12.8455H11.2839Z" fill="#004E92"/>
</svg>
