<svg width="25" height="24" viewBox="0 0 25 24" fill="none" xmlns="http://www.w3.org/2000/svg">
<path d="M2.5 11V9C2.5 5.5 4.5 4 7.5 4H17.5C20.5 4 22.5 5.5 22.5 9V15C22.5 18.5 20.5 20 17.5 20H12.5" stroke="#475467" stroke-width="1.5" stroke-miterlimit="10" stroke-linecap="round" stroke-linejoin="round"/>
<path d="M12.5 14.5C13.8807 14.5 15 13.3807 15 12C15 10.6193 13.8807 9.5 12.5 9.5C11.1193 9.5 10 10.6193 10 12C10 13.3807 11.1193 14.5 12.5 14.5Z" stroke="#475467" stroke-width="1.5" stroke-miterlimit="10" stroke-linecap="round" stroke-linejoin="round"/>
<path d="M19 9.5V14.5" stroke="#475467" stroke-width="1.5" stroke-miterlimit="10" stroke-linecap="round" stroke-linejoin="round"/>
<path d="M2.5 15.5H7.84003C8.48003 15.5 9 16.02 9 16.66V17.94" stroke="#475467" stroke-width="1.5" stroke-miterlimit="10" stroke-linecap="round" stroke-linejoin="round"/>
<path d="M3.71997 14.2812L2.5 15.5012L3.71997 16.7212" stroke="#475467" stroke-width="1.5" stroke-miterlimit="10" stroke-linecap="round" stroke-linejoin="round"/>
<path d="M9 20.7798H3.65997C3.01997 20.7798 2.5 20.2598 2.5 19.6198V18.3398" stroke="#475467" stroke-width="1.5" stroke-miterlimit="10" stroke-linecap="round" stroke-linejoin="round"/>
<path d="M7.78125 22.0025L9.00122 20.7825L7.78125 19.5625" stroke="#475467" stroke-width="1.5" stroke-miterlimit="10" stroke-linecap="round" stroke-linejoin="round"/>
</svg>
