<svg width="25" height="24" viewBox="0 0 25 24" fill="none" xmlns="http://www.w3.org/2000/svg">
<path d="M2.625 11V9C2.625 5.5 4.625 4 7.625 4H17.625C20.625 4 22.625 5.5 22.625 9V15C22.625 18.5 20.625 20 17.625 20H12.625" stroke="#475467" stroke-width="1.5" stroke-miterlimit="10" stroke-linecap="round" stroke-linejoin="round"/>
<path d="M12.625 14.5C14.0057 14.5 15.125 13.3807 15.125 12C15.125 10.6193 14.0057 9.5 12.625 9.5C11.2443 9.5 10.125 10.6193 10.125 12C10.125 13.3807 11.2443 14.5 12.625 14.5Z" stroke="#475467" stroke-width="1.5" stroke-miterlimit="10" stroke-linecap="round" stroke-linejoin="round"/>
<path d="M19.125 9.5V14.5" stroke="#475467" stroke-width="1.5" stroke-miterlimit="10" stroke-linecap="round" stroke-linejoin="round"/>
<path d="M2.625 15.5H7.96503C8.60503 15.5 9.125 16.02 9.125 16.66V17.94" stroke="#475467" stroke-width="1.5" stroke-miterlimit="10" stroke-linecap="round" stroke-linejoin="round"/>
<path d="M3.84497 14.2793L2.625 15.4993L3.84497 16.7192" stroke="#475467" stroke-width="1.5" stroke-miterlimit="10" stroke-linecap="round" stroke-linejoin="round"/>
<path d="M9.125 20.7798H3.78497C3.14497 20.7798 2.625 20.2598 2.625 19.6198V18.3398" stroke="#475467" stroke-width="1.5" stroke-miterlimit="10" stroke-linecap="round" stroke-linejoin="round"/>
<path d="M7.90625 21.9986L9.12622 20.7786L7.90625 19.5586" stroke="#475467" stroke-width="1.5" stroke-miterlimit="10" stroke-linecap="round" stroke-linejoin="round"/>
</svg>
