<svg width="28" height="28" viewBox="0 0 28 28" fill="none" xmlns="http://www.w3.org/2000/svg">
<path fill-rule="evenodd" clip-rule="evenodd" d="M6.41668 4.66668C5.45016 4.66668 4.66668 5.45016 4.66668 6.41668V8.75C4.66668 9.07218 4.40549 9.33332 4.08333 9.33332C3.76117 9.33332 3.5 9.07218 3.5 8.75V6.41668C3.5 4.80585 4.80585 3.5 6.41668 3.5H8.75C9.07218 3.5 9.33332 3.76117 9.33332 4.08333C9.33332 4.40549 9.07218 4.66668 8.75 4.66668H6.41668ZM6.41668 23.3333C5.45016 23.3333 4.66668 22.5498 4.66668 21.5833V19.25C4.66668 18.9278 4.40549 18.6667 4.08333 18.6667C3.76117 18.6667 3.5 18.9278 3.5 19.25V21.5833C3.5 23.1942 4.80585 24.5 6.41668 24.5H8.75C9.07218 24.5 9.33332 24.2388 9.33332 23.9167C9.33332 23.5945 9.07218 23.3333 8.75 23.3333H6.41668ZM21.5833 4.66668C22.5498 4.66668 23.3333 5.45016 23.3333 6.41668V8.75C23.3333 9.07218 23.5945 9.33332 23.9167 9.33332C24.2388 9.33332 24.5 9.07218 24.5 8.75V6.41668C24.5 4.80585 23.1942 3.5 21.5833 3.5H19.25C18.9278 3.5 18.6667 3.76117 18.6667 4.08333C18.6667 4.40549 18.9278 4.66668 19.25 4.66668H21.5833ZM21.5833 23.3333C22.5498 23.3333 23.3333 22.5498 23.3333 21.5833V19.25C23.3333 18.9278 23.5945 18.6667 23.9167 18.6667C24.2388 18.6667 24.5 18.9278 24.5 19.25V21.5833C24.5 23.1942 23.1942 24.5 21.5833 24.5H19.25C18.9278 24.5 18.6667 24.2388 18.6667 23.9167C18.6667 23.5945 18.9278 23.3333 19.25 23.3333H21.5833ZM9.62504 8.51673C9.94722 8.51673 10.2084 8.77791 10.2084 9.10004V10.0723C10.2084 10.3944 9.94722 10.6556 9.62504 10.6556C9.30287 10.6556 9.04168 10.3944 9.04168 10.0723V9.10004C9.04168 8.77791 9.30287 8.51673 9.62504 8.51673ZM18.375 8.51673C18.6972 8.51673 18.9584 8.77791 18.9584 9.10004V10.0723C18.9584 10.3944 18.6972 10.6556 18.375 10.6556C18.0529 10.6556 17.7917 10.3944 17.7917 10.0723V9.10004C17.7917 8.77791 18.0529 8.51673 18.375 8.51673Z" fill="#2B3151"/>
<path fill-rule="evenodd" clip-rule="evenodd" d="M14.487 10.4609C14.8092 10.4609 15.0703 10.7221 15.0703 11.0443V13.7665C15.0703 14.733 14.2868 15.5165 13.3203 15.5165H13.0287C12.7065 15.5165 12.4453 15.2553 12.4453 14.9332C12.4453 14.611 12.7065 14.3498 13.0287 14.3498H13.3203C13.6425 14.3498 13.9037 14.0887 13.9037 13.7665V11.0443C13.9037 10.7221 14.1648 10.4609 14.487 10.4609Z" fill="#445CDA"/>
<path fill-rule="evenodd" clip-rule="evenodd" d="M9.30403 16.3922C9.57252 16.2141 9.93451 16.2875 10.1125 16.556C10.7347 17.4944 12.1928 18.2394 14.0014 18.2394C15.81 18.2394 17.268 17.4944 17.8902 16.556C18.0682 16.2875 18.4302 16.2141 18.6987 16.3922C18.9672 16.5702 19.0406 16.9322 18.8625 17.2007C17.9629 18.5575 16.0753 19.4061 14.0014 19.4061C11.9274 19.4061 10.0398 18.5575 9.14019 17.2007C8.96217 16.9322 9.03549 16.5702 9.30403 16.3922Z" fill="#2B3151"/>
</svg>
