<svg width="41" height="40" viewBox="0 0 41 40" fill="none" xmlns="http://www.w3.org/2000/svg">
<g clip-path="url(#clip0_17675_12747)">
<path d="M20.4997 3.33398C11.283 3.33398 3.83301 10.784 3.83301 20.0007C3.83301 29.2173 11.283 36.6673 20.4997 36.6673C29.7163 36.6673 37.1663 29.2173 37.1663 20.0007C37.1663 10.784 29.7163 3.33398 20.4997 3.33398ZM27.6663 27.1673C27.0163 27.8173 25.9663 27.8173 25.3163 27.1673L20.4997 22.3507L15.683 27.1673C15.033 27.8173 13.983 27.8173 13.333 27.1673C12.683 26.5173 12.683 25.4673 13.333 24.8173L18.1497 20.0007L13.333 15.184C12.683 14.534 12.683 13.484 13.333 12.834C13.983 12.184 15.033 12.184 15.683 12.834L20.4997 17.6507L25.3163 12.834C25.9663 12.184 27.0163 12.184 27.6663 12.834C28.3163 13.484 28.3163 14.534 27.6663 15.184L22.8497 20.0007L27.6663 24.8173C28.2997 25.4507 28.2997 26.5173 27.6663 27.1673Z" fill="#6254F6"/>
</g>
<defs>
<clipPath id="clip0_17675_12747">
<rect width="40" height="40" fill="white" transform="translate(0.5)"/>
</clipPath>
</defs>
</svg>
