<svg width="28" height="28" viewBox="0 0 28 28" fill="none" xmlns="http://www.w3.org/2000/svg">
<path d="M9.54418 2.48437C10.4186 1.98211 11.3702 1.62804 12.3603 1.43649C12.415 1.42592 12.4671 1.40467 12.5136 1.37396C12.5601 1.34324 12.6001 1.30367 12.6313 1.2575C12.6625 1.21132 12.6843 1.15946 12.6955 1.10486C12.7066 1.05026 12.7069 0.993993 12.6963 0.939283C12.686 0.884512 12.6649 0.832324 12.6343 0.785725C12.6038 0.739127 12.5643 0.699038 12.5181 0.667767C12.472 0.636497 12.4201 0.614663 12.3655 0.603523C12.3109 0.592383 12.2546 0.592157 12.1999 0.602858C11.1181 0.812447 10.0782 1.19933 9.12248 1.74789C9.02949 1.80613 8.96266 1.8981 8.93598 2.00453C8.90931 2.11096 8.92486 2.22358 8.97938 2.3188C9.03389 2.41401 9.12315 2.48443 9.22844 2.5153C9.33373 2.54617 9.44688 2.53508 9.54418 2.48437ZM13.9711 1.27231C14.0496 1.28377 16.2714 1.13656 18.6234 2.48437C18.6717 2.51206 18.7251 2.52996 18.7804 2.53703C18.8356 2.54411 18.8918 2.54023 18.9455 2.52561C18.9993 2.51099 19.0497 2.48593 19.0938 2.45185C19.1378 2.41777 19.1748 2.37534 19.2025 2.32698C19.2302 2.27862 19.2481 2.22528 19.2551 2.17001C19.2622 2.11474 19.2583 2.05861 19.2437 2.00484C19.2291 1.95106 19.204 1.9007 19.17 1.85661C19.1359 1.81252 19.0934 1.77558 19.0451 1.74789C16.5302 0.308434 14.4594 0.488737 13.9605 0.423828C13.9048 0.424162 13.8497 0.435467 13.7984 0.457096C13.747 0.478725 13.7005 0.510255 13.6613 0.549886C13.5822 0.629924 13.5382 0.7381 13.5388 0.850616C13.5395 0.963132 13.5849 1.07077 13.6649 1.14986C13.7449 1.22894 13.8531 1.27299 13.9656 1.27231H13.9711ZM23.3783 20.2385C23.2769 20.1899 23.1604 20.1834 23.0543 20.2204C22.9482 20.2575 22.861 20.335 22.8119 20.4362C22.2826 21.5341 21.6779 22.5939 21.0021 23.6083C20.9398 23.702 20.9173 23.8166 20.9396 23.9269C20.9618 24.0372 21.027 24.1342 21.1207 24.1965C21.2144 24.2587 21.329 24.2812 21.4394 24.259C21.5497 24.2368 21.6466 24.1716 21.7089 24.0779C22.4059 23.0313 23.0297 21.9377 23.5756 20.8049C23.6245 20.7036 23.6311 20.5872 23.5941 20.481C23.5571 20.3749 23.4795 20.2874 23.3783 20.2385ZM22.7614 7.3848C22.8275 7.47594 22.927 7.5371 23.0382 7.55485C23.1493 7.57259 23.263 7.54545 23.3541 7.4794C23.4453 7.41336 23.5064 7.31381 23.5242 7.20266C23.5419 7.09152 23.5148 6.97788 23.4487 6.88674C21.3445 3.98746 17.9111 2.10892 14.0904 2.10892C10.3664 2.10892 6.84854 3.93443 4.67981 6.99195C4.61472 7.08365 4.58873 7.19745 4.60754 7.30832C4.62636 7.41919 4.68845 7.51804 4.78015 7.58313C4.87185 7.64822 4.98565 7.67422 5.09652 7.6554C5.20739 7.63659 5.30624 7.5745 5.37133 7.4828C7.38266 4.64928 10.6421 2.9574 14.0916 2.9574C17.6179 2.9574 20.8053 4.68831 22.7614 7.3848Z" fill="black"/>
<path d="M4.25959 12.4617C4.35704 12.5178 4.47278 12.5329 4.58136 12.5037C4.68994 12.4745 4.7825 12.4034 4.83868 12.306C5.1208 11.8173 5.36899 11.2696 5.69565 10.416C6.0469 9.49913 6.54795 8.64697 7.17838 7.89428C7.24561 7.80739 7.27655 7.69784 7.2647 7.58862C7.25286 7.4794 7.19915 7.37902 7.11486 7.30857C7.03057 7.23811 6.92225 7.20307 6.81266 7.21079C6.70308 7.21851 6.60075 7.2684 6.52717 7.34998C5.83666 8.17464 5.28787 9.10822 4.90317 10.1126C4.59347 10.9221 4.36183 11.435 4.10347 11.8826C4.07566 11.9308 4.05764 11.9841 4.05043 12.0394C4.04323 12.0946 4.04699 12.1507 4.06149 12.2045C4.07599 12.2583 4.10095 12.3087 4.13494 12.3528C4.16893 12.3969 4.21129 12.4339 4.25959 12.4617ZM7.77996 6.09846C7.73564 6.13362 7.69881 6.17729 7.67162 6.2269C7.64443 6.27651 7.62744 6.33105 7.62164 6.38732C7.61584 6.44359 7.62136 6.50046 7.63786 6.55456C7.65436 6.60867 7.68152 6.65893 7.71774 6.70239C7.75395 6.74585 7.79849 6.78163 7.84874 6.80762C7.89898 6.83361 7.95392 6.84928 8.01031 6.85373C8.06671 6.85817 8.12342 6.8513 8.17712 6.8335C8.23081 6.8157 8.28041 6.78735 8.32299 6.7501C9.57362 5.7035 11.0836 5.01389 12.6935 4.75404C12.8046 4.73621 12.904 4.67504 12.9699 4.58395C13.0359 4.49287 13.063 4.37933 13.0452 4.26828C13.0369 4.21303 13.0176 4.15999 12.9886 4.11226C12.9595 4.06453 12.9212 4.02307 12.876 3.99029C12.8307 3.95751 12.7794 3.93408 12.725 3.92135C12.6705 3.90862 12.6141 3.90686 12.559 3.91616C10.8069 4.19658 9.1545 4.95131 7.77996 6.09846ZM14.3273 3.79695C14.0931 3.7927 13.8988 3.97683 13.8933 4.21101C13.8878 4.44519 14.0732 4.63949 14.3073 4.64543C15.9374 4.68402 17.5263 5.16501 18.904 6.03695C18.9511 6.06673 19.0036 6.08694 19.0585 6.09644C19.1134 6.10593 19.1696 6.10452 19.2239 6.09229C19.2783 6.08006 19.3297 6.05724 19.3752 6.02514C19.4207 5.99305 19.4595 5.9523 19.4893 5.90522C19.519 5.85814 19.5393 5.80566 19.5487 5.75077C19.5582 5.69588 19.5568 5.63966 19.5446 5.58532C19.5324 5.53097 19.5096 5.47957 19.4775 5.43404C19.4454 5.38851 19.4046 5.34976 19.3575 5.31998C17.8499 4.36569 16.1111 3.83924 14.3273 3.79695ZM23.2652 11.3773C23.4897 11.3107 23.6174 11.0744 23.5512 10.85C23.0461 9.13846 22.082 7.59791 20.7635 6.39543C20.6805 6.31937 20.5708 6.27937 20.4584 6.28422C20.346 6.28907 20.2401 6.33839 20.164 6.42131C20.088 6.50424 20.048 6.61398 20.0528 6.7264C20.0577 6.83882 20.107 6.9447 20.1899 7.02077C21.3949 8.11931 22.276 9.52698 22.7375 11.0909C22.8049 11.3171 23.0434 11.4435 23.2648 11.3773H23.2652ZM21.6327 18.9869C20.9047 20.5855 20.1148 21.9639 19.1475 23.3257C19.0855 23.4175 19.0618 23.5299 19.0815 23.639C19.1013 23.748 19.1629 23.845 19.2533 23.9092C19.3436 23.9733 19.4555 23.9996 19.5649 23.9824C19.6744 23.9652 19.7728 23.9058 19.839 23.8169C20.8386 22.4106 21.654 20.9872 22.4049 19.3382C22.4485 19.2363 22.4505 19.1213 22.4104 19.018C22.3704 18.9146 22.2915 18.831 22.1905 18.7851C22.0896 18.7392 21.9748 18.7346 21.8705 18.7723C21.7662 18.8101 21.6809 18.8871 21.6327 18.9869ZM17.2083 27.045C17.6623 26.572 18.389 25.7052 18.8013 25.1889C18.8361 25.1454 18.862 25.0954 18.8774 25.0419C18.8929 24.9884 18.8976 24.9323 18.8914 24.877C18.8852 24.8216 18.8682 24.768 18.8413 24.7192C18.8143 24.6704 18.7781 24.6274 18.7345 24.5927C18.691 24.5579 18.641 24.5321 18.5875 24.5166C18.534 24.5011 18.4779 24.4964 18.4226 24.5026C18.3672 24.5088 18.3136 24.5258 18.2648 24.5528C18.216 24.5797 18.173 24.616 18.1383 24.6595C17.7581 25.1355 17.0195 26.0183 16.597 26.457C16.5223 26.5387 16.4825 26.6463 16.486 26.7569C16.4896 26.8675 16.5362 26.9724 16.6159 27.0491C16.6957 27.1258 16.8023 27.1683 16.913 27.1676C17.0236 27.1668 17.1296 27.1228 17.2083 27.045ZM23.8974 12.5868C23.8914 12.5314 23.8746 12.4778 23.848 12.4289C23.8213 12.38 23.7852 12.3368 23.7419 12.3019C23.6985 12.2669 23.6487 12.2408 23.5953 12.2251C23.5419 12.2094 23.4859 12.2044 23.4305 12.2103C23.3751 12.2162 23.3214 12.233 23.2725 12.2597C23.2236 12.2864 23.1805 12.3224 23.1455 12.3658C23.1106 12.4091 23.0845 12.4589 23.0688 12.5124C23.0531 12.5658 23.048 12.6218 23.054 12.6772C23.0879 12.9996 23.1057 13.3276 23.1061 13.6538C23.1061 14.7666 22.9059 15.8522 22.5101 16.8806C22.4367 17.0715 22.3629 17.2594 22.289 17.4457C22.2494 17.5497 22.2522 17.6652 22.2969 17.7672C22.3416 17.8692 22.4246 17.9495 22.528 17.9908C22.6314 18.0322 22.7469 18.0312 22.8496 17.9881C22.9523 17.945 23.0339 17.8632 23.0769 17.7605C23.1528 17.5708 23.227 17.3795 23.3021 17.1848C23.7353 16.0579 23.9566 14.8607 23.9546 13.6534C23.9546 13.297 23.9351 12.9377 23.8974 12.5868Z" fill="black"/>
<path d="M14.0923 5.48047C10.7386 5.48047 7.67858 7.58471 6.4784 10.7169C5.7924 12.511 5.35755 13.2394 4.15228 14.614C4.1146 14.6557 4.0856 14.7045 4.06696 14.7576C4.04831 14.8107 4.04041 14.8669 4.04369 14.923C4.04698 14.9792 4.0614 15.0341 4.0861 15.0846C4.11081 15.1351 4.14531 15.1802 4.18761 15.2173C4.2299 15.2544 4.27914 15.2827 4.33246 15.3005C4.38579 15.3184 4.44213 15.3255 4.49822 15.3213C4.5543 15.3172 4.60901 15.302 4.65916 15.2766C4.70931 15.2511 4.7539 15.216 4.79034 15.1731C6.06222 13.7227 6.54883 12.9077 7.27046 11.0206C8.34634 8.21471 11.0874 6.32895 14.0923 6.32895C19.2337 6.32895 22.7778 11.4962 20.9396 16.2745C19.5671 19.8479 16.5113 25.2536 13.3083 26.7677C13.2103 26.8181 13.1358 26.9045 13.1004 27.0089C13.065 27.1132 13.0715 27.2272 13.1186 27.3268C13.1656 27.4264 13.2496 27.5038 13.3527 27.5427C13.4557 27.5816 13.5699 27.5788 13.671 27.5351C17.1443 25.8929 20.2603 20.4091 21.7316 16.5791C23.7807 11.2531 19.8336 5.48047 14.0923 5.48047Z" fill="black"/>
<path d="M16.6856 22.4135C16.7531 22.3235 16.7821 22.2103 16.7662 22.0989C16.7502 21.9875 16.6907 21.887 16.6007 21.8195C16.5107 21.752 16.3976 21.723 16.2862 21.7389C16.1748 21.7549 16.0743 21.8144 16.0068 21.9044C14.8019 23.5114 13.8601 24.6522 12.542 25.2712C12.4402 25.3192 12.3616 25.4056 12.3235 25.5114C12.2853 25.6173 12.2907 25.7339 12.3384 25.8358C12.4393 26.0492 12.6926 26.1379 12.9034 26.0395C14.4065 25.3323 15.3509 24.1953 16.6856 22.4135ZM4.8789 18.1469C5.12199 17.519 5.47284 16.9433 5.92127 16.4372C6.76805 15.4843 7.29199 14.7907 7.73066 14.041C7.78557 13.944 7.8001 13.8293 7.7711 13.7217C7.74211 13.6141 7.67193 13.5222 7.57573 13.4659C7.47953 13.4096 7.36504 13.3934 7.25701 13.4209C7.14898 13.4483 7.05609 13.5172 6.99842 13.6126C6.5903 14.3104 6.09436 14.9655 5.2866 15.8738C4.77258 16.4523 4.36638 17.1183 4.08727 17.8401C4.04659 17.9451 4.04929 18.062 4.09475 18.1649C4.14022 18.2679 4.22474 18.3486 4.32972 18.3893C4.4347 18.43 4.55153 18.4273 4.65453 18.3818C4.75752 18.3364 4.83823 18.2518 4.8789 18.1469ZM12.6154 7.34014C12.5603 7.35205 12.5081 7.37484 12.4618 7.40717C12.4156 7.43949 12.3763 7.48071 12.3462 7.52841C12.3161 7.57611 12.2958 7.62933 12.2866 7.68496C12.2773 7.74059 12.2792 7.79751 12.2921 7.8524C12.3051 7.90729 12.3289 7.95904 12.3621 8.00462C12.3953 8.05021 12.4373 8.08871 12.4856 8.11788C12.5338 8.14706 12.5874 8.16631 12.6432 8.17453C12.699 8.18274 12.7559 8.17974 12.8105 8.16571C13.5813 7.98419 14.3818 7.96776 15.1594 8.1175C15.937 8.26724 16.6741 8.57977 17.3224 9.03456C17.4147 9.09892 17.5288 9.12397 17.6396 9.1042C17.7504 9.08443 17.8488 9.02146 17.9131 8.92914C17.9775 8.83682 18.0025 8.72271 17.9828 8.61192C17.963 8.50114 17.9 8.40274 17.8077 8.33838C17.0613 7.81551 16.2129 7.45628 15.318 7.28425C14.4231 7.11221 13.5024 7.13126 12.6154 7.34014ZM10.9303 7.99899C9.60921 8.74183 8.58678 9.92165 8.05266 11.3195C7.94709 11.5956 7.83706 11.87 7.7226 12.1426C7.69905 12.1942 7.6861 12.25 7.68451 12.3067C7.68292 12.3634 7.69272 12.4199 7.71334 12.4728C7.73395 12.5256 7.76496 12.5738 7.80453 12.6145C7.8441 12.6551 7.89142 12.6875 7.9437 12.7095C7.99598 12.7316 8.05215 12.7429 8.10889 12.7429C8.16563 12.7428 8.22178 12.7314 8.27403 12.7093C8.32627 12.6871 8.37355 12.6548 8.41306 12.614C8.45257 12.5733 8.48351 12.5251 8.50405 12.4722C8.61478 12.2092 8.72721 11.9292 8.84514 11.6233C9.30884 10.4091 10.1972 9.38499 11.3465 8.73886C11.4446 8.68373 11.5168 8.59188 11.5472 8.48352C11.5776 8.37516 11.5637 8.25916 11.5085 8.16105C11.4534 8.06293 11.3616 7.99074 11.2532 7.96035C11.1448 7.92995 11.0284 7.94385 10.9303 7.99899ZM17.0865 21.1242C17.1811 21.1851 17.296 21.2059 17.406 21.182C17.5159 21.1581 17.6119 21.0916 17.6728 20.9969C18.551 19.633 19.2891 18.1681 19.9951 16.3867C20.0345 16.2825 20.0314 16.167 19.9865 16.0651C19.9415 15.9632 19.8582 15.8831 19.7547 15.842C19.6511 15.801 19.5356 15.8023 19.433 15.8457C19.3305 15.8891 19.2491 15.9711 19.2064 16.074C18.5213 17.8024 17.8068 19.221 16.9592 20.5379C16.8983 20.6325 16.8775 20.7475 16.9014 20.8574C16.9253 20.9674 16.9919 21.0633 17.0865 21.1242ZM20.0197 15.0278C20.1308 15.0456 20.2444 15.0184 20.3355 14.9524C20.4266 14.8863 20.4877 14.7868 20.5054 14.6757C20.5589 14.3406 20.5861 13.9969 20.5861 13.6554C20.5861 12.2117 20.1109 10.7621 19.1343 9.56741C19.0631 9.48027 18.9601 9.42499 18.8482 9.41373C18.7362 9.40247 18.6243 9.43616 18.5372 9.50738C18.45 9.5786 18.3947 9.68153 18.3835 9.79351C18.3722 9.90549 18.4059 10.0174 18.4771 10.1045C19.3256 11.1418 19.7371 12.3997 19.7371 13.6554C19.7371 13.9528 19.7134 14.251 19.6676 14.5421C19.65 14.6531 19.6772 14.7666 19.7432 14.8576C19.8092 14.9486 19.9087 15.0097 20.0197 15.0274V15.0278ZM10.1471 25.8061C10.0346 25.8061 9.92672 25.8508 9.84716 25.9304C9.7676 26.01 9.7229 26.1179 9.7229 26.2304C9.7229 26.3429 9.7676 26.4508 9.84716 26.5304C9.92672 26.6099 10.0346 26.6546 10.1471 26.6546C10.4891 26.6546 10.8344 26.6266 11.1738 26.5723C11.2288 26.5635 11.2816 26.544 11.329 26.5148C11.3765 26.4856 11.4177 26.4473 11.4504 26.4022C11.4831 26.3571 11.5066 26.306 11.5195 26.2518C11.5324 26.1976 11.5345 26.1414 11.5257 26.0863C11.5169 26.0313 11.4974 25.9786 11.4682 25.9311C11.439 25.8837 11.4007 25.8424 11.3556 25.8097C11.3105 25.7771 11.2594 25.7536 11.2052 25.7407C11.151 25.7278 11.0948 25.7256 11.0398 25.7344C10.7449 25.782 10.4445 25.8061 10.1471 25.8061Z" fill="black"/>
<path d="M10.1446 24.9685C11.5171 24.9685 12.8263 24.3788 13.7363 23.3513C16.0594 20.7295 17.3271 18.6414 18.5815 15.3713C19.5446 12.8619 18.2591 9.9936 15.6254 9.10397C13.1635 8.27203 10.5252 9.56979 9.62367 11.9226C8.77773 14.1321 8.11591 15.2215 6.54579 16.9928C4.83567 18.9201 4.95828 21.8359 6.82494 23.6313C7.71563 24.4916 8.90633 24.9712 10.1446 24.9685ZM7.18046 17.5557C8.83076 15.6941 9.52652 14.5483 10.4157 12.226C11.1539 10.3012 13.3167 9.22021 15.3535 9.90791C17.512 10.6376 18.5871 12.99 17.7895 15.0671C16.5757 18.2311 15.3488 20.2514 13.1008 22.7888C12.7302 23.2071 12.2751 23.5421 11.7655 23.7716C11.256 24.0011 10.7035 24.1198 10.1446 24.12C9.1258 24.1221 8.14618 23.7274 7.41337 23.0195C5.87591 21.5415 5.77367 19.1415 7.18046 17.5557Z" fill="black"/>
<path d="M10.1474 23.2844H10.1686C10.6055 23.2812 11.0368 23.1861 11.4345 23.0054C11.8323 22.8246 12.1876 22.5622 12.4773 22.2353C13.1904 21.4305 13.7814 20.6986 14.2846 19.9978C14.3502 19.9064 14.3768 19.7926 14.3585 19.6816C14.3402 19.5706 14.2786 19.4714 14.1872 19.4058C14.0958 19.3402 13.9821 19.3136 13.871 19.3318C13.76 19.3501 13.6608 19.4117 13.5952 19.5031C12.3564 21.2298 11.6229 22.3133 10.1474 22.4359C9.56449 22.4372 9.00405 22.2114 8.58487 21.8063C7.92306 21.17 7.72281 20.2553 7.99178 19.4548C8.02215 19.3496 8.01073 19.2368 7.95991 19.1398C7.90909 19.0429 7.8228 18.9693 7.71903 18.9344C7.61526 18.8995 7.50204 18.9061 7.40299 18.9527C7.30394 18.9993 7.22671 19.0824 7.18742 19.1845C6.81833 20.2842 7.0873 21.5429 7.99645 22.4177C8.5735 22.9752 9.34498 23.2861 10.1474 23.2844ZM8.85639 18.2033C10.1512 16.6866 10.8703 15.5335 11.6046 13.7966C11.6485 13.693 11.6494 13.5762 11.6072 13.4719C11.5649 13.3676 11.483 13.2843 11.3794 13.2405C11.2757 13.1966 11.1589 13.1957 11.0546 13.2379C10.9503 13.2802 10.8671 13.3621 10.8232 13.4657C10.1266 15.1139 9.44227 16.2093 8.21069 17.6522C8.13761 17.7378 8.10154 17.8489 8.11041 17.9612C8.11928 18.0734 8.17237 18.1775 8.258 18.2506C8.34362 18.3236 8.45477 18.3597 8.56699 18.3508C8.67921 18.342 8.78331 18.2889 8.85639 18.2033ZM12.2588 12.336C12.539 11.9409 12.9392 11.6467 13.4 11.4972C13.8607 11.3477 14.3573 11.3509 14.8161 11.5062C15.2648 11.6555 15.656 11.9408 15.9353 12.3224C15.9682 12.3674 16.0096 12.4055 16.0572 12.4344C16.1047 12.4634 16.1576 12.4828 16.2126 12.4913C16.2677 12.4999 16.3239 12.4975 16.378 12.4844C16.4322 12.4712 16.4832 12.4475 16.5282 12.4147C16.5732 12.3818 16.6112 12.3404 16.6402 12.2928C16.6692 12.2452 16.6885 12.1924 16.6971 12.1373C16.7057 12.0823 16.7033 12.0261 16.6902 11.9719C16.677 11.9178 16.6533 11.8668 16.6205 11.8218C16.238 11.2987 15.7023 10.9076 15.0877 10.7026C14.4563 10.489 13.7728 10.4845 13.1387 10.6899C12.5045 10.8953 11.9535 11.2997 11.5673 11.843C11.5072 11.9349 11.485 12.0464 11.5053 12.1543C11.5255 12.2622 11.5868 12.358 11.6761 12.4218C11.7655 12.4855 11.876 12.5122 11.9846 12.4963C12.0933 12.4804 12.1915 12.4227 12.2588 12.336ZM16.368 13.6583C16.3678 13.9339 16.317 14.2071 16.2183 14.4644C15.6502 15.945 15.1212 17.071 14.5026 18.1154C14.4452 18.2123 14.4287 18.3279 14.4566 18.4369C14.4844 18.546 14.5545 18.6395 14.6513 18.6969C14.7481 18.7542 14.8638 18.7708 14.9728 18.7429C15.0819 18.715 15.1754 18.645 15.2328 18.5482C15.8768 17.4608 16.4249 16.295 17.0103 14.7682C17.1461 14.4156 17.2157 14.0427 17.2165 13.6609C17.2167 13.6052 17.2059 13.55 17.1847 13.4984C17.1635 13.4469 17.1324 13.4 17.0932 13.3605C17.0539 13.321 17.0072 13.2896 16.9558 13.2682C16.9044 13.2467 16.8493 13.2355 16.7935 13.2354H16.7923C16.68 13.2354 16.5723 13.2799 16.4927 13.3592C16.4132 13.4385 16.3684 13.546 16.368 13.6583Z" fill="black"/>
<path d="M14.5475 12.2986C14.2018 12.1823 13.8247 12.2037 13.4945 12.3585C13.1643 12.5132 12.9064 12.7892 12.7746 13.1292C11.7797 15.7256 10.9138 17.1519 9.06922 19.2324C8.5648 19.8009 8.60086 20.6604 9.16468 21.2026C9.75438 21.7694 10.6856 21.7151 11.2155 21.1173C13.29 18.7746 14.3163 17.0853 15.4367 14.164C15.5065 13.9835 15.5387 13.7907 15.5314 13.5974C15.5241 13.4041 15.4774 13.2143 15.3941 13.0396C15.3109 12.865 15.1928 12.7092 15.0472 12.5817C14.9017 12.4543 14.7316 12.358 14.5475 12.2986ZM14.645 13.8598C13.5653 16.6725 12.5777 18.2995 10.58 20.5543C10.3721 20.7898 9.9945 20.8237 9.73868 20.5768C9.63292 20.4764 9.57021 20.3388 9.56373 20.1931C9.55724 20.0474 9.60748 19.9048 9.70389 19.7954C11.6274 17.6262 12.5293 16.1397 13.5666 13.4326C13.6756 13.1479 13.9993 13.0113 14.2539 13.0944L14.295 13.1089C14.6047 13.2137 14.7621 13.5552 14.645 13.8598Z" fill="black"/>
</svg>
