<svg width="16" height="16" viewBox="0 0 16 16" fill="none" xmlns="http://www.w3.org/2000/svg">
<path d="M7.99844 9.9209C7.39177 9.9209 6.89844 9.42755 6.89844 8.82088V7.17423C6.89844 6.56757 7.39177 6.07422 7.99844 6.07422C8.60511 6.07422 9.09844 6.56757 9.09844 7.17423V8.82088C9.09844 9.42755 8.60511 9.9209 7.99844 9.9209Z" stroke="#344054" stroke-width="1.5" stroke-linecap="round"/>
<path d="M11.3213 8.97978C11.188 10.6998 9.74797 12.0465 8.0013 12.0465C6.1613 12.0465 4.66797 10.5531 4.66797 8.71314V7.28646C4.66797 5.44646 6.1613 3.95312 8.0013 3.95312C9.72797 3.95312 11.148 5.26645 11.3146 6.94645" stroke="#344054" stroke-width="1.5" stroke-linecap="round"/>
<path d="M10 1.33398H11.3333C13.3333 1.33398 14.6667 2.66732 14.6667 4.66732V6.00065" stroke="#344054" stroke-width="1.5" stroke-miterlimit="10" stroke-linecap="round" stroke-linejoin="round"/>
<path d="M1.33203 6.00065V4.66732C1.33203 2.66732 2.66536 1.33398 4.66536 1.33398H5.9987" stroke="#344054" stroke-width="1.5" stroke-miterlimit="10" stroke-linecap="round" stroke-linejoin="round"/>
<path d="M10 14.6667H11.3333C13.3333 14.6667 14.6667 13.3333 14.6667 11.3333V10" stroke="#344054" stroke-width="1.5" stroke-miterlimit="10" stroke-linecap="round" stroke-linejoin="round"/>
<path d="M1.33203 10V11.3333C1.33203 13.3333 2.66536 14.6667 4.66536 14.6667H5.9987" stroke="#344054" stroke-width="1.5" stroke-miterlimit="10" stroke-linecap="round" stroke-linejoin="round"/>
</svg>
