<svg width="16" height="16" viewBox="0 0 16 16" fill="none" xmlns="http://www.w3.org/2000/svg">
<path d="M1.83321 8.12924L1.83313 8.12463C1.82044 7.4371 1.91803 6.76599 2.11769 6.13182C1.91888 6.76579 1.82181 7.43681 1.83321 8.12474V8.12924Z" fill="#292D32" stroke="#344054"/>
<path d="M3.87203 8.80078H3.9587C5.08256 8.80078 5.9987 9.71692 5.9987 10.8408V12.0941C5.9987 13.218 5.08255 14.1341 3.9587 14.1341H3.87203C2.74817 14.1341 1.83203 13.218 1.83203 12.0941V10.8408C1.83203 9.71692 2.74817 8.80078 3.87203 8.80078Z" fill="#292D32" stroke="#344054"/>
<path d="M12.04 8.80078H12.1267C13.2505 8.80078 14.1667 9.71692 14.1667 10.8408V12.0941C14.1667 13.218 13.2505 14.1341 12.1267 14.1341H12.04C10.9161 14.1341 10 13.218 10 12.0941V10.8408C10 9.71692 10.9161 8.80078 12.04 8.80078Z" fill="#292D32" stroke="#344054"/>
</svg>
