<svg width="75" height="101" viewBox="0 0 75 101" fill="none" xmlns="http://www.w3.org/2000/svg">
<path fill-rule="evenodd" clip-rule="evenodd" d="M35.7325 42.3091C37.3622 41.0707 41.4537 40.5138 43.1931 41.7062C44.9111 42.9037 45.0984 44.8401 45.899 46.6214C46.6543 46.266 47.9017 46.7751 48.1207 47.4745C48.3923 47.8044 48.4045 48.7312 48.5918 49.1746C56.7416 50.4692 57.9789 56.8098 58.9598 64.0081C60.2575 71.3126 63.2035 78.6011 61.9246 86.1175C62.0912 86.3582 62.2226 86.592 62.3441 86.8698C62.6351 87.3641 62.2602 88.0637 61.6731 88.0366C60.9131 87.97 60.1607 87.8791 59.3971 87.8507C57.2805 87.7773 55.162 87.7861 53.0445 87.8129L52.7558 87.8167C42.0846 87.9492 31.414 88.2105 20.7424 88.2798C20.3552 88.2803 20.1657 87.9338 20.2174 87.592C20.3215 86.9039 20.4181 86.2154 20.5189 85.5269C17.9947 86.1922 15.3114 86.3596 12.7944 85.5969C12.6183 85.4179 13.2046 85.5149 13.2977 85.4877C10.9813 83.9081 11.673 80.5805 11.8782 78.1838C13.1541 69.9713 13.6039 60.8847 18.5337 53.8769C20.6664 51.017 23.7931 48.7527 27.3859 48.2432L27.4855 48.2296C28.5361 48.0898 29.7069 48.0448 30.6254 47.4745C31.6584 46.6515 32.0987 45.1309 33.1855 45.1166C33.5443 45.1119 34.0325 45.565 34.5579 45.8726C34.5971 45.1959 34.9625 44.6249 35.0432 44.1002L35.0497 44.0553C35.1339 43.4437 35.0186 42.8933 35.7325 42.3091ZM53.2471 64.2251C50.9568 62.6373 45.0404 63.4351 44.905 63.524C44.6068 63.7197 44.4783 63.737 44.3171 63.9912C44.1578 64.0123 43.9987 64.0342 43.8397 64.0567C43.5208 64.1607 43.7571 64.5522 44.1255 64.4125C43.9039 65.3661 44.556 66.0443 44.8157 66.987C44.8999 67.2932 44.8187 67.8437 44.8157 68.1565C44.8408 68.5553 45.2827 69.0263 45.209 69.4264C44.9472 70.8488 43.5266 72.2363 44.1255 73.6157C44.5223 74.3948 45.7157 74.792 46.5092 75.0569C48.153 75.6865 51.0173 75.0332 51.9724 73.6157C52.4819 72.8596 53.0721 70.9524 53.3759 70.3609L53.4432 69.4224C53.6092 67.0897 53.7569 64.5785 53.2471 64.2251Z" fill="white"/>
<path fill-rule="evenodd" clip-rule="evenodd" d="M32.7884 44.9784C32.9466 44.8386 33.1805 45.0142 33.08 45.203C32.8543 45.6272 32.6227 46.0292 32.3196 46.4042C32.1359 46.6315 31.9391 46.8466 31.7396 47.0593C32.2515 47.5011 32.6905 48.0498 33.105 48.5639C33.6351 49.2215 34.1363 49.907 34.7313 50.5087C35.3181 51.1021 35.967 51.5169 36.7516 51.7936L36.9101 51.8485C37.6983 52.1246 38.5406 52.4975 38.9849 53.2422C39.0725 53.3891 38.8961 53.5705 38.7478 53.4789C37.9758 53.0019 37.0688 52.9059 36.2285 52.5907C35.4167 52.2863 34.7091 51.8177 34.0839 51.2197C33.4597 50.6227 32.9357 49.9434 32.389 49.2785C31.8484 48.621 31.2664 48.0595 30.627 47.5033C29.6402 48.1657 28.5139 48.4539 27.3687 48.737L27.2436 48.7679C26.097 49.0512 24.9565 49.3802 23.8807 49.8736C22.9323 50.3085 21.9994 50.8278 21.2268 51.5355C20.4067 52.2866 19.7684 53.2459 19.1842 54.184C17.8774 56.2828 16.9586 58.5822 16.1498 60.9094C15.3085 63.3301 14.6049 65.7993 14.0368 68.2979C13.7479 69.5688 13.5133 70.8487 13.3204 72.1376C13.2276 72.7583 13.1452 73.3804 13.0727 74.0039C12.9954 74.6696 12.9777 75.3545 12.773 75.9947C12.6853 76.269 12.4781 76.3829 12.2707 76.3732L12.2286 76.8988C12.1727 77.5997 12.1207 78.3008 12.1031 79.006C12.0739 80.1786 12.0871 81.3479 12.1717 82.518L12.1836 82.6775C12.25 83.5315 12.3985 84.4911 13.042 85.1164C13.7084 85.764 14.7332 85.9676 15.6315 85.9793C17.7235 86.0065 19.7372 85.0201 21.5885 84.1547C23.495 83.2635 25.3495 82.2743 27.1595 81.2014C28.0813 80.655 28.9931 80.0905 29.8933 79.5094C30.3351 79.2242 30.7737 78.9342 31.2091 78.6395C31.4584 78.4707 31.6947 78.2857 31.9486 78.1359C31.8242 78.0203 31.7687 77.8386 31.8729 77.68C31.139 77.0443 30.8336 75.91 30.7979 74.9922C30.769 74.2513 30.8783 73.5126 30.9645 72.7787C31.008 72.4086 31.0618 72.0392 31.1176 71.6708C31.1396 71.5252 31.1565 71.3696 31.1822 71.2159C29.2007 72.3025 27.1637 73.2702 25.0727 74.13C24.001 74.5707 22.9154 74.9669 21.8149 75.33L21.5919 75.4032C20.5491 75.7438 19.4815 76.0656 18.4035 76.2603C18.3458 76.2707 18.299 76.1858 18.3606 76.1587C19.4111 75.6962 20.498 75.306 21.5643 74.88L21.7395 74.8088C21.7194 74.8076 21.6985 74.8049 21.6767 74.7997C21.0514 74.6491 20.4309 74.417 19.8176 74.2215C19.2484 74.0402 18.6088 73.9263 18.0767 73.6524C18.0358 73.6314 18.0587 73.5746 18.0986 73.5719C18.6966 73.5305 19.3458 73.7044 19.9321 73.8067L20.1524 73.8452C20.5214 73.9102 20.8986 73.98 21.2658 74.071C21.279 73.9483 21.3478 73.825 21.4455 73.7527C22.5215 72.9576 22.4122 71.3516 22.5273 70.1673L22.6126 69.2881C22.7627 67.7494 22.9215 66.2108 23.1627 64.6836C23.1756 64.602 23.3021 64.6254 23.3026 64.7024C23.315 66.5956 23.1718 68.48 23.1 70.3702L23.0889 70.6803C23.0492 71.8466 23.0181 73.0577 22.282 73.9552C22.385 73.8952 22.5241 73.8952 22.6075 73.9941C22.71 74.1158 22.7691 74.2524 22.7673 74.3865C23.4324 74.1082 24.0947 73.8227 24.7537 73.5313C26.8725 72.5946 28.9469 71.5463 30.9664 70.4121C31.1838 70.29 31.3904 70.3859 31.4979 70.5469L31.5134 70.5446C31.516 70.5443 31.5186 70.544 31.5213 70.544L31.5367 70.5433C31.5373 70.5433 31.5379 70.5434 31.5384 70.5434C31.8227 70.3875 32.21 70.4985 32.4539 70.7259C32.4611 70.7327 32.4672 70.7401 32.4736 70.7474C32.7825 70.609 33.0709 70.4222 33.3326 70.1855C33.8681 69.7011 34.3218 69.1022 34.7172 68.5016C35.4455 67.3954 36.0641 66.1653 37.0479 65.2547C37.8472 64.5149 38.8382 64.0543 39.8778 63.7651C39.8735 63.7348 39.8851 63.7025 39.9061 63.681C39.9595 63.6264 39.9976 63.6075 40.0666 63.6407C40.0721 63.6434 40.0754 63.647 40.0776 63.651L40.1791 63.478C40.2345 63.3842 40.2913 63.2896 40.311 63.2648C40.4291 63.1165 40.5505 62.9693 40.6739 62.8252C40.883 62.5812 41.1212 62.3405 41.3971 62.1713C42.0012 61.801 42.6363 62.0106 43.2573 62.213C43.6326 62.3353 44.0066 62.4616 44.3812 62.5858L44.4199 62.5984C44.6992 62.6879 45.026 62.7663 45.151 63.0616C45.2004 63.1785 45.2081 63.2998 45.185 63.4174C47.838 62.7442 50.7847 63.0535 53.3736 63.8438C53.4729 63.8741 53.5722 63.9557 53.5931 64.0628C53.8897 65.5809 54.0218 67.1376 53.8876 68.6816C53.7718 70.0143 53.4759 71.3203 52.9183 72.5404L52.8866 72.6093C52.3625 73.74 51.532 75.1339 50.2635 75.4883C49.4976 75.7023 48.6505 75.5761 47.8693 75.5369C47.1101 75.4988 46.3341 75.4932 45.5821 75.3741C44.9124 75.268 44.3256 74.9685 43.9117 74.4251C43.5547 73.9562 43.3667 73.3896 43.2126 72.826C43.1421 72.8484 43.0721 72.8722 43.0032 72.8991C42.7122 73.0125 42.4657 73.1955 42.2428 73.4109C41.7721 73.8658 41.407 74.4182 40.9146 74.8522C40.4688 75.2452 39.9608 75.5507 39.416 75.7857C38.2869 76.2725 37.0757 76.4671 35.8814 76.7251L35.7981 76.7432C34.8991 76.94 33.9814 77.1818 33.1878 77.6489C33.1723 77.7864 33.1095 77.9158 33.0089 78.0005C33.1488 78.1317 33.2081 78.3394 33.0851 78.5343C32.7416 79.0784 32.1498 79.388 31.6185 79.7359L31.5839 79.7587C31.0613 80.1044 30.5341 80.4434 30.0027 80.7753C28.9222 81.4504 27.8192 82.0883 26.7006 82.6981C24.9015 83.6789 23.0637 84.6041 21.1927 85.4433C21.305 85.9947 21.2639 86.5632 21.3484 87.1182L21.3613 87.1974C21.3974 87.4034 21.3486 87.5758 21.2065 87.7103L21.1914 87.7241L21.1917 87.7223L21.1783 87.7345L21.1739 87.7382L21.1754 87.737C21.159 87.752 21.1421 87.7659 21.1248 87.7779L21.1029 87.792C20.9659 87.875 20.7896 87.8741 20.6494 87.8008L20.6334 87.792L20.6065 87.7766C20.4212 87.6702 20.2935 87.4067 20.3703 87.1974C20.5592 86.683 20.6306 86.134 20.805 85.6162L20.6666 85.6779L20.4842 85.7572C18.5117 86.6084 16.3205 87.3252 14.1713 86.7449C13.2216 86.4885 12.334 85.946 11.8589 85.0617C11.3913 84.1917 11.3252 83.1814 11.3004 82.2136C11.2698 81.019 11.3339 79.8063 11.4918 78.622C11.5978 77.827 11.7259 77.0171 11.9236 76.2303C11.8219 76.1408 11.7472 76.0124 11.7274 75.8534C11.6341 75.1019 11.7974 74.3208 11.8974 73.5732C11.995 72.8434 12.1029 72.115 12.2249 71.3888C12.4712 69.9223 12.7574 68.4589 13.0906 67.0096C13.6836 64.4301 14.4667 61.8966 15.4095 59.4236L15.492 59.2081C16.3632 56.9478 17.3719 54.7355 18.7765 52.7498C19.4484 51.7997 20.1587 50.9384 21.108 50.2538C21.9975 49.6123 23.0007 49.1505 24.0361 48.7975C25.0725 48.4442 26.1379 48.2075 27.222 48.0602C28.323 47.9107 29.4852 47.819 30.5123 47.3683C30.3824 47.1359 30.4939 46.8221 30.7125 46.6779C31.4484 46.1928 32.1289 45.5616 32.7884 44.9784ZM56.3452 66.0758C56.376 66.0291 56.4492 66.0586 56.4357 66.1139C56.0778 67.5771 55.7418 69.0433 55.5224 70.5344C55.1264 73.2258 55.1992 75.9523 55.2316 78.6635L55.2333 78.8037C55.2499 80.2641 55.273 81.7246 55.3214 83.1844C55.3458 83.9222 55.3942 84.6672 55.3679 85.4054C55.3536 85.8058 55.2466 86.1846 55.2087 86.5802C55.1755 86.9262 55.2051 87.2774 55.2216 87.6239C55.2327 87.8542 54.8921 87.8444 54.8689 87.6239L54.8393 87.3386C54.8008 86.9777 54.7532 86.6189 54.6346 86.2734C54.4921 85.8579 54.4237 85.4498 54.3743 85.0135C54.2985 84.345 54.2648 83.6698 54.2356 82.9965L54.2156 82.5308C54.0935 79.7173 54.0978 76.8906 54.2954 74.08L54.3099 73.8793C54.5056 71.2226 54.8451 68.3521 56.3452 66.0758ZM48.7161 49.3316C48.6226 49.2933 48.6553 49.1522 48.7589 49.1768L48.9471 49.2216C50.3266 49.5514 51.681 49.9086 52.9686 50.5222C54.257 51.1361 55.3478 52.0526 56.2146 53.1796C57.8994 55.3703 58.5996 58.0327 59.1523 60.6925C59.7666 63.6481 60.3258 66.6146 60.9454 69.5693L61.0605 70.1196C61.6338 72.8716 62.1751 75.6251 62.574 78.4096L62.6026 78.6116C63.0048 81.475 63.2468 84.4376 62.8079 87.3084C62.7211 87.8764 61.7739 87.735 61.811 87.1738C61.9179 85.5516 61.9945 83.9378 61.9205 82.3119C61.8464 80.6857 61.6936 79.0666 61.4657 77.4546C61.274 76.0981 60.9882 74.7584 60.7353 73.4126L60.6956 73.2001C60.4838 72.0554 60.2655 70.9119 60.0476 69.7683L59.722 68.0562C59.2341 65.4924 58.7366 62.9264 58.1744 60.3788L58.141 60.2289C57.5909 57.7779 56.7798 55.2104 55.1296 53.2641C53.455 51.2888 51.0577 50.294 48.7161 49.3316ZM42.6312 75.3293C42.6714 75.2397 42.8123 75.2495 42.8556 75.3293C43.0253 75.6417 43.0442 76.0406 43.0763 76.3933L43.0796 76.4296C43.1204 76.86 43.1565 77.2919 43.1787 77.7237C43.2206 78.5432 43.2407 79.3617 43.2381 80.1823C43.2354 81.0232 43.2185 81.8632 43.173 82.7029L43.1607 82.9279C43.1193 83.6576 43.0497 84.4715 42.7023 85.1094C42.576 85.3414 42.2325 85.2732 42.1593 85.0386C41.9196 84.2707 42.0427 83.3602 42.1042 82.5737L42.1519 81.9599C42.1992 81.3462 42.2442 80.7321 42.28 80.1176C42.329 79.2769 42.3694 78.4354 42.4083 77.5943C42.4209 77.3211 42.4346 77.0478 42.449 76.7746L42.4712 76.3649C42.4901 76.0222 42.4885 75.6461 42.6312 75.3293ZM15.6847 76.4176L15.7908 76.3154C16.1165 75.9973 16.528 75.5075 17.0095 75.5379C17.2015 75.55 17.3238 75.709 17.284 75.8975C17.199 76.3005 16.7871 76.5096 16.4906 76.7556C16.1658 77.025 15.8596 77.313 15.5541 77.6037C15.283 77.8615 15.0223 78.1267 14.7679 78.4001L14.6728 78.503C14.5816 78.6023 13.9321 79.1885 14.0023 79.3406L14.0061 79.3474C14.0257 79.3765 13.9931 79.4166 13.9607 79.4064C13.6803 79.318 13.6978 79.0781 13.8038 78.835C14.0075 78.368 14.3643 77.936 14.6759 77.5372C14.9866 77.1394 15.3229 76.769 15.6847 76.4176ZM43.6474 64.7066C43.4305 64.1951 42.6316 64.2058 42.178 64.2364C41.0358 64.3134 39.8001 64.6018 38.7838 65.1345C37.7302 65.6868 37.0205 66.5717 36.3855 67.5503L36.3557 67.5962C35.7368 68.5564 35.1407 69.6929 34.1715 70.3531C33.6779 70.6894 33.1014 70.9965 32.5025 71.1295C32.4613 71.2017 32.3947 71.2588 32.3074 71.2795L32.2668 71.2888C32.0962 71.3264 31.8312 71.368 31.6023 71.3431C31.6038 71.4549 31.6026 71.5657 31.6055 71.6716C31.6135 71.975 31.6169 72.2797 31.6169 72.5833C31.6171 73.2194 31.5828 73.8568 31.6094 74.4928C31.633 75.0554 31.7126 75.6432 31.9833 76.1461C32.1818 76.5151 32.4439 76.7592 32.7602 76.9923C33.5383 76.5191 34.4181 76.2306 35.3112 76.0138C36.3911 75.7515 37.4969 75.5764 38.5523 75.2208C39.0603 75.0495 39.5487 74.8255 39.9911 74.5212C40.4607 74.198 40.8194 73.7608 41.1885 73.3331L41.2462 73.2667C41.6228 72.8356 42.0338 72.4232 42.5661 72.1895C43.0245 71.9881 43.6286 71.9523 44.0294 71.6408C44.239 71.4778 44.2566 71.2413 44.2786 70.9991C44.0219 71.0357 43.7502 70.977 43.4943 70.9471L43.3618 70.9316C43.1199 70.9029 42.8835 70.8714 42.6454 70.8099C42.6011 70.7985 42.6011 70.732 42.6454 70.7206C42.9268 70.648 43.2058 70.6171 43.4943 70.5834L43.5621 70.575C43.8232 70.5408 44.0976 70.4892 44.3537 70.5466C44.3996 70.3721 44.466 70.2056 44.5591 70.0387C44.6897 69.8044 44.937 69.5387 44.9704 69.2649C44.9803 69.1832 44.9613 69.0868 44.9226 69.0145L44.9093 68.9899C44.8931 68.9608 44.8739 68.9315 44.8457 68.9134C44.8426 68.917 44.836 68.9212 44.8217 68.9256C44.6246 68.9876 44.4527 68.8913 44.3615 68.7429C43.9741 68.7909 43.5514 68.7748 43.1881 68.7908L42.8209 68.8085C42.4284 68.8265 42.0182 68.8343 41.6494 68.7552C41.5979 68.7442 41.5823 68.6587 41.6339 68.6367C42.0872 68.4432 42.6372 68.3814 43.1226 68.3071C43.3937 68.2656 43.6667 68.2339 43.9386 68.1974C44.1196 68.173 44.3117 68.1327 44.4993 68.123C44.9696 67.5389 44.7162 66.6173 44.0617 66.3657C43.8233 66.4703 43.609 66.4095 43.3485 66.3871C43.0885 66.3649 42.8279 66.3498 42.5668 66.3509C42.0437 66.3532 41.4894 66.4905 40.9714 66.4314C40.8872 66.4217 40.8089 66.3099 40.8926 66.2416C41.2892 65.9187 41.8574 65.8134 42.3608 65.7446L42.4651 65.7307C42.6338 65.7086 42.839 65.6764 43.0519 65.6572C43.1 65.5635 43.1864 65.4927 43.3161 65.4751C43.3546 65.4698 43.3934 65.4667 43.4321 65.4634L43.4315 65.4596C43.7479 65.4445 43.7341 64.9112 43.6474 64.7066ZM21.9883 74.6832C21.9827 74.6919 21.9765 74.7002 21.9699 74.7081L21.9597 74.7198L22.0124 74.6986L21.9883 74.6832ZM49.1682 63.5635C47.8366 63.4208 46.503 63.4509 45.1674 63.4892C45.0606 63.8379 44.6887 64.135 44.3285 64.1462C44.6106 64.5748 44.6398 65.1548 44.4419 65.6094C44.862 65.7762 45.2239 66.076 45.4436 66.5029C45.7483 67.0948 45.7084 67.7534 45.4073 68.3003C45.6643 68.5325 45.816 68.9096 45.8008 69.2649C45.7838 69.6612 45.5472 69.9997 45.3505 70.3278C45.138 70.6827 45.1308 70.9951 45.0655 71.3925C44.97 71.9741 44.5769 72.3269 44.0711 72.5472L44.098 72.6527C44.2284 73.1593 44.3907 73.6937 44.7634 74.0641C45.2428 74.5406 45.9866 74.5362 46.62 74.5664L46.6506 74.5679C47.2306 74.5968 47.8104 74.6307 48.3902 74.6635L48.8251 74.6878C49.4927 74.7244 50.1339 74.7288 50.6789 74.2884C51.5686 73.5695 52.1786 72.3797 52.5647 71.3264C53.375 69.1156 53.3847 66.6894 53.0128 64.3869C51.7653 63.9857 50.471 63.7032 49.1682 63.5635ZM38.0939 67.2315L38.1037 67.2321C38.3779 67.2634 38.5662 67.4849 38.6333 67.7477C38.7307 68.1297 38.6829 68.4751 38.9174 68.8199C39.1586 69.1745 39.3068 69.4584 39.3419 69.8965C39.3563 70.0767 39.3497 70.2565 39.3899 70.433L39.419 70.5566C39.45 70.6884 39.4753 70.8154 39.4599 70.9569C39.4459 71.086 39.3829 71.1865 39.2532 71.2279C38.8304 71.3628 38.504 71.052 38.3948 70.6588C38.3005 70.3193 38.4264 69.9146 38.2933 69.5957C38.2196 69.419 38.0836 69.2711 38.0067 69.0932C37.9306 68.9168 37.8924 68.7325 37.8802 68.5408C37.857 68.1782 38.1784 67.7425 37.9991 67.4139C37.9609 67.3438 38.0042 67.2293 38.0939 67.2315ZM32.4786 63.4894C32.7649 63.4313 33.0897 63.2983 33.372 63.4088C33.5171 63.4658 33.5888 63.6423 33.4662 63.7651C33.2533 63.978 32.9439 63.9899 32.6572 64.0401L32.632 64.0446C32.293 64.1072 31.9534 64.1666 31.6133 64.2228C30.9735 64.3286 30.3322 64.4221 29.6886 64.5015C29.0276 64.5832 28.3647 64.6558 27.7009 64.7105L27.444 64.7316C26.8833 64.7763 26.2998 64.8101 25.7497 64.7244C25.6697 64.7119 25.6826 64.5958 25.7497 64.5754C26.3524 64.3934 27.0135 64.3445 27.6366 64.2675C28.2991 64.1855 28.9604 64.0989 29.6201 63.9961C30.2786 63.8934 30.9363 63.7833 31.5916 63.6615C31.8877 63.6066 32.1835 63.5492 32.4786 63.4894ZM42.8079 62.9049C42.5567 62.8161 42.2804 62.6846 42.0081 62.7286C41.5387 62.8045 41.121 63.2609 40.7494 63.5615L40.936 63.5253C41.8906 63.3422 43.1547 63.1449 43.9561 63.7506C43.9581 63.7471 43.9597 63.7436 43.962 63.7401C44.0267 63.6421 44.1017 63.5656 44.1835 63.4817C44.1913 63.4744 44.1989 63.4668 44.2063 63.4591L44.2504 63.4122L44.1495 63.3773C43.9333 63.301 43.6771 63.2025 43.6367 63.1882L43.6339 63.1872C43.3582 63.094 43.0822 63.0019 42.8079 62.9049ZM34.9645 42.9371C34.9252 42.4329 35.7116 42.4371 35.7506 42.9371C35.8355 44.0288 35.5893 45.1102 35.0595 46.0673C35.0556 46.0743 35.0513 46.0805 35.0472 46.0871C35.3786 46.2591 35.7138 46.4243 36.0564 46.5718C36.4948 46.7607 36.9413 46.9326 37.3959 47.0785C37.8071 47.2105 38.3136 47.2626 38.6593 47.5374C39.3883 48.1166 39.1144 49.3187 38.9742 50.0979L38.9523 50.2209C38.8825 50.6219 38.832 51.0333 39.0014 51.4181C39.1823 51.8292 39.5481 52.1341 39.8745 52.4282L39.9404 52.4878C40.2295 52.7506 40.5598 53.07 40.7719 53.4263C40.9655 53.0269 41.2293 52.7005 41.5083 52.3331C41.7074 52.0709 41.5657 51.9845 41.4227 51.7283C41.2851 51.4818 41.2178 51.2189 41.2609 50.9377C41.3403 50.4183 41.7563 50.0431 42.1704 49.7611C42.6594 49.4284 43.2052 49.1818 43.7107 48.8722C44.7495 48.2362 45.7612 47.509 46.6726 46.7013C46.6977 46.679 46.7413 46.7082 46.7212 46.7387C46.0012 47.8315 45.157 48.7758 44.1195 49.5774C43.6988 49.9024 43.2568 50.172 42.8119 50.4554L42.684 50.5373C42.5054 50.6528 42.2826 50.8071 42.2018 51.0037C42.1206 51.2014 42.2939 51.3507 42.3871 51.5145C42.6834 52.0346 42.5405 52.5199 42.1893 52.961L42.1729 52.9813C41.8239 53.4105 41.5594 53.8096 41.4329 54.3579C41.1611 55.5357 41.5397 56.7625 41.936 57.8682L41.9517 57.9118C42.166 58.5078 42.3939 59.0995 42.5801 59.705L42.6314 59.8724C42.8001 60.4296 42.9383 60.9791 42.749 61.5518C42.6846 61.7467 42.4184 61.7927 42.3078 61.6094C41.9177 60.9628 41.8204 60.1847 41.5759 59.4738C41.3375 58.781 41.0639 58.1007 40.8337 57.405C40.5372 56.5093 40.3388 55.5451 40.4465 54.6056C40.4434 54.6002 40.4399 54.595 40.4372 54.5892L40.3618 54.4245C40.156 53.9785 39.9572 53.589 39.583 53.2335C39.1927 52.8626 38.7691 52.5343 38.4619 52.0854C37.7948 51.1102 38.2074 50.0255 38.288 48.9592L38.2972 48.8284C38.3118 48.6071 38.3199 48.3062 38.1749 48.153C38.0119 47.9805 37.6297 47.9365 37.4134 47.8601C36.8544 47.6627 36.3036 47.4327 35.779 47.1565C35.2796 46.8937 34.7959 46.6033 34.3455 46.263L34.1172 46.0917C33.757 45.8205 33.3835 45.5243 33.1421 45.1551C33.1143 45.1126 33.1616 45.044 33.2121 45.0644C33.615 45.2276 33.9832 45.4872 34.3603 45.713C34.3662 45.6993 34.373 45.6854 34.3807 45.6714C34.8472 44.8289 35.0391 43.8954 34.9645 42.9371ZM47.8375 48.7096C47.9981 48.2702 48.7299 48.3041 48.7007 48.8262C48.6783 49.2273 48.5077 49.5893 48.3517 49.9534L48.335 49.9925C48.1739 50.3719 47.9879 50.7281 47.7653 51.0759C47.3399 51.7406 46.8416 52.3576 46.3094 52.9398C45.8269 53.4676 45.1937 53.7904 44.4639 53.7368C44.1565 53.7142 43.8461 53.6361 43.5767 53.4829C43.2567 53.3008 42.9091 52.754 42.5009 52.8864C42.4614 52.8992 42.4245 52.8415 42.4587 52.8141C42.93 52.4354 43.465 53.0227 43.9162 53.1642C44.5962 53.3773 45.2939 53.1416 45.7316 52.5931C46.1885 52.0204 46.6091 51.3791 46.9931 50.7555C47.1882 50.4389 47.3661 50.1103 47.5198 49.7715C47.6749 49.4297 47.7101 49.0582 47.8375 48.7096ZM46.7415 46.0056C46.7217 45.9449 46.7972 45.8872 46.8506 45.9218C47.1603 46.123 47.4287 46.3889 47.7144 46.6219C48.0313 46.8804 48.3506 47.1337 48.6749 47.3831C49.1475 47.7467 48.5993 48.4161 48.1833 48.0188C47.6139 47.4755 46.9903 46.765 46.7415 46.0056ZM45.0411 43.8788C45.1669 43.3947 45.9111 43.5943 45.8027 44.0728L45.7991 44.0874C45.5937 44.8778 45.8862 45.6825 46.5107 46.1949L46.5337 46.2135C46.9288 46.529 46.3691 47.0806 45.9779 46.7681C45.1239 46.0861 44.7687 44.9275 45.0411 43.8788Z" fill="#364173"/>
<path fill-rule="evenodd" clip-rule="evenodd" d="M52.1919 30.5173C52.1657 29.0414 52.1366 27.5359 51.9168 26.0744C51.7018 24.6455 51.1105 23.3539 50.0943 22.3163C47.9358 20.1123 44.8071 19.5739 41.8948 19.0806L36.9155 18.2371C35.3964 17.9798 33.7758 17.5686 32.241 17.9334C31.4848 18.1132 30.8425 18.5309 30.2555 19.0251C29.6897 19.5015 29.0814 20.013 28.698 20.6539C28.314 21.2956 28.1818 22.0458 28.057 22.7717C27.9162 23.59 27.8068 24.4148 27.7291 25.2415C27.5733 26.8978 27.5521 28.5666 27.665 30.2263C27.7198 31.0314 27.8068 31.8341 27.918 32.6333C27.9732 33.0295 28.0355 33.4249 28.1059 33.8188C28.1266 33.9349 28.1424 34.0635 28.1636 34.1935C28.0066 34.6392 27.9173 35.1009 27.9245 35.5605C27.9457 36.9146 29.091 37.7671 30.2455 38.2248C30.915 38.4901 31.6149 38.6705 32.2726 38.9669C32.9646 39.2788 33.4356 39.7843 33.9087 40.361C34.811 41.4608 35.8293 42.4494 36.992 43.2741C39.4571 45.0227 42.5793 45.8498 45.5704 45.222C46.288 45.0714 47.012 44.8375 47.6571 44.4851C48.3382 44.1131 48.8503 43.5739 49.2803 42.9365C50.0789 41.7532 50.6515 40.4207 51.0848 39.0647C51.5266 37.6815 51.8403 36.2959 52.0114 34.8536C52.1818 33.416 52.2178 31.9638 52.1919 30.5173Z" fill="white"/>
<path fill-rule="evenodd" clip-rule="evenodd" d="M36.3041 13.0953C38.3646 12.8124 41.2086 13.7317 42.2347 15.5853C47.1339 14.4327 53.313 14.395 57.3509 18.2318C61.5643 22.7832 56.2721 28.7843 52.7629 30.1373C53.0184 31.3763 52.62 39.3144 49.8012 42.8552C47.5642 45.8553 42.3546 47.2398 39.944 43.6564L39.9252 43.6269C39.6669 43.213 39.8894 43.2263 40.1545 43.5342C42.515 45.6057 45.7245 45.6411 48.1977 43.4549C52.8329 39.459 52.355 29.6615 50.1494 23.9934C43.8688 23.305 37.1442 25.2047 32.8063 29.9226L33.0997 31.6848C33.1496 31.985 33.2064 32.285 33.2497 32.5863C33.2775 32.7793 33.2806 32.9713 33.1465 33.1276C32.704 33.6435 31.9582 32.8683 31.3445 32.5599C31.1633 32.5345 30.9818 32.5247 30.8038 32.5372C27.8555 32.9162 28.4364 38.6237 31.6768 37.6233C31.9491 37.454 32.183 37.5057 32.2887 37.7513C33.061 38.4573 33.5703 39.7165 34.8536 40.9292C35.3063 41.3842 35.7184 41.7648 36.2277 42.1297C36.5268 42.4316 37.4295 42.7394 37.1433 43.256C36.6022 44.4315 33.4113 40.739 32.8472 39.7179C31.0796 40.4144 29.1208 40.1778 27.289 40.0076C17.6255 39.5062 18.9155 29.341 26.8365 22.9232C28.3275 21.8278 29.9726 20.9342 31.6826 20.2466C31.916 20.1527 31.814 19.7702 31.5773 19.8654C30.4458 20.3204 29.3428 20.8621 28.2913 21.489L28.2897 21.1142C28.2882 20.4829 28.2981 19.8257 28.408 19.249C28.4629 18.8493 28.5553 18.4225 28.6975 18.1013C28.8733 17.1168 31.6274 13.7375 36.3041 13.0953ZM30.6748 33.8476C30.824 33.7061 31.1025 33.8748 31.2354 33.8706C31.5751 33.9169 31.8978 34.0601 32.1494 34.2368C32.3156 34.3297 32.4321 34.4169 32.5294 34.4972L32.532 34.4965C32.5313 34.4965 32.5304 34.4972 32.5296 34.4974L32.5388 34.5036C32.6805 34.604 33.1992 35.1699 32.8715 35.0177C32.847 34.986 32.822 34.9556 32.7968 34.9258C32.7941 34.9298 32.7903 34.9339 32.7858 34.9377L32.8042 34.965C33.0828 35.3831 32.6019 34.9426 32.5279 34.8256C32.5244 34.8284 32.5204 34.8304 32.5165 34.8324L32.6129 34.9494C32.6263 34.966 32.6369 34.9793 32.6457 34.9905L32.666 35.0101C32.9881 35.326 32.9982 35.6103 32.624 35.1432C32.6387 35.1652 32.6505 35.1886 32.6522 35.2093L32.6744 35.2375C32.9681 35.6152 32.7292 35.4811 32.5832 35.3197L32.571 35.3058L32.5735 35.3096C32.7093 35.5184 32.4398 35.3719 32.3922 35.2602L32.3902 35.2552C32.3383 35.2129 32.3064 35.1655 32.2955 35.1535L32.2934 35.1515C32.0408 34.8933 31.6747 34.6747 31.3637 34.5754C31.3186 34.5669 31.2729 34.56 31.2269 34.5552C31.0398 34.5135 30.8507 34.485 30.6597 34.4696C30.6363 34.4668 30.6126 34.4497 30.5949 34.4275C30.306 34.4178 30.3952 34.2996 30.515 34.2777L30.5171 34.2773L30.4934 34.2753C30.3079 34.2573 30.1813 34.1909 30.3688 34.1501L30.3926 34.1454C30.3897 34.1409 30.3871 34.1363 30.3846 34.1318C30.224 34.1142 30.3288 33.9584 30.4179 33.9961C30.3804 33.8738 30.5518 33.9349 30.5732 33.9167C30.5895 33.8986 30.6098 33.8827 30.6215 33.8818C30.6731 33.8455 30.6481 33.8487 30.6748 33.8476ZM31.6574 31.8667L31.6198 31.8887C31.5893 31.9064 31.558 31.9182 31.5266 31.9251C31.571 31.9439 31.6148 31.9643 31.6582 31.986C31.6575 31.9595 31.657 31.9329 31.657 31.9064L31.6574 31.8667Z" fill="#004E92"/>
<path fill-rule="evenodd" clip-rule="evenodd" d="M44.7373 39.9863C44.2935 39.8056 43.8975 39.5042 43.608 39.1192C43.5073 38.9854 43.4812 38.844 43.5023 38.7148C43.5261 38.5694 43.6123 38.4377 43.7298 38.3493C43.8477 38.2607 43.9951 38.217 44.1377 38.2393C44.2615 38.2586 44.3849 38.3263 44.4825 38.4667L44.5028 38.4948C44.675 38.7271 44.8992 38.9178 45.1548 39.0407C45.4011 39.1591 45.6766 39.2144 45.9617 39.1822C46.5046 39.121 46.8788 38.828 47.2766 38.4301C47.3259 38.3799 47.3752 38.328 47.4248 38.2754C47.4561 38.2277 47.4996 38.197 47.5478 38.1809C47.6014 38.163 47.662 38.1641 47.7175 38.1834C47.771 38.202 47.8188 38.2373 47.8509 38.2844C47.8814 38.329 47.8987 38.3842 47.8931 38.4477C47.8567 38.8601 47.6406 39.2281 47.3337 39.5171C46.9929 39.8381 46.5411 40.0601 46.1158 40.138C45.6472 40.2237 45.1697 40.1623 44.7373 39.9863ZM46.3368 33.6246C46.8354 33.927 47.595 34.6321 47.0587 35.3818C46.4274 36.0429 45.5184 35.2849 45.0705 34.9422C44.6552 34.6765 44.1886 35.3598 44.5739 35.67C47.8105 38.0612 49.124 33.7036 46.589 33.269C46.3099 33.2211 46.2062 33.531 46.3368 33.6246ZM40.5368 30.8429C40.5919 30.1606 41.6332 30.0056 41.7368 30.6808C41.8295 31.2856 41.7203 31.8412 41.4473 32.3858C41.1865 32.906 40.5309 32.6633 40.4813 32.1896C40.4148 31.5546 40.5025 31.2673 40.5368 30.8429ZM48.4635 30.5408C48.6087 30.3511 48.8183 30.2215 49.0695 30.2947C49.8541 30.5235 49.6229 31.6352 49.3473 32.1763C49.1976 32.4702 48.7136 32.5447 48.4948 32.2859C48.1383 31.864 47.9676 31.0214 48.4208 30.6058C48.4331 30.5844 48.4468 30.5627 48.4635 30.5408ZM41.4363 27.8573L41.5603 27.8357C41.9437 27.7695 42.4205 27.7059 42.6917 28.0135C42.8356 28.1766 42.8851 28.4798 42.6917 28.636C42.3516 28.9107 41.9755 28.8043 41.5679 28.8275C41.232 28.8467 40.9091 28.9022 40.5856 28.9945C39.8757 29.197 39.2973 29.5666 38.691 29.9724C38.6115 30.0257 38.5303 29.9241 38.5682 29.8499C38.9182 29.1658 39.5964 28.6039 40.2758 28.2614C40.6384 28.0785 41.0352 27.9269 41.4363 27.8573ZM47.7483 27.5509L47.8431 27.5702C48.8755 27.7856 50.2168 28.2158 50.7057 29.2277C50.7244 29.3708 50.7047 29.4015 50.6887 29.4215L50.6833 29.4282C50.6702 29.4453 50.6596 29.4689 50.5975 29.4883C50.5802 29.4842 50.5628 29.4799 50.5452 29.4753C50.3211 29.4167 50.1438 29.3359 49.9722 29.2522L49.786 29.1607C49.5701 29.055 49.3523 28.9532 49.1214 28.8781C48.6288 28.7177 48.122 28.6047 47.6074 28.5444C47.4959 28.5314 47.3885 28.4938 47.3038 28.4294C47.2234 28.3683 47.1619 28.2837 47.1339 28.1712C47.0976 28.0257 47.108 27.9155 47.1863 27.7842C47.2451 27.6856 47.3293 27.6173 47.426 27.578C47.5245 27.538 47.6367 27.5286 47.7483 27.5509Z" fill="black"/>
<path fill-rule="evenodd" clip-rule="evenodd" d="M52.8357 34.9844C52.6169 34.6913 52.2236 34.3066 51.8258 34.3272C51.7749 34.3299 51.7558 34.3849 51.7864 34.4221C51.9165 34.5807 52.0943 34.6935 52.2247 34.8554C52.379 35.047 52.4903 35.278 52.5628 35.5117C52.668 35.8512 52.6971 36.2354 52.6032 36.5807C52.4379 37.1892 51.9152 37.6352 51.3449 37.863C50.7805 38.0884 50.1012 38.1654 49.5674 37.8351C48.7794 37.3474 48.1111 36.6444 47.1207 36.6305C46.889 36.6273 46.7258 36.7332 46.6285 36.8843C46.5308 36.7386 46.3696 36.6355 46.1437 36.6329C45.0335 36.6205 44.2048 37.3832 43.2729 37.8587C42.6431 38.1801 41.8282 38.0803 41.1785 37.868C40.5656 37.6678 39.9003 37.2657 39.6691 36.6307C39.5415 36.2801 39.5701 35.8707 39.7011 35.5251C39.7873 35.2978 39.9203 35.0782 40.0849 34.8996C40.2556 34.7143 40.4799 34.5978 40.6547 34.4222C40.6905 34.3863 40.6623 34.3305 40.6153 34.3272C39.8728 34.277 39.2024 35.1617 39.0622 35.8035C38.9242 36.4356 39.13 37.066 39.5467 37.5484C40.3939 38.529 41.9627 38.8524 43.1837 38.5642C44.172 38.3311 45.1106 37.794 46.1437 37.8711C46.3702 37.888 46.5327 37.7938 46.6308 37.651C46.7291 37.7979 46.8927 37.8941 47.1207 37.8721C48.0836 37.779 48.943 38.4594 49.8776 38.6256C50.6217 38.7578 51.4255 38.5795 52.0631 38.1794C52.7296 37.7612 53.1987 37.0905 53.2296 36.2908C53.2474 35.8307 53.1121 35.3547 52.8357 34.9844Z" fill="black"/>
</svg>
