<svg width="24" height="24" viewBox="0 0 24 24" fill="none" xmlns="http://www.w3.org/2000/svg">
<path opacity="0.4" d="M18 3H6C3.79 3 2 4.78 2 6.97V17.03C2 19.22 3.79 21 6 21H18C20.21 21 22 19.22 22 17.03V6.97C22 4.78 20.21 3 18 3Z" fill="#332AB1"/>
<path d="M19 8.75H14C13.59 8.75 13.25 8.41 13.25 8C13.25 7.59 13.59 7.25 14 7.25H19C19.41 7.25 19.75 7.59 19.75 8C19.75 8.41 19.41 8.75 19 8.75Z" fill="#332AB1"/>
<path d="M19 12.75H15C14.59 12.75 14.25 12.41 14.25 12C14.25 11.59 14.59 11.25 15 11.25H19C19.41 11.25 19.75 11.59 19.75 12C19.75 12.41 19.41 12.75 19 12.75Z" fill="#332AB1"/>
<path d="M19 16.75H17C16.59 16.75 16.25 16.41 16.25 16C16.25 15.59 16.59 15.25 17 15.25H19C19.41 15.25 19.75 15.59 19.75 16C19.75 16.41 19.41 16.75 19 16.75Z" fill="#332AB1"/>
<path d="M8.49994 11.7919C9.77572 11.7919 10.8099 10.7577 10.8099 9.48187C10.8099 8.2061 9.77572 7.17188 8.49994 7.17188C7.22416 7.17188 6.18994 8.2061 6.18994 9.48187C6.18994 10.7577 7.22416 11.7919 8.49994 11.7919Z" fill="#332AB1"/>
<path d="M9.30003 13.1117C8.77003 13.0617 8.22003 13.0617 7.69003 13.1117C6.01003 13.2717 4.66003 14.6017 4.50003 16.2817C4.49003 16.4217 4.53003 16.5617 4.63003 16.6617C4.73003 16.7617 4.86003 16.8317 5.00003 16.8317H12C12.14 16.8317 12.28 16.7717 12.37 16.6717C12.46 16.5717 12.51 16.4317 12.5 16.2917C12.33 14.6017 10.99 13.2717 9.30003 13.1117Z" fill="#332AB1"/>
</svg>
