<svg width="24" height="24" viewBox="0 0 24 24" fill="none" xmlns="http://www.w3.org/2000/svg">
<path opacity="0.4" d="M22 7.81V13.9L20.37 12.5C19.59 11.83 18.33 11.83 17.55 12.5L13.39 16.07C12.61 16.74 11.35 16.74 10.57 16.07L10.23 15.79C9.52 15.17 8.39 15.11 7.59 15.65L2.67 18.95L2.56 19.03C2.19 18.23 2 17.28 2 16.19V7.81C2 4.17 4.17 2 7.81 2H16.19C19.83 2 22 4.17 22 7.81Z" fill="#211A8E"/>
<path d="M8.99914 10.3791C10.3136 10.3791 11.3791 9.31358 11.3791 7.99914C11.3791 6.6847 10.3136 5.61914 8.99914 5.61914C7.6847 5.61914 6.61914 6.6847 6.61914 7.99914C6.61914 9.31358 7.6847 10.3791 8.99914 10.3791Z" fill="#211A8E"/>
<path d="M22.0005 13.9005V16.1905C22.0005 19.8305 19.8305 22.0005 16.1905 22.0005H7.81055C5.26055 22.0005 3.42055 20.9305 2.56055 19.0305L2.67055 18.9505L7.59055 15.6505C8.39055 15.1105 9.52055 15.1705 10.2305 15.7905L10.5705 16.0705C11.3505 16.7405 12.6105 16.7405 13.3905 16.0705L17.5505 12.5005C18.3305 11.8305 19.5905 11.8305 20.3705 12.5005L22.0005 13.9005Z" fill="#211A8E"/>
</svg>
