<svg width="56" height="56" viewBox="0 0 56 56" fill="none" xmlns="http://www.w3.org/2000/svg">
<rect x="0.75" y="0.75" width="54.5" height="54.5" rx="27.25" fill="white"/>
<rect x="0.75" y="0.75" width="54.5" height="54.5" rx="27.25" stroke="#EAECF0" stroke-width="1.5"/>
<path d="M38 28C38 22.477 33.523 18 28 18C22.477 18 18 22.477 18 28C18 33.523 22.477 38 28 38" stroke="#475467" stroke-width="1.5" stroke-linecap="round" stroke-linejoin="round"/>
<path d="M28.9989 18.0508C28.9989 18.0508 31.9989 22.0008 31.9989 28.0008M26.9989 37.9508C26.9989 37.9508 23.9989 34.0008 23.9989 28.0008C23.9989 22.0008 26.9989 18.0508 26.9989 18.0508M18.6289 31.5008H27.9989M18.6289 24.5008H37.3689" stroke="#475467" stroke-width="1.5" stroke-linecap="round" stroke-linejoin="round"/>
<path d="M37.8792 33.9176C38.3732 34.2216 38.3422 34.9606 37.8342 35.0186L35.2672 35.3096L34.1162 37.6216C33.8882 38.0806 33.1832 37.8556 33.0662 37.2876L31.8112 31.1716C31.7122 30.6916 32.1442 30.3896 32.5612 30.6466L37.8792 33.9176Z" stroke="#475467" stroke-width="1.5"/>
</svg>
