<svg width="24" height="24" viewBox="0 0 24 24" fill="none" xmlns="http://www.w3.org/2000/svg">
<path opacity="0.4" d="M19.79 4.22031C16.83 1.27031 12.03 1.27031 9.09002 4.22031C7.02002 6.27031 6.40002 9.22031 7.20002 11.8203L2.50002 16.5203C2.17002 16.8603 1.94002 17.5303 2.01002 18.0103L2.31002 20.1903C2.42002 20.9103 3.09002 21.5903 3.81002 21.6903L5.99002 21.9903C6.47002 22.0603 7.14002 21.8403 7.48002 21.4903L8.30002 20.6703C8.50002 20.4803 8.50002 20.1603 8.30002 19.9603L6.36002 18.0203C6.07002 17.7303 6.07002 17.2503 6.36002 16.9603C6.65002 16.6703 7.13002 16.6703 7.42002 16.9603L9.37002 18.9103C9.56002 19.1003 9.88002 19.1003 10.07 18.9103L12.19 16.8003C14.78 17.6103 17.73 16.9803 19.79 14.9303C22.74 11.9803 22.74 7.17031 19.79 4.22031ZM14.5 12.0003C13.12 12.0003 12 10.8803 12 9.50031C12 8.12031 13.12 7.00031 14.5 7.00031C15.88 7.00031 17 8.12031 17 9.50031C17 10.8803 15.88 12.0003 14.5 12.0003Z" fill="#211A8E"/>
<path d="M14.5 12C15.8807 12 17 10.8807 17 9.5C17 8.11929 15.8807 7 14.5 7C13.1193 7 12 8.11929 12 9.5C12 10.8807 13.1193 12 14.5 12Z" fill="#211A8E"/>
</svg>
