<svg width="16" height="16" viewBox="0 0 16 16" fill="none" xmlns="http://www.w3.org/2000/svg">
<path d="M13.5561 14.1673H2.44381C2.55196 11.8395 4.91493 9.83398 7.99994 9.83398C11.0849 9.83398 13.4479 11.8395 13.5561 14.1673Z" fill="white" stroke="white"/>
<path d="M7.99984 1.33398C7.21317 1.33398 6.49317 1.60732 5.91984 2.06732C5.15317 2.67398 4.6665 3.61398 4.6665 4.66732C4.6665 5.29398 4.83984 5.88065 5.15317 6.38065C5.7265 7.34732 6.77984 8.00065 7.99984 8.00065C8.83984 8.00065 9.6065 7.69398 10.1932 7.16732C10.4532 6.94732 10.6798 6.68065 10.8532 6.38065C11.1598 5.88065 11.3332 5.29398 11.3332 4.66732C11.3332 2.82732 9.83984 1.33398 7.99984 1.33398ZM9.7265 4.30732L7.9465 5.94732C7.8265 6.06065 7.67317 6.11398 7.51984 6.11398C7.35984 6.11398 7.19984 6.05398 7.07984 5.93398L6.25984 5.10732C6.01317 4.86065 6.01317 4.46732 6.25984 4.22065C6.5065 3.97398 6.89984 3.97398 7.1465 4.22065L7.53984 4.61398L8.87984 3.38065C9.13317 3.14732 9.5265 3.16065 9.75984 3.41398C9.99317 3.67398 9.97984 4.07398 9.7265 4.30732Z" fill="white"/>
</svg>
