<svg width="16" height="16" viewBox="0 0 16 16" fill="none" xmlns="http://www.w3.org/2000/svg">
<g clip-path="url(#clip0_11891_190450)">
<path fill-rule="evenodd" clip-rule="evenodd" d="M7.99967 0.666016C8.36786 0.666016 8.66634 0.964492 8.66634 1.33268V3.99935C8.66634 4.36754 8.36786 4.66602 7.99967 4.66602C7.63148 4.66602 7.33301 4.36754 7.33301 3.99935V1.33268C7.33301 0.964492 7.63148 0.666016 7.99967 0.666016Z" fill="#475467"/>
<path fill-rule="evenodd" clip-rule="evenodd" d="M7.99967 11.332C8.36786 11.332 8.66634 11.6305 8.66634 11.9987V14.6654C8.66634 15.0336 8.36786 15.332 7.99967 15.332C7.63148 15.332 7.33301 15.0336 7.33301 14.6654V11.9987C7.33301 11.6305 7.63148 11.332 7.99967 11.332Z" fill="#475467"/>
<path fill-rule="evenodd" clip-rule="evenodd" d="M2.81489 2.8144C3.07524 2.55405 3.49735 2.55405 3.7577 2.8144L5.64437 4.70107C5.90472 4.96142 5.90472 5.38353 5.64437 5.64388C5.38402 5.90423 4.96191 5.90423 4.70156 5.64388L2.81489 3.75721C2.55454 3.49686 2.55454 3.07475 2.81489 2.8144Z" fill="#475467"/>
<path fill-rule="evenodd" clip-rule="evenodd" d="M10.3549 10.3554C10.6153 10.0951 11.0374 10.0951 11.2977 10.3554L13.1844 12.2421C13.4448 12.5024 13.4448 12.9245 13.1844 13.1849C12.9241 13.4452 12.5019 13.4452 12.2416 13.1849L10.3549 11.2982C10.0946 11.0379 10.0946 10.6158 10.3549 10.3554Z" fill="#475467"/>
<path fill-rule="evenodd" clip-rule="evenodd" d="M0.666504 7.9987C0.666504 7.63051 0.964981 7.33203 1.33317 7.33203H3.99984C4.36803 7.33203 4.6665 7.63051 4.6665 7.9987C4.6665 8.36689 4.36803 8.66536 3.99984 8.66536H1.33317C0.964981 8.66536 0.666504 8.36689 0.666504 7.9987Z" fill="#475467"/>
<path fill-rule="evenodd" clip-rule="evenodd" d="M11.333 7.9987C11.333 7.63051 11.6315 7.33203 11.9997 7.33203H14.6663C15.0345 7.33203 15.333 7.63051 15.333 7.9987C15.333 8.36689 15.0345 8.66536 14.6663 8.66536H11.9997C11.6315 8.66536 11.333 8.36689 11.333 7.9987Z" fill="#475467"/>
<path fill-rule="evenodd" clip-rule="evenodd" d="M5.64437 10.3554C5.90472 10.6158 5.90472 11.0379 5.64437 11.2982L3.7577 13.1849C3.49735 13.4452 3.07524 13.4452 2.81489 13.1849C2.55454 12.9245 2.55454 12.5024 2.81489 12.2421L4.70156 10.3554C4.96191 10.0951 5.38402 10.0951 5.64437 10.3554Z" fill="#475467"/>
<path fill-rule="evenodd" clip-rule="evenodd" d="M13.1844 2.8144C13.4448 3.07475 13.4448 3.49686 13.1844 3.75721L11.2977 5.64388C11.0374 5.90423 10.6153 5.90423 10.3549 5.64388C10.0946 5.38353 10.0946 4.96142 10.3549 4.70107L12.2416 2.8144C12.5019 2.55405 12.9241 2.55405 13.1844 2.8144Z" fill="#475467"/>
</g>
<defs>
<clipPath id="clip0_11891_190450">
<rect width="16" height="16" fill="white"/>
</clipPath>
</defs>
</svg>
