<svg width="32" height="32" viewBox="0 0 32 32" fill="none" xmlns="http://www.w3.org/2000/svg">
<rect width="32" height="32" rx="16" fill="#8A7EF9"/>
<path d="M19.5389 14.8209L19.539 14.8209L19.5449 14.8148C19.9223 14.4244 19.9308 13.7989 19.5389 13.4071C19.1503 13.0185 18.5137 13.0185 18.1251 13.4071L15.052 16.4802L13.8723 15.3004C13.4837 14.9118 12.8471 14.9118 12.4585 15.3004C12.0699 15.689 12.0699 16.3256 12.4585 16.7142L14.3451 18.6009L14.6987 18.2473L14.3451 18.6009C14.5312 18.7869 14.7846 18.894 15.052 18.894C15.3195 18.894 15.5729 18.7869 15.7589 18.6009L19.5389 14.8209ZM9.83203 16.0007C9.83203 12.6035 12.6015 9.83398 15.9987 9.83398C19.3959 9.83398 22.1654 12.6035 22.1654 16.0007C22.1654 19.3978 19.3959 22.1673 15.9987 22.1673C12.6015 22.1673 9.83203 19.3978 9.83203 16.0007Z" fill="white" stroke="white"/>
</svg>
