<svg width="32" height="32" viewBox="0 0 32 32" fill="none" xmlns="http://www.w3.org/2000/svg">
<rect width="32" height="32" rx="16" fill="#F2F4F7"/>
<g clip-path="url(#clip0_22343_125370)">
<path fill-rule="evenodd" clip-rule="evenodd" d="M16.0026 8.66602C16.3708 8.66602 16.6693 8.96449 16.6693 9.33268V11.9993C16.6693 12.3675 16.3708 12.666 16.0026 12.666C15.6344 12.666 15.3359 12.3675 15.3359 11.9993V9.33268C15.3359 8.96449 15.6344 8.66602 16.0026 8.66602Z" fill="#475467"/>
<path fill-rule="evenodd" clip-rule="evenodd" d="M16.0026 19.332C16.3708 19.332 16.6693 19.6305 16.6693 19.9987V22.6654C16.6693 23.0336 16.3708 23.332 16.0026 23.332C15.6344 23.332 15.3359 23.0336 15.3359 22.6654V19.9987C15.3359 19.6305 15.6344 19.332 16.0026 19.332Z" fill="#475467"/>
<path fill-rule="evenodd" clip-rule="evenodd" d="M10.8164 10.8144C11.0767 10.5541 11.4988 10.5541 11.7592 10.8144L13.6458 12.7011C13.9062 12.9614 13.9062 13.3835 13.6458 13.6439C13.3855 13.9042 12.9634 13.9042 12.703 13.6439L10.8164 11.7572C10.556 11.4969 10.556 11.0748 10.8164 10.8144Z" fill="#475467"/>
<path fill-rule="evenodd" clip-rule="evenodd" d="M18.3554 18.3554C18.6158 18.0951 19.0379 18.0951 19.2982 18.3554L21.1849 20.2421C21.4452 20.5024 21.4452 20.9245 21.1849 21.1849C20.9245 21.4452 20.5024 21.4452 20.2421 21.1849L18.3554 19.2982C18.0951 19.0379 18.0951 18.6158 18.3554 18.3554Z" fill="#475467"/>
<path fill-rule="evenodd" clip-rule="evenodd" d="M8.66797 15.9987C8.66797 15.6305 8.96645 15.332 9.33464 15.332H12.0013C12.3695 15.332 12.668 15.6305 12.668 15.9987C12.668 16.3669 12.3695 16.6654 12.0013 16.6654H9.33464C8.96645 16.6654 8.66797 16.3669 8.66797 15.9987Z" fill="#475467"/>
<path fill-rule="evenodd" clip-rule="evenodd" d="M19.3359 15.9987C19.3359 15.6305 19.6344 15.332 20.0026 15.332H22.6693C23.0375 15.332 23.3359 15.6305 23.3359 15.9987C23.3359 16.3669 23.0375 16.6654 22.6693 16.6654H20.0026C19.6344 16.6654 19.3359 16.3669 19.3359 15.9987Z" fill="#475467"/>
<path fill-rule="evenodd" clip-rule="evenodd" d="M13.6458 18.3554C13.9062 18.6158 13.9062 19.0379 13.6458 19.2982L11.7592 21.1849C11.4988 21.4452 11.0767 21.4452 10.8164 21.1849C10.556 20.9245 10.556 20.5024 10.8164 20.2421L12.703 18.3554C12.9634 18.0951 13.3855 18.0951 13.6458 18.3554Z" fill="#475467"/>
<path fill-rule="evenodd" clip-rule="evenodd" d="M21.1849 10.8144C21.4452 11.0748 21.4452 11.4969 21.1849 11.7572L19.2982 13.6439C19.0379 13.9042 18.6158 13.9042 18.3554 13.6439C18.0951 13.3835 18.0951 12.9614 18.3554 12.7011L20.2421 10.8144C20.5024 10.5541 20.9245 10.5541 21.1849 10.8144Z" fill="#475467"/>
</g>
<defs>
<clipPath id="clip0_22343_125370">
<rect width="16" height="16" fill="white" transform="translate(8 8)"/>
</clipPath>
</defs>
</svg>
