<svg width="32" height="32" viewBox="0 0 32 32" fill="none" xmlns="http://www.w3.org/2000/svg">
<rect width="32" height="32" rx="16" fill="#8A7EF9"/>
<path d="M21.5575 22.1673H10.4453C10.5534 19.8395 12.9164 17.834 16.0014 17.834C19.0864 17.834 21.4494 19.8395 21.5575 22.1673Z" fill="white" stroke="white"/>
<path d="M16.0013 9.33398C15.2146 9.33398 14.4946 9.60732 13.9213 10.0673C13.1546 10.674 12.668 11.614 12.668 12.6673C12.668 13.294 12.8413 13.8807 13.1546 14.3807C13.728 15.3473 14.7813 16.0007 16.0013 16.0007C16.8413 16.0007 17.608 15.694 18.1946 15.1673C18.4546 14.9473 18.6813 14.6807 18.8546 14.3807C19.1613 13.8807 19.3346 13.294 19.3346 12.6673C19.3346 10.8273 17.8413 9.33398 16.0013 9.33398ZM17.728 12.3073L15.948 13.9473C15.828 14.0607 15.6746 14.114 15.5213 14.114C15.3613 14.114 15.2013 14.054 15.0813 13.934L14.2613 13.1073C14.0146 12.8607 14.0146 12.4673 14.2613 12.2207C14.508 11.974 14.9013 11.974 15.148 12.2207L15.5413 12.614L16.8813 11.3807C17.1346 11.1473 17.528 11.1607 17.7613 11.414C17.9946 11.674 17.9813 12.074 17.728 12.3073Z" fill="white"/>
</svg>
