<svg width="16" height="16" viewBox="0 0 16 16" fill="none" xmlns="http://www.w3.org/2000/svg">
<path d="M11.5404 6.82087L11.5404 6.82092L11.5463 6.81483C11.9238 6.42438 11.9322 5.79894 11.5404 5.4071C11.1518 5.0185 10.5152 5.0185 10.1266 5.4071L7.0535 8.48021L5.87372 7.30043C5.48512 6.91184 4.84854 6.91184 4.45994 7.30043C4.07135 7.68903 4.07135 8.32561 4.45994 8.7142L6.34661 10.6009L6.70016 10.2473L6.34661 10.6009C6.53264 10.7869 6.78605 10.894 7.0535 10.894C7.32094 10.894 7.57435 10.7869 7.76038 10.6009L11.5404 6.82087ZM1.8335 8.00065C1.8335 4.60346 4.60297 1.83398 8.00016 1.83398C11.3974 1.83398 14.1668 4.60346 14.1668 8.00065C14.1668 11.3978 11.3974 14.1673 8.00016 14.1673C4.60297 14.1673 1.8335 11.3978 1.8335 8.00065Z" fill="white" stroke="white"/>
</svg>
