<svg width="52" height="52" viewBox="0 0 52 52" fill="none" xmlns="http://www.w3.org/2000/svg">
<g filter="url(#filter0_d_22343_125329)">
<rect x="2" y="1" width="48" height="48" rx="8" fill="white"/>
<rect x="2.5" y="1.5" width="47" height="47" rx="7.5" stroke="#EAECF0"/>
<path d="M37.3 15.1004L26.3 11.1004C26.1 11.0004 25.8 11.0004 25.6 11.1004L14.6 15.1004C14.3 15.2004 14 15.6004 14 16.0004V24.0004C14 32.3004 18.4 34.8004 24.4 38.2004L25.5 38.8004C25.7 39.0004 25.8 39.0004 26 39.0004C26.2 39.0004 26.3 39.0004 26.5 38.9004L27.6 38.3004C33.6 34.8004 38 32.3004 38 24.1004V16.0004C38 15.6004 37.7 15.2004 37.3 15.1004Z" fill="#C2BBFE"/>
<path d="M25.7 11.1L14.7 15.1C14.3 15.2 14 15.6 14 16V24C14 32.3 18.4 34.8 24.4 38.2L25.5 38.8C25.6 38.9 25.8 38.9 25.9 38.9V11C25.8 11 25.7 11 25.7 11.1Z" fill="#C2BBFE"/>
<path d="M38 24.0004V16.0004C38 15.6004 37.7 15.2004 37.3 15.1004L26.3 11.1004C26.1 11.0004 25.8 11.0004 25.6 11.1004L14.6 15.1004C14.3 15.2004 14 15.6004 14 16.0004V24.0004C14 24.3004 14 24.7004 14 25.0004H38C38 24.7004 38 24.3004 38 24.0004Z" fill="#C2BBFE"/>
<path d="M37.3 15.1L26.3 11.1C26.2 11 26.1 11 26 11V25H38C38 24.7 38 24.3 38 24V16C38 15.6 37.7 15.2 37.3 15.1Z" fill="#C2BBFE"/>
</g>
<defs>
<filter id="filter0_d_22343_125329" x="0" y="0" width="52" height="52" filterUnits="userSpaceOnUse" color-interpolation-filters="sRGB">
<feFlood flood-opacity="0" result="BackgroundImageFix"/>
<feColorMatrix in="SourceAlpha" type="matrix" values="0 0 0 0 0 0 0 0 0 0 0 0 0 0 0 0 0 0 127 0" result="hardAlpha"/>
<feOffset dy="1"/>
<feGaussianBlur stdDeviation="1"/>
<feColorMatrix type="matrix" values="0 0 0 0 0.0627451 0 0 0 0 0.0941176 0 0 0 0 0.156863 0 0 0 0.05 0"/>
<feBlend mode="normal" in2="BackgroundImageFix" result="effect1_dropShadow_22343_125329"/>
<feBlend mode="normal" in="SourceGraphic" in2="effect1_dropShadow_22343_125329" result="shape"/>
</filter>
</defs>
</svg>
