<svg width="52" height="52" viewBox="0 0 52 52" fill="none" xmlns="http://www.w3.org/2000/svg">
<g filter="url(#filter0_d_22320_122905)">
<rect x="2" y="1" width="48" height="48" rx="8" fill="white"/>
<rect x="2.5" y="1.5" width="47" height="47" rx="7.5" stroke="#EAECF0"/>
<path d="M30.9984 23.9998C30.7332 23.9998 30.4788 23.8945 30.2913 23.7069C30.1038 23.5194 29.9984 23.2651 29.9984 22.9998V19.9998C29.9984 18.939 29.577 17.9216 28.8268 17.1714C28.0767 16.4213 27.0593 15.9998 25.9984 15.9998C25.0763 15.9997 24.1824 16.3181 23.4681 16.9012C22.7537 17.4843 22.2628 18.2963 22.0784 19.1998C22.0254 19.4651 21.8691 19.6983 21.6441 19.8484C21.419 19.9984 21.1436 20.0529 20.8784 19.9998C20.6132 19.9468 20.3799 19.7906 20.2299 19.5655C20.0798 19.3405 20.0254 19.0651 20.0784 18.7998C20.319 17.2871 21.129 15.9237 22.3424 14.9889C23.5559 14.0542 25.0809 13.619 26.6049 13.7724C28.129 13.9258 29.5366 14.6563 30.5394 15.8141C31.5422 16.972 32.0642 18.4695 31.9984 19.9998V22.9998C31.9984 23.2651 31.893 23.5194 31.7055 23.7069C31.518 23.8945 31.2636 23.9998 30.9984 23.9998Z" fill="#C9C1F5"/>
<path d="M28.83 17.16C29.2025 17.5329 29.4977 17.9758 29.6985 18.4632C29.8993 18.9506 30.0017 19.4729 30 20V23C30 23.2652 30.1054 23.5196 30.2929 23.7071C30.4804 23.8946 30.7348 24 31 24C31.2652 24 31.5196 23.8946 31.7071 23.7071C31.8946 23.5196 32 23.2652 32 23V20C32 18.4087 31.3679 16.8826 30.2426 15.7574C29.1174 14.6321 27.5913 14 26 14V16C27.0598 15.9965 28.0776 16.4137 28.83 17.16Z" fill="#AFBDD6"/>
<path d="M32 22H20C18.3431 22 17 23.3431 17 25V33C17 34.6569 18.3431 36 20 36H32C33.6569 36 35 34.6569 35 33V25C35 23.3431 33.6569 22 32 22Z" fill="#FFC661"/>
<path d="M32 22H26V36H32C32.7956 36 33.5587 35.6839 34.1213 35.1213C34.6839 34.5587 35 33.7956 35 33V25C35 24.2044 34.6839 23.4413 34.1213 22.8787C33.5587 22.3161 32.7956 22 32 22Z" fill="#E49F4E"/>
</g>
<defs>
<filter id="filter0_d_22320_122905" x="0" y="0" width="52" height="52" filterUnits="userSpaceOnUse" color-interpolation-filters="sRGB">
<feFlood flood-opacity="0" result="BackgroundImageFix"/>
<feColorMatrix in="SourceAlpha" type="matrix" values="0 0 0 0 0 0 0 0 0 0 0 0 0 0 0 0 0 0 127 0" result="hardAlpha"/>
<feOffset dy="1"/>
<feGaussianBlur stdDeviation="1"/>
<feColorMatrix type="matrix" values="0 0 0 0 0.0627451 0 0 0 0 0.0941176 0 0 0 0 0.156863 0 0 0 0.05 0"/>
<feBlend mode="normal" in2="BackgroundImageFix" result="effect1_dropShadow_22320_122905"/>
<feBlend mode="normal" in="SourceGraphic" in2="effect1_dropShadow_22320_122905" result="shape"/>
</filter>
</defs>
</svg>
