<svg width="34" height="34" viewBox="0 0 34 34" fill="none" xmlns="http://www.w3.org/2000/svg">
<rect x="0.5" y="0.5" width="33" height="33" rx="16.5" fill="white"/>
<rect x="0.5" y="0.5" width="33" height="33" rx="16.5" stroke="#EAECF0"/>
<path d="M17.011 10.1836C14.5285 10.1836 12.511 12.2011 12.511 14.6836V16.8511C12.511 17.3086 12.316 18.0061 12.0835 18.3961L11.221 19.8286C10.6885 20.7136 11.056 21.6961 12.031 22.0261C15.2635 23.1061 18.751 23.1061 21.9835 22.0261C22.891 21.7261 23.2885 20.6536 22.7935 19.8286L21.931 18.3961C21.706 18.0061 21.511 17.3086 21.511 16.8511V14.6836C21.511 12.2086 19.486 10.1836 17.011 10.1836Z" stroke="#667085" stroke-width="1.33" stroke-miterlimit="10" stroke-linecap="round"/>
<path d="M18.4 10.3981C18.1675 10.3306 17.9275 10.2781 17.68 10.2481C16.96 10.1581 16.27 10.2106 15.625 10.3981C15.8425 9.84312 16.3825 9.45312 17.0125 9.45312C17.6425 9.45312 18.1825 9.84312 18.4 10.3981Z" stroke="#667085" stroke-width="1.33" stroke-miterlimit="10" stroke-linecap="round" stroke-linejoin="round"/>
<path d="M19.2617 22.2969C19.2617 23.5344 18.2492 24.5469 17.0117 24.5469C16.3967 24.5469 15.8267 24.2919 15.4217 23.8869C15.0167 23.4819 14.7617 22.9119 14.7617 22.2969" stroke="#667085" stroke-width="1.33" stroke-miterlimit="10"/>
<path d="M24 12.5C24 14.2949 22.5449 15.75 20.75 15.75C18.9551 15.75 17.5 14.2949 17.5 12.5C17.5 10.7051 18.9551 9.25 20.75 9.25C22.5449 9.25 24 10.7051 24 12.5Z" fill="#FF2A52" stroke="white"/>
</svg>
