<svg width="36" height="36" viewBox="0 0 36 36" fill="none" xmlns="http://www.w3.org/2000/svg">
<rect width="36" height="36" rx="18" fill="#EAECF0"/>
<path d="M13.6096 24.416C14.293 23.6827 15.3346 23.741 15.9346 24.541L16.7763 25.666C17.4513 26.5577 18.543 26.5577 19.218 25.666L20.0596 24.541C20.6596 23.741 21.7013 23.6827 22.3846 24.416C23.868 25.9994 25.0763 25.4743 25.0763 23.2577V13.866C25.0846 10.5077 24.3013 9.66602 21.1513 9.66602H14.8513C11.7013 9.66602 10.918 10.5077 10.918 13.866V23.2493C10.918 25.4743 12.1346 25.991 13.6096 24.416Z" stroke="#475467" stroke-width="1.33" stroke-linecap="round" stroke-linejoin="round"/>
<path d="M14.668 13.834H21.3346" stroke="#475467" stroke-width="1.33" stroke-linecap="round" stroke-linejoin="round"/>
<path d="M15.5 17.166H20.5" stroke="#475467" stroke-width="1.33" stroke-linecap="round" stroke-linejoin="round"/>
</svg>
