<svg width="41" height="40" viewBox="0 0 41 40" fill="none" xmlns="http://www.w3.org/2000/svg">
<g clip-path="url(#clip0_17675_13401)">
<path d="M13.8333 3.33594C12 3.33594 10.5 4.83594 10.5 6.66927L10.5167 11.9693C10.5167 12.8526 10.8667 13.6859 11.4833 14.3193L17.1667 20.0026L11.4833 25.7193C10.8667 26.3359 10.5167 27.1859 10.5167 28.0693L10.5 33.3359C10.5 35.1693 12 36.6693 13.8333 36.6693H27.1667C29 36.6693 30.5 35.1693 30.5 33.3359V28.0693C30.5 27.1859 30.15 26.3359 29.5333 25.7193L23.8333 20.0026L29.5167 14.3359C30.15 13.7026 30.5 12.8526 30.5 11.9693V6.66927C30.5 4.83594 29 3.33594 27.1667 3.33594H13.8333ZM27.1667 28.1859V31.6693C27.1667 32.5859 26.4167 33.3359 25.5 33.3359H15.5C14.5833 33.3359 13.8333 32.5859 13.8333 31.6693V28.1859C13.8333 27.7359 14.0167 27.3193 14.3167 27.0026L20.5 20.8359L26.6833 27.0193C26.9833 27.3193 27.1667 27.7526 27.1667 28.1859Z" fill="#DC6803"/>
</g>
<defs>
<clipPath id="clip0_17675_13401">
<rect width="40" height="40" fill="white" transform="translate(0.5)"/>
</clipPath>
</defs>
</svg>
