<svg width="25" height="24" viewBox="0 0 25 24" fill="none" xmlns="http://www.w3.org/2000/svg">
<path d="M12.2437 12.7805C12.1737 12.7705 12.0837 12.7705 12.0037 12.7805C10.2437 12.7205 8.84375 11.2805 8.84375 9.51047C8.84375 7.70047 10.3037 6.23047 12.1237 6.23047C13.9337 6.23047 15.4037 7.70047 15.4037 9.51047C15.3937 11.2805 14.0037 12.7205 12.2437 12.7805Z" stroke="#475467" stroke-width="1.5" stroke-linecap="round" stroke-linejoin="round"/>
<path d="M18.8667 19.3805C17.0867 21.0105 14.7267 22.0005 12.1267 22.0005C9.52672 22.0005 7.16672 21.0105 5.38672 19.3805C5.48672 18.4405 6.08672 17.5205 7.15672 16.8005C9.89672 14.9805 14.3767 14.9805 17.0967 16.8005C18.1667 17.5205 18.7667 18.4405 18.8667 19.3805Z" stroke="#475467" stroke-width="1.5" stroke-linecap="round" stroke-linejoin="round"/>
<path d="M12.125 22C17.6478 22 22.125 17.5228 22.125 12C22.125 6.47715 17.6478 2 12.125 2C6.60215 2 2.125 6.47715 2.125 12C2.125 17.5228 6.60215 22 12.125 22Z" stroke="#475467" stroke-width="1.5" stroke-linecap="round" stroke-linejoin="round"/>
</svg>
