<svg width="15" height="16" viewBox="0 0 15 16" fill="none" xmlns="http://www.w3.org/2000/svg">
<path d="M7.3793 2C5.8073 2 4.5293 3.278 4.5293 4.85C4.5293 6.392 5.7353 7.64 7.3073 7.694C7.3553 7.688 7.4033 7.688 7.4393 7.694C7.4513 7.694 7.4573 7.694 7.4693 7.694C7.4753 7.694 7.4753 7.694 7.4813 7.694C9.0173 7.64 10.2233 6.392 10.2293 4.85C10.2293 3.278 8.9513 2 7.3793 2Z" fill="#6254F6"/>
<path d="M10.4282 9.29013C8.75425 8.17412 6.02425 8.17412 4.33825 9.29013C3.57625 9.80013 3.15625 10.4901 3.15625 11.2281C3.15625 11.9661 3.57625 12.6501 4.33225 13.1541C5.17225 13.7181 6.27625 14.0001 7.38025 14.0001C8.48425 14.0001 9.58825 13.7181 10.4282 13.1541C11.1842 12.6441 11.6042 11.9601 11.6042 11.2161C11.5983 10.4781 11.1842 9.79413 10.4282 9.29013Z" fill="#6254F6"/>
</svg>
