<svg width="25" height="24" viewBox="0 0 25 24" fill="none" xmlns="http://www.w3.org/2000/svg">
<path d="M17.625 10H19.625C21.625 10 22.625 9 22.625 7V5C22.625 3 21.625 2 19.625 2H17.625C15.625 2 14.625 3 14.625 5V7C14.625 9 15.625 10 17.625 10Z" stroke="#475467" stroke-width="1.5" stroke-miterlimit="10" stroke-linecap="round" stroke-linejoin="round"/>
<path d="M5.625 22H7.625C9.625 22 10.625 21 10.625 19V17C10.625 15 9.625 14 7.625 14H5.625C3.625 14 2.625 15 2.625 17V19C2.625 21 3.625 22 5.625 22Z" stroke="#475467" stroke-width="1.5" stroke-miterlimit="10" stroke-linecap="round" stroke-linejoin="round"/>
<path d="M6.625 10C8.83414 10 10.625 8.20914 10.625 6C10.625 3.79086 8.83414 2 6.625 2C4.41586 2 2.625 3.79086 2.625 6C2.625 8.20914 4.41586 10 6.625 10Z" stroke="#475467" stroke-width="1.5" stroke-miterlimit="10" stroke-linecap="round" stroke-linejoin="round"/>
<path d="M18.625 22C20.8341 22 22.625 20.2091 22.625 18C22.625 15.7909 20.8341 14 18.625 14C16.4159 14 14.625 15.7909 14.625 18C14.625 20.2091 16.4159 22 18.625 22Z" stroke="#475467" stroke-width="1.5" stroke-miterlimit="10" stroke-linecap="round" stroke-linejoin="round"/>
</svg>
