<svg width="56" height="56" viewBox="0 0 56 56" fill="none" xmlns="http://www.w3.org/2000/svg">
<rect x="0.75" y="0.75" width="54.5" height="54.5" rx="27.25" fill="white"/>
<rect x="0.75" y="0.75" width="54.5" height="54.5" rx="27.25" stroke="#EAECF0" stroke-width="1.5"/>
<path d="M25.5 29.7502C25.5 30.7202 26.25 31.5002 27.17 31.5002H29.05C29.85 31.5002 30.5 30.8202 30.5 29.9702C30.5 29.0602 30.1 28.7302 29.51 28.5202L26.5 27.4702C25.91 27.2602 25.51 26.9402 25.51 26.0202C25.51 25.1802 26.16 24.4902 26.96 24.4902H28.84C29.76 24.4902 30.51 25.2702 30.51 26.2402" stroke="#475467" stroke-width="1.5" stroke-linecap="round" stroke-linejoin="round"/>
<path d="M28 23.5V32.5" stroke="#475467" stroke-width="1.5" stroke-linecap="round" stroke-linejoin="round"/>
<path d="M38 28C38 33.52 33.52 38 28 38C22.48 38 18 33.52 18 28C18 22.48 22.48 18 28 18" stroke="#475467" stroke-width="1.5" stroke-linecap="round" stroke-linejoin="round"/>
<path d="M33 19V23H37" stroke="#475467" stroke-width="1.5" stroke-linecap="round" stroke-linejoin="round"/>
<path d="M38 18L33 23" stroke="#475467" stroke-width="1.5" stroke-linecap="round" stroke-linejoin="round"/>
</svg>
