<svg width="16" height="16" viewBox="0 0 16 16" fill="none" xmlns="http://www.w3.org/2000/svg">
<path d="M14.6654 7.00065V10.334C14.6654 12.6673 13.332 13.6673 11.332 13.6673H4.66536C2.66536 13.6673 1.33203 12.6673 1.33203 10.334V5.66732C1.33203 3.33398 2.66536 2.33398 4.66536 2.33398H9.33203" stroke="#344054" stroke-width="1.5" stroke-miterlimit="10" stroke-linecap="round" stroke-linejoin="round"/>
<path d="M4.66797 6L6.75464 7.66667C7.44131 8.21333 8.56797 8.21333 9.25464 7.66667L10.0413 7.04" stroke="#344054" stroke-width="1.5" stroke-miterlimit="10" stroke-linecap="round" stroke-linejoin="round"/>
<path d="M12.9987 5.33333C13.9192 5.33333 14.6654 4.58714 14.6654 3.66667C14.6654 2.74619 13.9192 2 12.9987 2C12.0782 2 11.332 2.74619 11.332 3.66667C11.332 4.58714 12.0782 5.33333 12.9987 5.33333Z" stroke="#344054" stroke-width="1.5" stroke-miterlimit="10" stroke-linecap="round" stroke-linejoin="round"/>
</svg>
