<svg width="52" height="52" viewBox="0 0 52 52" fill="none" xmlns="http://www.w3.org/2000/svg">
<g filter="url(#filter0_d_22343_127917)">
<rect x="2" y="1" width="48" height="48" rx="8" fill="white"/>
<rect x="2.5" y="1.5" width="47" height="47" rx="7.5" stroke="#EAECF0"/>
<g clip-path="url(#clip0_22343_127917)">
<path d="M26 41C34.8366 41 42 33.8366 42 25C42 16.1634 34.8366 9 26 9C17.1634 9 10 16.1634 10 25C10 33.8366 17.1634 41 26 41Z" fill="#50B748"/>
<path d="M29.3656 40.6228C29.6724 40.5633 29.9774 40.4948 30.2803 40.4175C30.7937 40.2739 31.2997 40.1048 31.7963 39.9108C32.2935 39.7184 32.7807 39.5012 33.2563 39.2601C33.7319 39.0181 34.1952 38.7524 34.6443 38.4641C35.0928 38.1758 35.5267 37.8652 35.9443 37.5335C36.3625 37.2013 36.7639 36.8484 37.1469 36.4761C37.5293 36.1047 37.8929 35.7145 38.2363 35.3068C38.58 34.8988 38.903 34.4738 39.2043 34.0335C39.5054 33.5939 39.7844 33.1395 40.0403 32.6721C40.2961 32.204 40.5284 31.7234 40.7363 31.2321C40.9443 30.7407 41.1277 30.2392 41.2856 29.7295C41.4208 29.2832 41.5365 28.8312 41.6323 28.3748L32.1256 18.8695C31.3228 18.0631 30.3684 17.4234 29.3174 16.9873C28.2664 16.5511 27.1395 16.3271 26.0016 16.3281C24.8627 16.3269 23.7347 16.5508 22.6826 16.9869C21.6305 17.423 20.675 18.0628 19.8709 18.8695C19.0649 19.6737 18.4254 20.6291 17.9891 21.6809C17.5527 22.7326 17.3281 23.8601 17.3281 24.9988C17.3281 26.1375 17.5527 27.265 17.9891 28.3167C18.4254 29.3685 19.0649 30.3239 19.8709 31.1281L29.3656 40.6228Z" fill="#10A711"/>
<path d="M26.0016 16.3301C28.2176 16.3301 30.4336 17.1767 32.1296 18.8714C32.9356 19.6757 33.5751 20.6311 34.0115 21.6828C34.4478 22.7346 34.6724 23.8621 34.6724 25.0008C34.6724 26.1394 34.4478 27.2669 34.0115 28.3187C33.5751 29.3704 32.9356 30.3258 32.1296 31.1301C31.3253 31.9361 30.3699 32.5756 29.3182 33.012C28.2664 33.4483 27.1389 33.6729 26.0003 33.6729C24.8616 33.6729 23.7341 33.4483 22.6823 33.012C21.6306 32.5756 20.6752 31.9361 19.8709 31.1301C19.0649 30.3258 18.4254 29.3704 17.9891 28.3187C17.5527 27.2669 17.3281 26.1394 17.3281 25.0008C17.3281 23.8621 17.5527 22.7346 17.9891 21.6828C18.4254 20.6311 19.0649 19.6757 19.8709 18.8714C20.675 18.0648 21.6305 17.425 22.6826 16.9889C23.7347 16.5527 24.8627 16.3288 26.0016 16.3301ZM29.9483 22.3327C29.822 22.3448 29.7018 22.3925 29.6016 22.4701L24.7296 26.1234L22.4723 23.8674C21.9829 23.3581 21.0189 24.3207 21.5296 24.8101L24.1963 27.4767C24.3119 27.5861 24.4617 27.652 24.6204 27.6635C24.7791 27.6749 24.9369 27.6311 25.0669 27.5394L30.4003 23.5394C30.8483 23.2127 30.5723 22.3421 30.0176 22.3341C29.9949 22.3329 29.9722 22.3329 29.9496 22.3341L29.9483 22.3327Z" fill="white"/>
</g>
</g>
<defs>
<filter id="filter0_d_22343_127917" x="0" y="0" width="52" height="52" filterUnits="userSpaceOnUse" color-interpolation-filters="sRGB">
<feFlood flood-opacity="0" result="BackgroundImageFix"/>
<feColorMatrix in="SourceAlpha" type="matrix" values="0 0 0 0 0 0 0 0 0 0 0 0 0 0 0 0 0 0 127 0" result="hardAlpha"/>
<feOffset dy="1"/>
<feGaussianBlur stdDeviation="1"/>
<feColorMatrix type="matrix" values="0 0 0 0 0.0627451 0 0 0 0 0.0941176 0 0 0 0 0.156863 0 0 0 0.05 0"/>
<feBlend mode="normal" in2="BackgroundImageFix" result="effect1_dropShadow_22343_127917"/>
<feBlend mode="normal" in="SourceGraphic" in2="effect1_dropShadow_22343_127917" result="shape"/>
</filter>
<clipPath id="clip0_22343_127917">
<rect width="32" height="32" fill="white" transform="translate(10 9)"/>
</clipPath>
</defs>
</svg>
