<svg width="24" height="24" viewBox="0 0 24 24" fill="none" xmlns="http://www.w3.org/2000/svg">
<path opacity="0.4" d="M18.3514 19.68C17.8014 21.09 16.4614 22 14.9514 22H9.05145C7.53145 22 6.20144 21.09 5.65144 19.68C5.10144 18.26 5.48144 16.69 6.60144 15.67L10.6514 12H13.3614L17.4014 15.67C18.5214 16.69 18.8914 18.26 18.3514 19.68Z" fill="#292D32"/>
<path d="M13.82 18.1393H10.18C9.8 18.1393 9.5 17.8293 9.5 17.4593C9.5 17.0793 9.81 16.7793 10.18 16.7793H13.82C14.2 16.7793 14.5 17.0893 14.5 17.4593C14.5 17.8293 14.19 18.1393 13.82 18.1393Z" fill="#292D32"/>
<path d="M18.3506 4.32C17.8006 2.91 16.4606 2 14.9506 2H9.05065C7.54065 2 6.20065 2.91 5.65065 4.32C5.11065 5.74 5.48065 7.31 6.61065 8.33L10.6506 12H13.3606L17.4006 8.33C18.5206 7.31 18.8906 5.74 18.3506 4.32ZM13.8206 7.23H10.1806C9.80065 7.23 9.50065 6.92 9.50065 6.55C9.50065 6.18 9.81065 5.87 10.1806 5.87H13.8206C14.2006 5.87 14.5006 6.18 14.5006 6.55C14.5006 6.92 14.1906 7.23 13.8206 7.23Z" fill="#292D32"/>
</svg>
