<svg width="40" height="40" viewBox="0 0 40 40" fill="none" xmlns="http://www.w3.org/2000/svg">
<path opacity="0.4" d="M35.8346 13.9507V26.3673C35.8346 26.6173 35.7513 26.8673 35.5346 27.084C33.118 29.5173 28.818 33.8507 26.3513 36.334C26.1346 36.5673 25.8513 36.6673 25.568 36.6673H12.2846C7.8013 36.6673 4.16797 33.034 4.16797 28.5507V13.9507C4.16797 9.46732 7.8013 5.83398 12.2846 5.83398H27.718C32.2013 5.83398 35.8346 9.46732 35.8346 13.9507Z" fill="#667085"/>
<path d="M13.8164 10.484C13.1164 10.484 12.5664 9.91732 12.5664 9.23398V4.58398C12.5664 3.90065 13.1164 3.33398 13.8164 3.33398C14.5164 3.33398 15.0664 3.90065 15.0664 4.58398V9.21732C15.0664 9.91732 14.5164 10.484 13.8164 10.484Z" fill="#667085"/>
<path d="M26.1836 10.484C25.4836 10.484 24.9336 9.91732 24.9336 9.23398V4.58398C24.9336 3.88398 25.5003 3.33398 26.1836 3.33398C26.8836 3.33398 27.4336 3.90065 27.4336 4.58398V9.21732C27.4336 9.91732 26.8836 10.484 26.1836 10.484Z" fill="#667085"/>
<path d="M24.6323 21.1836H12.2656C11.5656 21.1836 11.0156 20.6169 11.0156 19.9336C11.0156 19.2503 11.5823 18.6836 12.2656 18.6836H24.6323C25.3323 18.6836 25.8823 19.2503 25.8823 19.9336C25.8823 20.6169 25.3323 21.1836 24.6323 21.1836Z" fill="#667085"/>
<path d="M19.999 27.3672H12.2656C11.5656 27.3672 11.0156 26.8005 11.0156 26.1172C11.0156 25.4172 11.5823 24.8672 12.2656 24.8672H19.999C20.699 24.8672 21.249 25.4339 21.249 26.1172C21.249 26.8005 20.699 27.3672 19.999 27.3672Z" fill="#667085"/>
<path d="M35.8344 26.3674C35.8344 26.6174 35.751 26.8674 35.5344 27.0841C33.1177 29.5174 28.8177 33.8508 26.351 36.3341C26.1344 36.5674 25.851 36.6674 25.5677 36.6674C25.0177 36.6674 24.4844 36.2341 24.4844 35.6008V29.7674C24.4844 27.3341 26.551 25.3174 29.0844 25.3174C30.6677 25.3008 32.8677 25.3008 34.751 25.3008C35.401 25.3008 35.8344 25.8174 35.8344 26.3674Z" fill="#667085"/>
</svg>
