<svg width="24" height="24" viewBox="0 0 24 24" fill="none" xmlns="http://www.w3.org/2000/svg">
<path opacity="0.4" d="M4.17038 15.2998L8.70038 19.8298C10.5604 21.6898 13.5804 21.6898 15.4504 19.8298L19.8404 15.4398C21.7004 13.5798 21.7004 10.5598 19.8404 8.6898L15.3004 4.1698C14.3504 3.2198 13.0404 2.7098 11.7004 2.7798L6.70038 3.0198C4.70038 3.1098 3.11038 4.6998 3.01038 6.6898L2.77038 11.6898C2.71038 13.0398 3.22038 14.3498 4.17038 15.2998Z" fill="#DC6803"/>
<path d="M9.50109 12.3791C11.0917 12.3791 12.3811 11.0897 12.3811 9.49914C12.3811 7.90856 11.0917 6.61914 9.50109 6.61914C7.91051 6.61914 6.62109 7.90856 6.62109 9.49914C6.62109 11.0897 7.91051 12.3791 9.50109 12.3791Z" fill="#DC6803"/>
<path d="M13.0014 17.7495C12.8114 17.7495 12.6214 17.6795 12.4714 17.5295C12.1814 17.2395 12.1814 16.7595 12.4714 16.4695L16.4714 12.4695C16.7614 12.1795 17.2414 12.1795 17.5314 12.4695C17.8214 12.7595 17.8214 13.2395 17.5314 13.5295L13.5314 17.5295C13.3814 17.6795 13.1914 17.7495 13.0014 17.7495Z" fill="#DC6803"/>
</svg>
