<svg width="56" height="56" viewBox="0 0 56 56" fill="none" xmlns="http://www.w3.org/2000/svg">
<path opacity="0.4" d="M37.8935 4.66797H18.1068C11.6668 4.66797 9.3335 7.0013 9.3335 13.558V42.4446C9.3335 49.0013 11.6668 51.3346 18.1068 51.3346H37.8702C44.3335 51.3346 46.6668 49.0013 46.6668 42.4446V13.558C46.6668 7.0013 44.3335 4.66797 37.8935 4.66797Z" fill="#6254F6"/>
<path d="M32.6668 14.582H23.3335C22.3768 14.582 21.5835 13.7887 21.5835 12.832C21.5835 11.8754 22.3768 11.082 23.3335 11.082H32.6668C33.6235 11.082 34.4168 11.8754 34.4168 12.832C34.4168 13.7887 33.6235 14.582 32.6668 14.582Z" fill="#6254F6"/>
<path d="M27.9998 45.0339C30.255 45.0339 32.0832 43.2057 32.0832 40.9505C32.0832 38.6954 30.255 36.8672 27.9998 36.8672C25.7447 36.8672 23.9165 38.6954 23.9165 40.9505C23.9165 43.2057 25.7447 45.0339 27.9998 45.0339Z" fill="#6254F6"/>
</svg>
