<svg width="56" height="56" viewBox="0 0 56 56" fill="none" xmlns="http://www.w3.org/2000/svg">
<path opacity="0.4" d="M47.8334 23.778H41.09C35.56 23.778 31.0567 19.2746 31.0567 13.7446V7.0013C31.0567 5.71797 30.0067 4.66797 28.7234 4.66797H18.83C11.6434 4.66797 5.83337 9.33464 5.83337 17.6646V38.338C5.83337 46.668 11.6434 51.3346 18.83 51.3346H37.17C44.3567 51.3346 50.1667 46.668 50.1667 38.338V26.1113C50.1667 24.828 49.1167 23.778 47.8334 23.778Z" fill="#332AB1"/>
<path d="M36.8666 5.15779C35.91 4.20112 34.2533 4.85446 34.2533 6.18446V14.3278C34.2533 17.7345 37.1466 20.5578 40.67 20.5578C42.8866 20.5811 45.9666 20.5811 48.6033 20.5811C49.9333 20.5811 50.6333 19.0178 49.7 18.0845C46.34 14.7011 40.32 8.61112 36.8666 5.15779Z" fill="#332AB1"/>
<path d="M26.9033 29.098L22.2366 24.4313C22.2133 24.408 22.1899 24.408 22.1899 24.3846C22.0499 24.2446 21.8633 24.128 21.6766 24.0346C21.6533 24.0346 21.6533 24.0346 21.6299 24.0346C21.4433 23.9646 21.2566 23.9413 21.0699 23.918C20.9999 23.918 20.9533 23.918 20.8833 23.918C20.7433 23.918 20.5799 23.9646 20.4399 24.0113C20.3699 24.0346 20.3233 24.058 20.2766 24.0813C20.0899 24.1746 19.9033 24.268 19.7633 24.4313L15.0966 29.098C14.4199 29.7746 14.4199 30.8946 15.0966 31.5713C15.7733 32.248 16.8933 32.248 17.5699 31.5713L19.2499 29.8913V39.668C19.2499 40.6246 20.0433 41.418 20.9999 41.418C21.9566 41.418 22.7499 40.6246 22.7499 39.668V29.8913L24.4299 31.5713C24.7799 31.9213 25.2233 32.0846 25.6666 32.0846C26.1099 32.0846 26.5533 31.9213 26.9033 31.5713C27.5799 30.8946 27.5799 29.7746 26.9033 29.098Z" fill="#332AB1"/>
</svg>
