<svg width="56" height="56" viewBox="0 0 56 56" fill="none" xmlns="http://www.w3.org/2000/svg">
<path opacity="0.4" d="M41.9998 7H13.9998C8.84317 7 4.6665 11.1533 4.6665 16.2633V39.7367C4.6665 44.8467 8.84317 49 13.9998 49H41.9998C47.1565 49 51.3332 44.8467 51.3332 39.7367V16.2633C51.3332 11.1533 47.1565 7 41.9998 7Z" fill="#332AB1"/>
<path d="M44.3332 20.418H32.6665C31.7098 20.418 30.9165 19.6246 30.9165 18.668C30.9165 17.7113 31.7098 16.918 32.6665 16.918H44.3332C45.2898 16.918 46.0832 17.7113 46.0832 18.668C46.0832 19.6246 45.2898 20.418 44.3332 20.418Z" fill="#332AB1"/>
<path d="M44.3333 29.75H35C34.0433 29.75 33.25 28.9567 33.25 28C33.25 27.0433 34.0433 26.25 35 26.25H44.3333C45.29 26.25 46.0833 27.0433 46.0833 28C46.0833 28.9567 45.29 29.75 44.3333 29.75Z" fill="#332AB1"/>
<path d="M44.3332 39.082H39.6665C38.7098 39.082 37.9165 38.2887 37.9165 37.332C37.9165 36.3754 38.7098 35.582 39.6665 35.582H44.3332C45.2898 35.582 46.0832 36.3754 46.0832 37.332C46.0832 38.2887 45.2898 39.082 44.3332 39.082Z" fill="#332AB1"/>
<path d="M19.8334 27.5105C22.8102 27.5105 25.2234 25.0973 25.2234 22.1205C25.2234 19.1437 22.8102 16.7305 19.8334 16.7305C16.8565 16.7305 14.4434 19.1437 14.4434 22.1205C14.4434 25.0973 16.8565 27.5105 19.8334 27.5105Z" fill="#332AB1"/>
<path d="M21.7001 30.5914C20.4634 30.4747 19.1801 30.4747 17.9434 30.5914C14.0234 30.9647 10.8734 34.0681 10.5001 37.9881C10.4767 38.3147 10.5701 38.6414 10.8034 38.8747C11.0367 39.1081 11.3401 39.2714 11.6667 39.2714H28.0001C28.3267 39.2714 28.6534 39.1314 28.8634 38.8981C29.0734 38.6647 29.1901 38.3381 29.1667 38.0114C28.7701 34.0681 25.6434 30.9647 21.7001 30.5914Z" fill="#332AB1"/>
</svg>
