<svg width="26" height="26" viewBox="0 0 26 26" fill="none" xmlns="http://www.w3.org/2000/svg">
<rect width="26" height="26" rx="13" fill="#F2F4F7"/>
<path d="M18.3971 13.5827V10.9577C18.3971 10.1841 18.0898 9.44227 17.5429 8.89529C16.9959 8.34831 16.254 8.04102 15.4805 8.04102H10.5221C9.74859 8.04102 9.00672 8.34831 8.45974 8.89529C7.91276 9.44227 7.60547 10.1841 7.60547 10.9577V15.041C7.60547 15.424 7.68091 15.8033 7.82749 16.1572C7.97406 16.511 8.1889 16.8326 8.45974 17.1034C9.00672 17.6504 9.74859 17.9577 10.5221 17.9577H14.1738" stroke="#344054" stroke-linecap="round" stroke-linejoin="round"/>
<path d="M7.75781 15.9169L9.35615 14.0503C9.56605 13.8418 9.84154 13.7122 10.136 13.6835C10.4304 13.6548 10.7258 13.7288 10.972 13.8928C11.2182 14.0568 11.5135 14.1307 11.808 14.102C12.1024 14.0733 12.3779 13.9438 12.5878 13.7353L13.947 12.3761C14.3375 11.9842 14.8546 11.7439 15.4059 11.698C15.9572 11.652 16.507 11.8035 16.957 12.1253L18.3978 13.2394M10.6745 11.9328C10.8016 11.932 10.9274 11.9062 11.0446 11.8568C11.1618 11.8075 11.2681 11.7355 11.3575 11.645C11.4469 11.5546 11.5175 11.4474 11.5655 11.3296C11.6135 11.2118 11.6377 11.0858 11.637 10.9586C11.6362 10.8314 11.6104 10.7057 11.561 10.5885C11.5117 10.4713 11.4397 10.365 11.3492 10.2756C11.2588 10.1862 11.1516 10.1155 11.0338 10.0676C10.916 10.0196 10.79 9.99535 10.6628 9.99611C10.406 9.99766 10.1603 10.1012 9.97981 10.2839C9.7993 10.4665 9.69877 10.7135 9.70031 10.9703C9.70186 11.2271 9.80536 11.4728 9.98806 11.6533C10.1707 11.8338 10.4177 11.9343 10.6745 11.9328Z" stroke="#344054" stroke-linecap="round" stroke-linejoin="round"/>
<path d="M16.9141 14.75V17.6667" stroke="#344054" stroke-miterlimit="10" stroke-linecap="round"/>
<path d="M18.2494 15.9769L17.102 14.8295C17.0771 14.8043 17.0475 14.7843 17.0149 14.7707C16.9822 14.757 16.9472 14.75 16.9118 14.75C16.8764 14.75 16.8414 14.757 16.8087 14.7707C16.7761 14.7843 16.7465 14.8043 16.7216 14.8295L15.5742 15.9769" stroke="#344054" stroke-linecap="round" stroke-linejoin="round"/>
</svg>
