<svg width="56" height="56" viewBox="0 0 56 56" fill="none" xmlns="http://www.w3.org/2000/svg">
<path opacity="0.4" d="M47.8333 23.778H41.0899C35.5599 23.778 31.0566 19.2746 31.0566 13.7446V7.0013C31.0566 5.71797 30.0066 4.66797 28.7233 4.66797H18.8299C11.6433 4.66797 5.83325 9.33464 5.83325 17.6646V38.338C5.83325 46.668 11.6433 51.3346 18.8299 51.3346H37.1699C44.3566 51.3346 50.1666 46.668 50.1666 38.338V26.1113C50.1666 24.828 49.1166 23.778 47.8333 23.778Z" fill="#211A8E"/>
<path d="M36.8668 5.15779C35.9101 4.20112 34.2534 4.85446 34.2534 6.18446V14.3278C34.2534 17.7345 37.1468 20.5578 40.6701 20.5578C42.8868 20.5811 45.9668 20.5811 48.6034 20.5811C49.9334 20.5811 50.6334 19.0178 49.7001 18.0845C46.3401 14.7011 40.3201 8.61112 36.8668 5.15779Z" fill="#211A8E"/>
<path d="M31.5 32.082H17.5C16.5433 32.082 15.75 31.2887 15.75 30.332C15.75 29.3754 16.5433 28.582 17.5 28.582H31.5C32.4567 28.582 33.25 29.3754 33.25 30.332C33.25 31.2887 32.4567 32.082 31.5 32.082Z" fill="#211A8E"/>
<path d="M26.8333 41.418H17.5C16.5433 41.418 15.75 40.6246 15.75 39.668C15.75 38.7113 16.5433 37.918 17.5 37.918H26.8333C27.79 37.918 28.5833 38.7113 28.5833 39.668C28.5833 40.6246 27.79 41.418 26.8333 41.418Z" fill="#211A8E"/>
</svg>
