<svg width="34" height="25" viewBox="0 0 34 25" fill="none" xmlns="http://www.w3.org/2000/svg">
<path d="M32.1867 0.903992H1.81333C0.811857 0.903992 0 1.81653 0 2.94221V22.8658C0 23.9915 0.811857 24.904 1.81333 24.904H32.1867C33.1881 24.904 34 23.9915 34 22.8658V2.94221C34 1.81653 33.1881 0.903992 32.1867 0.903992Z" fill="#00425F"/>
<path d="M7.08394 17.7582C9.96978 17.7582 12.3092 15.1286 12.3092 11.8849C12.3092 8.64116 9.96978 6.0116 7.08394 6.0116C4.1981 6.0116 1.85867 8.64116 1.85867 11.8849C1.85867 15.1286 4.1981 17.7582 7.08394 17.7582Z" fill="#EE312A"/>
<path d="M7.08394 14.4007C5.91526 11.4228 5.05823 8.64105 5.05823 8.64105H3.26644C3.26644 8.64105 4.35702 12.2116 6.38273 16.6767H7.78515C9.81087 12.2116 10.9014 8.64105 10.9014 8.64105H9.10966C9.10966 8.64105 8.25263 11.4228 7.08394 14.4007Z" fill="white"/>
<path d="M32.098 14.0304H28.5925C28.5925 14.0304 28.6704 15.3441 30.2284 15.3441C31.0074 15.3441 31.7865 15.0812 31.7865 15.0812L31.9423 16.4821C31.9423 16.4821 31.1632 16.8324 30.0726 16.8324C28.5146 16.8324 27.1124 15.9568 27.1124 13.505C27.1124 11.5786 28.2029 10.3528 29.761 10.3528C32.098 10.3528 32.2539 12.9797 32.098 14.0304ZM29.6831 11.5786C28.6704 11.5786 28.5925 12.8045 28.5925 12.8045H30.7737C30.7737 12.8045 30.6958 11.5786 29.6831 11.5786Z" fill="white"/>
<path d="M20.0525 11.9485L20.2862 10.5475C20.2862 10.5475 18.4813 9.93188 17.0143 11.0729V16.6768H18.5724L18.5723 12.1236C19.1955 11.5982 20.0525 11.9485 20.0525 11.9485Z" fill="white"/>
<path d="M15.7949 14.0304H12.2893C12.2893 14.0304 12.3672 15.3441 13.9252 15.3441C14.7042 15.3441 15.4832 15.0812 15.4832 15.0812L15.639 16.4821C15.639 16.4821 14.86 16.8324 13.7694 16.8324C12.2113 16.8324 10.8091 15.9568 10.8091 13.505C10.8091 11.5786 11.8998 10.3528 13.4578 10.3528C15.7949 10.3528 15.9506 12.9797 15.7949 14.0304ZM13.3799 11.5786C12.3672 11.5786 12.2893 12.8045 12.2893 12.8045H14.4705C14.4705 12.8045 14.3926 11.5786 13.3799 11.5786Z" fill="white"/>
<path d="M23.8364 14.5765C23.3521 13.2526 22.9614 11.8879 22.6679 10.4949L21.11 10.4952C21.11 10.4952 21.889 13.8758 23.2134 16.677H24.4595C25.7839 13.8758 26.5629 10.4958 26.5629 10.4958H25.005C24.7114 11.8884 24.3207 13.2529 23.8364 14.5765Z" fill="white"/>
</svg>
