<svg width="35" height="35" viewBox="0 0 35 35" fill="none" xmlns="http://www.w3.org/2000/svg">
<rect opacity="0.1" width="35" height="35" rx="8" fill="#02BF2B"/>
<path d="M8.56719 25.751L9.04026 24.0666L9.94189 20.8564C9.32239 19.6882 8.99777 18.3894 9.00001 17.0682M8.56719 25.751L10 17.0699M8.56719 25.751L10.2586 25.3038L13.6039 24.4193M8.56719 25.751L11.125 24.0404M9.00001 17.0682L10 17.0699M9.00001 17.0682C9.00001 17.0687 9.00001 17.0693 9.00001 17.0699H10M9.00001 17.0682C9.00095 12.4735 12.836 8.80273 17.5 8.80273C22.1646 8.80273 26 12.4745 26 17.0699C26 21.665 22.165 25.3366 17.5008 25.337C16.1442 25.339 14.8078 25.0239 13.6039 24.4193M10 17.0699C10 13.0562 13.3578 9.80273 17.5 9.80273C21.6423 9.80273 25 13.0562 25 17.0699C25 21.0835 21.6423 24.337 17.5 24.337C16.1746 24.3391 14.8725 23.9992 13.7275 23.3523M13.6039 24.4193L13.9831 24.3191L13.7275 23.3523M13.6039 24.4193C13.4797 24.357 13.3569 24.2915 13.2356 24.223L13.7275 23.3523M13.7275 23.3523L11.125 24.0404M11.125 24.0404L10.9658 24.6074L10.003 24.337L9.74741 23.3702L10.3168 23.2197M11.125 24.0404L10.3168 23.2197M10.3168 23.2197L11.017 20.7267L10.3168 23.2197ZM19.5166 17.9586L19.3939 18.2493L19.3924 18.2526L19.3846 18.2711L19.3655 18.3165L19.1539 18.8173C19.2047 18.8388 19.2576 18.8532 19.3113 18.8604C19.3208 18.8617 19.3302 18.8628 19.3397 18.8636C19.349 18.8641 19.3582 18.8644 19.3675 18.8645C19.4351 18.8651 19.5027 18.8548 19.5677 18.8336C19.6281 18.814 19.6861 18.785 19.7392 18.7472C19.754 18.7357 19.7646 18.7267 19.7704 18.7218C19.7808 18.7129 19.7895 18.7051 19.796 18.6991C19.8 18.6955 19.8032 18.6924 19.8055 18.6903C19.8122 18.6839 19.8167 18.6794 19.8184 18.6776C19.8189 18.6772 19.8192 18.6769 19.8192 18.6769C19.8192 18.6769 19.807 18.6896 19.7744 18.7259C19.7297 18.7756 19.6581 18.8569 19.5453 18.9876M19.5166 17.9586L18.9537 19.5682C19.0524 19.5113 19.1436 19.4409 19.2245 19.3585M19.5166 17.9586H19.6855C20.0796 18.1304 20.5938 18.3474 20.5938 18.3474M19.5166 17.9586L21.1728 18.7297M19.5453 18.9876C19.5305 18.9812 19.5157 18.9748 19.5008 18.9684L19.2544 19.1912L19.3236 19.2443C19.3165 19.2536 19.3093 19.2627 19.302 19.2717M19.5453 18.9876C19.4793 19.0642 19.3991 19.1577 19.302 19.2717M19.5453 18.9876C19.6424 19.0294 19.7383 19.0704 19.8253 19.1075C19.886 19.1334 19.9427 19.1575 19.9928 19.1788M19.302 19.2717C19.2986 19.2756 19.2952 19.2796 19.2918 19.2837L19.2198 19.2224L19.0911 19.3387L19.2245 19.3585M19.302 19.2717C19.2774 19.3019 19.2515 19.3309 19.2245 19.3585M19.2245 19.3585L19.2847 19.3674C19.3312 19.3679 19.3826 19.3654 19.4664 19.3612C19.4942 19.3598 19.5256 19.3582 19.5616 19.3565C19.6381 19.3526 19.7115 19.3324 19.7766 19.2989L19.7783 19.298C19.881 19.2452 19.9183 19.2248 19.9858 19.1837C19.9876 19.1824 19.99 19.1808 19.9928 19.1788M19.9928 19.1788C19.9929 19.1789 19.9931 19.179 19.9933 19.1791L20.005 19.184C20.0263 19.1931 20.0462 19.2015 20.0647 19.2094C20.0702 19.2117 20.0756 19.214 20.0808 19.2162C20.0858 19.2183 20.0906 19.2204 20.0953 19.2223L20.1754 19.2563L20.1971 19.2655L20.1999 19.2666L20.5063 19.3998L20.5115 19.402L20.6317 19.4543L20.6722 19.3611L20.6722 19.3611L20.846 18.9612L21.1623 19.0008M19.9928 19.1788C20.0003 19.1736 20.0112 19.1658 20.0253 19.1555L20.0331 19.1498L20.0332 19.1498C20.0814 19.1152 20.1032 19.0979 20.1276 19.0746C20.1306 19.0644 20.134 19.0525 20.1376 19.0389C20.1523 18.9827 20.1641 18.9225 20.1701 18.8754C20.1746 18.8394 20.1751 18.8206 20.1752 18.8145C20.1753 18.8073 20.1753 18.8076 20.1738 18.7758M20.1738 18.7758C20.1755 18.811 20.1792 18.8444 20.1845 18.8761L20.3546 18.8978L20.4124 18.7648L20.4149 18.7589L20.5938 18.3474M20.1738 18.7758C20.1737 18.7733 20.1736 18.7708 20.1735 18.7682L20.1735 18.7682L20.1738 18.7758ZM20.5938 18.3474L20.4201 18.7587L20.4177 18.7646L20.3611 18.8986L20.8323 18.9587L20.9347 18.7407L20.9355 18.7388L21.0303 18.5371M20.5938 18.3474L21.0303 18.5371M21.0303 18.5371L20.9427 18.7386L20.9419 18.7404L20.8463 18.9605L21.1623 19.0008M21.0303 18.5371C21.103 18.5713 21.1698 18.6519 21.1728 18.7297M21.1623 19.0008C21.1792 18.8649 21.1755 18.7874 21.1732 18.7382C21.173 18.7352 21.1729 18.7324 21.1728 18.7297M21.1623 19.0008C21.1383 19.189 21.0798 19.415 21.0213 19.5334C20.98 19.617 20.926 19.6904 20.8638 19.7529L21.1728 18.7297M14.675 15.3345C14.6739 15.1461 14.7307 14.9592 14.8415 14.7975C14.9285 14.9936 15.0143 15.1901 15.099 15.387C15.0738 15.4164 15.0355 15.4592 14.9925 15.5063C14.9671 15.5341 14.9438 15.5592 14.9269 15.5773L14.9073 15.5982L14.9024 15.6036L14.9013 15.6047L14.9011 15.6048L14.9011 15.6049L14.9011 15.6049L14.9011 15.6049L14.9011 15.6049L14.8866 15.6202L14.8728 15.6362L15.6288 16.2908C14.8728 15.6362 14.8725 15.6365 14.8723 15.6368L14.8717 15.6374L14.8707 15.6387L14.8686 15.6411L14.8642 15.6463L14.8549 15.6574C14.8486 15.6652 14.8417 15.6737 14.8346 15.683C14.8203 15.7015 14.8042 15.7234 14.7873 15.7486C14.7796 15.76 14.7716 15.7724 14.7633 15.7858C14.7037 15.6217 14.6756 15.4716 14.675 15.3361L14.675 15.3345ZM19.1268 18.9572V17.9586H19.2829H19.4011H19.4063H19.5154L19.3946 18.2322L19.3878 18.2475L19.3816 18.2617L19.3678 18.2929L19.139 18.8109C19.2165 18.8451 19.3029 18.8828 19.3919 18.9214C19.3901 18.9219 19.3883 18.9224 19.3864 18.9229C19.3277 18.9387 19.2377 18.9572 19.1268 18.9572ZM20.3002 19.1773C20.2893 19.1605 20.2782 19.1418 20.2672 19.1211L20.3603 18.9004L20.832 18.9594L20.6488 19.3495L20.6488 19.3496L20.6053 19.4423C20.5548 19.4186 20.5099 19.391 20.4702 19.3609C20.4649 19.3569 20.4598 19.3529 20.4548 19.3489C20.4141 19.3163 20.3791 19.281 20.3492 19.2446C20.3439 19.2381 20.3387 19.2316 20.3337 19.225C20.3336 19.2249 20.3335 19.2248 20.3335 19.2247C20.3232 19.2112 20.3119 19.1955 20.3003 19.1776C20.3003 19.1775 20.3002 19.1774 20.3002 19.1773ZM20.3538 18.8996L20.2619 19.1111C20.2303 19.0494 20.2007 18.9717 20.1849 18.8785L20.3538 18.8996Z" fill="#02BF2B" stroke="white" stroke-width="2"/>
</svg>
