<svg width="73" height="43" viewBox="0 0 73 43" fill="none" xmlns="http://www.w3.org/2000/svg">
<path d="M43 15H31C30.1716 15 29.5 14.3284 29.5 13.5V4.5C29.5 3.67157 30.1716 3 31 3H43C43.8284 3 44.5 3.67157 44.5 4.5V13.5C44.5 14.3284 43.8284 15 43 15ZM31 9V13.5H43V9H31ZM31 4.5V6H43V4.5H31ZM37.75 12H32.5V10.5H37.75V12Z" fill="#0082FA"/>
<path d="M6.90493 28.34H0.10093V29.474H2.83093V38H4.18893V29.474H6.90493V28.34ZM10.3928 31.336C10.3928 31.336 10.1408 31.224 9.69279 31.224C8.97879 31.224 8.37679 31.616 8.05479 32.372H8.01279L8.02679 31.35H6.68279V38H8.02679V34.682C8.02679 33.702 8.30679 33.184 8.43279 33.002C8.57279 32.82 8.93679 32.442 9.52479 32.442C9.88879 32.442 10.1268 32.526 10.2528 32.582H10.3088L10.3928 31.336ZM16.2648 34.136C16.2648 33.002 15.9988 32.442 15.5508 31.98C15.1028 31.532 14.4588 31.224 13.3528 31.224C12.2468 31.224 11.3508 31.616 10.8608 31.896L11.2668 32.792C11.4908 32.652 12.3028 32.218 13.2688 32.218C14.2348 32.218 14.9208 32.722 14.9208 33.73V33.996L13.1428 34.066C11.6028 34.136 10.5388 34.794 10.5388 36.096C10.5388 37.384 11.6028 38.154 12.8348 38.154C14.0528 38.154 14.6828 37.44 14.9488 37.16L14.9628 38H16.2648V34.136ZM14.9348 36.236C14.6828 36.614 14.1088 37.202 13.2408 37.202C12.3588 37.202 11.8688 36.684 11.8688 36.054C11.8688 35.424 12.3028 34.962 13.3808 34.906L14.9348 34.808V36.236ZM23.7714 34.066C23.7714 32.47 23.2814 31.224 21.3914 31.224C20.4254 31.224 19.7114 31.742 19.3614 32.4H19.3194L19.3334 31.35H17.9894V38H19.3334V34.654C19.3334 33.38 19.7954 32.33 21.0414 32.33C22.2314 32.33 22.4274 33.17 22.4274 34.29V38H23.7714V34.066ZM30.0436 36.054C30.0436 35.452 29.7636 35.06 29.5116 34.822C29.3156 34.626 29.0076 34.458 28.7416 34.346C28.4616 34.234 28.2096 34.15 27.8456 34.024C27.1876 33.814 26.5436 33.576 26.5436 33.03C26.5436 32.484 26.9636 32.204 27.6076 32.204C28.2516 32.204 28.8956 32.512 29.2876 32.918L29.8476 32.092C29.4276 31.644 28.7556 31.224 27.5796 31.224C26.4036 31.224 25.3396 31.896 25.3396 33.128C25.3396 34.08 25.9696 34.514 26.3896 34.724C26.6976 34.892 26.8516 34.92 27.2996 35.074C27.7476 35.228 28.7976 35.452 28.7976 36.18C28.7976 36.908 28.1396 37.132 27.5236 37.132C26.9076 37.132 26.0676 36.796 25.5636 36.18L24.9196 36.964C25.4796 37.692 26.3896 38.154 27.5096 38.154C28.2796 38.154 28.8956 37.944 29.3576 37.566C29.7916 37.202 30.0436 36.698 30.0436 36.054ZM36.5265 34.136C36.5265 33.002 36.2605 32.442 35.8125 31.98C35.3645 31.532 34.7205 31.224 33.6145 31.224C32.5085 31.224 31.6125 31.616 31.1225 31.896L31.5285 32.792C31.7525 32.652 32.5645 32.218 33.5305 32.218C34.4965 32.218 35.1825 32.722 35.1825 33.73V33.996L33.4045 34.066C31.8645 34.136 30.8005 34.794 30.8005 36.096C30.8005 37.384 31.8645 38.154 33.0965 38.154C34.3145 38.154 34.9445 37.44 35.2105 37.16L35.2245 38H36.5265V34.136ZM35.1965 36.236C34.9445 36.614 34.3705 37.202 33.5025 37.202C32.6205 37.202 32.1305 36.684 32.1305 36.054C32.1305 35.424 32.5645 34.962 33.6425 34.906L35.1965 34.808V36.236ZM43.3471 36.166C43.3471 36.166 42.6331 37.006 41.3311 37.006C40.0431 37.006 39.1611 36.04 39.1611 34.64C39.1611 33.24 40.1411 32.344 41.3171 32.344C42.4931 32.344 43.0811 32.932 43.3051 33.156L43.7811 32.176C43.7111 32.092 42.9831 31.224 41.2051 31.224C39.4411 31.224 37.8031 32.54 37.8031 34.682C37.8031 36.81 39.3711 38.154 41.1631 38.154C42.9411 38.154 43.6271 37.342 43.8231 37.146L43.3471 36.166ZM48.0457 36.852C48.0457 36.852 47.7517 37.006 47.3597 37.006C46.9817 37.006 46.7997 36.88 46.6737 36.67C46.5197 36.39 46.5057 36.012 46.5057 35.452V32.442H48.1017V31.364H46.5057V29.376H45.1617V31.364H44.1817V32.442H45.1617V35.48C45.1617 36.53 45.2177 37.048 45.4977 37.468C45.7777 37.888 46.2117 38.154 46.9117 38.154C47.6117 38.154 48.1297 37.93 48.1297 37.93L48.0457 36.852ZM50.8393 29.166C50.8393 28.69 50.4753 28.34 49.9713 28.34C49.4533 28.34 49.0893 28.69 49.0893 29.166C49.0893 29.642 49.4533 29.992 49.9713 29.992C50.4753 29.992 50.8393 29.642 50.8393 29.166ZM50.6433 31.35H49.2993V38H50.6433V31.35ZM59.1459 34.696C59.1459 32.638 57.6059 31.224 55.6319 31.224C53.6439 31.224 52.1039 32.638 52.1039 34.696C52.1039 36.768 53.6439 38.154 55.6319 38.154C57.6059 38.154 59.1459 36.768 59.1459 34.696ZM57.7879 34.654C57.7879 35.97 56.9619 37.006 55.6319 37.006C54.2879 37.006 53.4619 35.97 53.4619 34.654C53.4619 33.352 54.2879 32.316 55.6319 32.316C56.9619 32.316 57.7879 33.352 57.7879 34.654ZM66.332 34.066C66.332 32.47 65.842 31.224 63.952 31.224C62.986 31.224 62.272 31.742 61.922 32.4H61.88L61.894 31.35H60.55V38H61.894V34.654C61.894 33.38 62.356 32.33 63.602 32.33C64.792 32.33 64.988 33.17 64.988 34.29V38H66.332V34.066ZM72.6042 36.054C72.6042 35.452 72.3242 35.06 72.0722 34.822C71.8762 34.626 71.5682 34.458 71.3022 34.346C71.0222 34.234 70.7702 34.15 70.4062 34.024C69.7482 33.814 69.1042 33.576 69.1042 33.03C69.1042 32.484 69.5242 32.204 70.1682 32.204C70.8122 32.204 71.4562 32.512 71.8482 32.918L72.4082 32.092C71.9882 31.644 71.3162 31.224 70.1402 31.224C68.9642 31.224 67.9002 31.896 67.9002 33.128C67.9002 34.08 68.5302 34.514 68.9502 34.724C69.2582 34.892 69.4122 34.92 69.8602 35.074C70.3082 35.228 71.3582 35.452 71.3582 36.18C71.3582 36.908 70.7002 37.132 70.0842 37.132C69.4682 37.132 68.6282 36.796 68.1242 36.18L67.4802 36.964C68.0402 37.692 68.9502 38.154 70.0702 38.154C70.8402 38.154 71.4562 37.944 71.9182 37.566C72.3522 37.202 72.6042 36.698 72.6042 36.054Z" fill="#0082FA"/>
</svg>
