<svg width="16" height="18" viewBox="0 0 16 18" fill="none" xmlns="http://www.w3.org/2000/svg">
<path fill-rule="evenodd" clip-rule="evenodd" d="M13.6 1.6H12V0.8C12 0.32 11.68 0 11.2 0C10.72 0 10.4 0.32 10.4 0.8V1.6H5.6V0.8C5.6 0.32 5.28 0 4.8 0C4.32 0 4 0.32 4 0.8V1.6H2.4C1.04 1.6 0 2.64 0 4V15.2C0 16.56 1.04 17.6 2.4 17.6H13.6C14.96 17.6 16 16.56 16 15.2V4C16 2.64 14.96 1.6 13.6 1.6ZM2.4 3.2H4V4C4 4.48 4.32 4.8 4.8 4.8C5.28 4.8 5.6 4.48 5.6 4V3.2H10.4V4C10.4 4.48 10.72 4.8 11.2 4.8C11.68 4.8 12 4.48 12 4V3.2H13.6C14.08 3.2 14.4 3.52 14.4 4V6.4H1.6V4C1.6 3.52 1.92 3.2 2.4 3.2ZM2.4 16H13.6C14.08 16 14.4 15.68 14.4 15.2V8H1.6V15.2C1.6 15.68 1.92 16 2.4 16Z" fill="#FDCA4B"/>
</svg>
