<svg width="20" height="20" viewBox="0 0 20 20" fill="none" xmlns="http://www.w3.org/2000/svg">
<path d="M10.8333 11.6667H7.49998C7.27896 11.6667 7.067 11.7545 6.91072 11.9108C6.75444 12.0671 6.66665 12.2791 6.66665 12.5001C6.66665 12.7211 6.75444 12.9331 6.91072 13.0893C7.067 13.2456 7.27896 13.3334 7.49998 13.3334H10.8333C11.0543 13.3334 11.2663 13.2456 11.4226 13.0893C11.5788 12.9331 11.6666 12.7211 11.6666 12.5001C11.6666 12.2791 11.5788 12.0671 11.4226 11.9108C11.2663 11.7545 11.0543 11.6667 10.8333 11.6667ZM14.1666 3.33341H13.1833C13.0114 2.84712 12.6933 2.42591 12.2725 2.12753C11.8518 1.82915 11.3491 1.6682 10.8333 1.66675H9.16665C8.65086 1.6682 8.14814 1.82915 7.72742 2.12753C7.3067 2.42591 6.98857 2.84712 6.81665 3.33341H5.83331C5.17027 3.33341 4.53439 3.59681 4.06555 4.06565C3.59671 4.53449 3.33331 5.17037 3.33331 5.83341V15.8334C3.33331 16.4965 3.59671 17.1323 4.06555 17.6012C4.53439 18.07 5.17027 18.3334 5.83331 18.3334H14.1666C14.8297 18.3334 15.4656 18.07 15.9344 17.6012C16.4033 17.1323 16.6666 16.4965 16.6666 15.8334V5.83341C16.6666 5.17037 16.4033 4.53449 15.9344 4.06565C15.4656 3.59681 14.8297 3.33341 14.1666 3.33341ZM8.33331 4.16675C8.33331 3.94573 8.42111 3.73377 8.57739 3.57749C8.73367 3.42121 8.94563 3.33341 9.16665 3.33341H10.8333C11.0543 3.33341 11.2663 3.42121 11.4226 3.57749C11.5788 3.73377 11.6666 3.94573 11.6666 4.16675V5.00008H8.33331V4.16675ZM15 15.8334C15 16.0544 14.9122 16.2664 14.7559 16.4227C14.5996 16.5789 14.3877 16.6667 14.1666 16.6667H5.83331C5.6123 16.6667 5.40034 16.5789 5.24406 16.4227C5.08778 16.2664 4.99998 16.0544 4.99998 15.8334V5.83341C4.99998 5.6124 5.08778 5.40044 5.24406 5.24416C5.40034 5.08788 5.6123 5.00008 5.83331 5.00008H6.66665V5.83341C6.66665 6.05443 6.75444 6.26639 6.91072 6.42267C7.067 6.57895 7.27896 6.66675 7.49998 6.66675H12.5C12.721 6.66675 12.933 6.57895 13.0892 6.42267C13.2455 6.26639 13.3333 6.05443 13.3333 5.83341V5.00008H14.1666C14.3877 5.00008 14.5996 5.08788 14.7559 5.24416C14.9122 5.40044 15 5.6124 15 5.83341V15.8334ZM12.5 8.33341H7.49998C7.27896 8.33341 7.067 8.42121 6.91072 8.57749C6.75444 8.73377 6.66665 8.94573 6.66665 9.16675C6.66665 9.38776 6.75444 9.59972 6.91072 9.756C7.067 9.91228 7.27896 10.0001 7.49998 10.0001H12.5C12.721 10.0001 12.933 9.91228 13.0892 9.756C13.2455 9.59972 13.3333 9.38776 13.3333 9.16675C13.3333 8.94573 13.2455 8.73377 13.0892 8.57749C12.933 8.42121 12.721 8.33341 12.5 8.33341Z" fill="black"/>
</svg>
