<svg width="17" height="17" viewBox="0 0 17 17" fill="none" xmlns="http://www.w3.org/2000/svg">
<path fill-rule="evenodd" clip-rule="evenodd" d="M8.5 0C3.78636 0 0 3.78636 0 8.5C0 13.2136 3.78636 17 8.5 17C13.2136 17 17 13.2136 17 8.5C17 3.78636 13.2136 0 8.5 0ZM8.5 15.4545C4.63636 15.4545 1.54545 12.3636 1.54545 8.5C1.54545 4.63636 4.63636 1.54545 8.5 1.54545C12.3636 1.54545 15.4545 4.63636 15.4545 8.5C15.4545 12.3636 12.3636 15.4545 8.5 15.4545ZM11.3591 11.3591C11.6682 11.05 11.6682 10.5864 11.3591 10.2773L9.27273 8.19091V3.86364C9.27273 3.4 8.96364 3.09091 8.5 3.09091C8.03636 3.09091 7.72727 3.4 7.72727 3.86364V8.5C7.72727 8.73182 7.80455 8.88636 7.95909 9.04091L10.2773 11.3591C10.4318 11.5136 10.5864 11.5909 10.8182 11.5909C11.05 11.5909 11.2045 11.5136 11.3591 11.3591Z" fill="#FDCA4B"/>
</svg>
