<svg width="14" height="14" viewBox="0 0 14 14" fill="none" xmlns="http://www.w3.org/2000/svg">
<path d="M7.82251 7.00011L11.4975 3.33094C11.6074 3.2211 11.6691 3.07212 11.6691 2.91677C11.6691 2.76143 11.6074 2.61245 11.4975 2.50261C11.3877 2.39276 11.2387 2.33105 11.0833 2.33105C10.928 2.33105 10.779 2.39276 10.6692 2.50261L7.00001 6.17761L3.33084 2.50261C3.22099 2.39276 3.07201 2.33105 2.91667 2.33105C2.76133 2.33105 2.61235 2.39276 2.50251 2.50261C2.39266 2.61245 2.33095 2.76143 2.33095 2.91677C2.33095 3.07212 2.39266 3.2211 2.50251 3.33094L6.17751 7.00011L2.50251 10.6693C2.44783 10.7235 2.40443 10.788 2.37482 10.8591C2.3452 10.9302 2.32996 11.0064 2.32996 11.0834C2.32996 11.1604 2.3452 11.2367 2.37482 11.3078C2.40443 11.3789 2.44783 11.4434 2.50251 11.4976C2.55673 11.5523 2.62125 11.5957 2.69234 11.6253C2.76342 11.6549 2.83966 11.6702 2.91667 11.6702C2.99368 11.6702 3.06992 11.6549 3.14101 11.6253C3.21209 11.5957 3.27661 11.5523 3.33084 11.4976L7.00001 7.82261L10.6692 11.4976C10.7234 11.5523 10.7879 11.5957 10.859 11.6253C10.9301 11.6549 11.0063 11.6702 11.0833 11.6702C11.1603 11.6702 11.2366 11.6549 11.3077 11.6253C11.3788 11.5957 11.4433 11.5523 11.4975 11.4976C11.5522 11.4434 11.5956 11.3789 11.6252 11.3078C11.6548 11.2367 11.6701 11.1604 11.6701 11.0834C11.6701 11.0064 11.6548 10.9302 11.6252 10.8591C11.5956 10.788 11.5522 10.7235 11.4975 10.6693L7.82251 7.00011Z" fill="#DFE3E8"/>
</svg>
