<svg width="10" height="11" viewBox="0 0 10 11" fill="none" xmlns="http://www.w3.org/2000/svg">
<path fill-rule="evenodd" clip-rule="evenodd" d="M9.5 2H7.5V1.5C7.5 0.65 6.85 0 6 0H4C3.15 0 2.5 0.65 2.5 1.5V2H0.5C0.2 2 0 2.2 0 2.5C0 2.8 0.2 3 0.5 3H1V9.5C1 10.35 1.65 11 2.5 11H7.5C8.35 11 9 10.35 9 9.5V3H9.5C9.8 3 10 2.8 10 2.5C10 2.2 9.8 2 9.5 2ZM3.5 1.5C3.5 1.2 3.7 1 4 1H6C6.3 1 6.5 1.2 6.5 1.5V2H3.5V1.5ZM7.5 10C7.8 10 8 9.8 8 9.5V3H2V9.5C2 9.8 2.2 10 2.5 10H7.5ZM4.5 5V8C4.5 8.3 4.3 8.5 4 8.5C3.7 8.5 3.5 8.3 3.5 8V5C3.5 4.7 3.7 4.5 4 4.5C4.3 4.5 4.5 4.7 4.5 5ZM6.5 8V5C6.5 4.7 6.3 4.5 6 4.5C5.7 4.5 5.5 4.7 5.5 5V8C5.5 8.3 5.7 8.5 6 8.5C6.3 8.5 6.5 8.3 6.5 8Z" fill="#F45D5D"/>
</svg>
