<svg width="13" height="13" viewBox="0 0 13 13" fill="none" xmlns="http://www.w3.org/2000/svg">
<path d="M12.8011 4.83889L9.18498 8.45C9.04033 8.59444 8.89569 8.66667 8.67872 8.66667C8.46175 8.66667 8.31711 8.59444 8.17246 8.45C7.88317 8.16111 7.88317 7.72778 8.17246 7.43889L10.5591 5.05556H3.61613C2.38665 5.05556 1.44645 5.99444 1.44645 7.22222V12.2778C1.44645 12.7111 1.15716 13 0.723227 13C0.289291 13 0 12.7111 0 12.2778V7.22222C0 5.2 1.5911 3.61111 3.61613 3.61111H10.5591L8.17246 1.22778C7.88317 0.938889 7.88317 0.505556 8.17246 0.216667C8.46175 -0.0722222 8.89569 -0.0722222 9.18498 0.216667L12.8011 3.82778C12.8734 3.9 12.9458 3.97222 12.9458 4.04444C13.0181 4.18889 13.0181 4.40556 12.9458 4.62222C12.9458 4.69444 12.8734 4.76667 12.8011 4.83889Z" fill="#319AFA"/>
</svg>
