<svg width="18" height="18" viewBox="0 0 18 18" fill="none" xmlns="http://www.w3.org/2000/svg">
<path d="M5.25 4.5H4.5V2.25C4.5 2.05109 4.42098 1.86032 4.28033 1.71967C4.13968 1.57902 3.94891 1.5 3.75 1.5C3.55109 1.5 3.36032 1.57902 3.21967 1.71967C3.07902 1.86032 3 2.05109 3 2.25V4.5H2.25C2.05109 4.5 1.86032 4.57902 1.71967 4.71967C1.57902 4.86032 1.5 5.05109 1.5 5.25C1.5 5.44891 1.57902 5.63968 1.71967 5.78033C1.86032 5.92098 2.05109 6 2.25 6H5.25C5.44891 6 5.63968 5.92098 5.78033 5.78033C5.92098 5.63968 6 5.44891 6 5.25C6 5.05109 5.92098 4.86032 5.78033 4.71967C5.63968 4.57902 5.44891 4.5 5.25 4.5ZM3.75 7.5C3.55109 7.5 3.36032 7.57902 3.21967 7.71967C3.07902 7.86032 3 8.05109 3 8.25V15.75C3 15.9489 3.07902 16.1397 3.21967 16.2803C3.36032 16.421 3.55109 16.5 3.75 16.5C3.94891 16.5 4.13968 16.421 4.28033 16.2803C4.42098 16.1397 4.5 15.9489 4.5 15.75V8.25C4.5 8.05109 4.42098 7.86032 4.28033 7.71967C4.13968 7.57902 3.94891 7.5 3.75 7.5ZM9 13.5C8.80109 13.5 8.61032 13.579 8.46967 13.7197C8.32902 13.8603 8.25 14.0511 8.25 14.25V15.75C8.25 15.9489 8.32902 16.1397 8.46967 16.2803C8.61032 16.421 8.80109 16.5 9 16.5C9.19891 16.5 9.38968 16.421 9.53033 16.2803C9.67098 16.1397 9.75 15.9489 9.75 15.75V14.25C9.75 14.0511 9.67098 13.8603 9.53033 13.7197C9.38968 13.579 9.19891 13.5 9 13.5ZM15.75 7.5H15V2.25C15 2.05109 14.921 1.86032 14.7803 1.71967C14.6397 1.57902 14.4489 1.5 14.25 1.5C14.0511 1.5 13.8603 1.57902 13.7197 1.71967C13.579 1.86032 13.5 2.05109 13.5 2.25V7.5H12.75C12.5511 7.5 12.3603 7.57902 12.2197 7.71967C12.079 7.86032 12 8.05109 12 8.25C12 8.44891 12.079 8.63968 12.2197 8.78033C12.3603 8.92098 12.5511 9 12.75 9H15.75C15.9489 9 16.1397 8.92098 16.2803 8.78033C16.421 8.63968 16.5 8.44891 16.5 8.25C16.5 8.05109 16.421 7.86032 16.2803 7.71967C16.1397 7.57902 15.9489 7.5 15.75 7.5ZM14.25 10.5C14.0511 10.5 13.8603 10.579 13.7197 10.7197C13.579 10.8603 13.5 11.0511 13.5 11.25V15.75C13.5 15.9489 13.579 16.1397 13.7197 16.2803C13.8603 16.421 14.0511 16.5 14.25 16.5C14.4489 16.5 14.6397 16.421 14.7803 16.2803C14.921 16.1397 15 15.9489 15 15.75V11.25C15 11.0511 14.921 10.8603 14.7803 10.7197C14.6397 10.579 14.4489 10.5 14.25 10.5ZM10.5 10.5H9.75V2.25C9.75 2.05109 9.67098 1.86032 9.53033 1.71967C9.38968 1.57902 9.19891 1.5 9 1.5C8.80109 1.5 8.61032 1.57902 8.46967 1.71967C8.32902 1.86032 8.25 2.05109 8.25 2.25V10.5H7.5C7.30109 10.5 7.11032 10.579 6.96967 10.7197C6.82902 10.8603 6.75 11.0511 6.75 11.25C6.75 11.4489 6.82902 11.6397 6.96967 11.7803C7.11032 11.921 7.30109 12 7.5 12H10.5C10.6989 12 10.8897 11.921 11.0303 11.7803C11.171 11.6397 11.25 11.4489 11.25 11.25C11.25 11.0511 11.171 10.8603 11.0303 10.7197C10.8897 10.579 10.6989 10.5 10.5 10.5Z" fill="#FFCC29"/>
</svg>
