<svg width="148" height="34" viewBox="0 0 148 34" fill="none" xmlns="http://www.w3.org/2000/svg">
<path opacity="0.23" d="M0 0H148V34H0L10.2069 17L0 0Z" fill="#FFCC29"/>
<path opacity="0.9" d="M36.049 12.41H31.836V20H32.903V16.722H35.862V15.831H32.903V13.301H36.049V12.41ZM44.6234 16.216C44.6234 13.785 42.8414 12.3 40.7074 12.3C38.5734 12.3 36.7914 13.785 36.7914 16.216C36.7914 18.647 38.5734 20.132 40.7074 20.132C42.8414 20.132 44.6234 18.647 44.6234 16.216ZM43.5344 16.194C43.5344 18.042 42.2584 19.164 40.7074 19.164C39.1674 19.164 37.8804 18.042 37.8804 16.194C37.8804 14.335 39.1564 13.224 40.7074 13.224C42.2584 13.224 43.5344 14.335 43.5344 16.194ZM48.9589 16.623C49.7619 16.469 50.6859 15.875 50.6859 14.544C50.6859 13.851 50.3999 13.301 49.9489 12.938C49.4979 12.586 48.8819 12.41 48.1229 12.41H45.9779V20H47.0449V16.733H47.8589L49.8389 20H51.1259L48.9589 16.623ZM49.5859 14.566C49.5859 15.028 49.4429 15.336 49.1019 15.589C48.7609 15.831 48.3539 15.853 47.8259 15.853H47.0449V13.279H47.8259C48.3539 13.279 48.7609 13.301 49.1019 13.554C49.4429 13.796 49.5859 14.115 49.5859 14.566ZM60.6327 16.205C60.6327 14.786 60.0057 13.906 59.4557 13.4C58.9057 12.894 57.9377 12.41 56.6177 12.41H54.3297V20H56.6177C57.9377 20 58.9057 19.516 59.4557 19.01C60.0057 18.504 60.6327 17.624 60.6327 16.205ZM59.5437 16.205C59.5437 17.305 59.0597 17.976 58.6417 18.372C58.2237 18.768 57.5417 19.076 56.6177 19.076H55.3967V13.323H56.6177C57.5417 13.323 58.2237 13.631 58.6417 14.027C59.0597 14.423 59.5437 15.105 59.5437 16.205ZM66.5127 19.098H63.0477V16.458H66.2377V15.567H63.0477V13.301H66.4247V12.41H61.9807V20H66.5127V19.098ZM72.5215 12.41L70.3875 18.46L68.2535 12.41H67.1095L69.9035 20.011H70.8495L73.6435 12.41H72.5215ZM79.1292 19.098H75.6642V16.458H78.8542V15.567H75.6642V13.301H79.0412V12.41H74.5972V20H79.1292V19.098ZM84.291 19.087H81.618V12.41H80.551V20H84.291V19.087ZM92.3071 16.216C92.3071 13.785 90.5251 12.3 88.3911 12.3C86.2571 12.3 84.4751 13.785 84.4751 16.216C84.4751 18.647 86.2571 20.132 88.3911 20.132C90.5251 20.132 92.3071 18.647 92.3071 16.216ZM91.2181 16.194C91.2181 18.042 89.9421 19.164 88.3911 19.164C86.8511 19.164 85.5641 18.042 85.5641 16.194C85.5641 14.335 86.8401 13.224 88.3911 13.224C89.9421 13.224 91.2181 14.335 91.2181 16.194ZM98.3696 14.577C98.3696 13.851 98.1056 13.356 97.6326 12.949C97.1706 12.553 96.5326 12.41 95.7956 12.41H93.6616V20H94.7286V16.744H95.7956C96.5326 16.744 97.1706 16.601 97.6326 16.205C98.1056 15.809 98.3696 15.303 98.3696 14.577ZM97.2696 14.577C97.2696 15.05 97.0716 15.391 96.8076 15.589C96.5326 15.776 96.1916 15.875 95.7076 15.875H94.7286V13.279H95.7076C96.1916 13.279 96.5326 13.378 96.8076 13.576C97.0716 13.763 97.2696 14.115 97.2696 14.577ZM104.147 19.098H100.682V16.458H103.872V15.567H100.682V13.301H104.059V12.41H99.6153V20H104.147V19.098ZM108.55 16.623C109.353 16.469 110.277 15.875 110.277 14.544C110.277 13.851 109.991 13.301 109.54 12.938C109.089 12.586 108.473 12.41 107.714 12.41H105.569V20H106.636V16.733H107.45L109.43 20H110.717L108.55 16.623ZM109.177 14.566C109.177 15.028 109.034 15.336 108.693 15.589C108.352 15.831 107.945 15.853 107.417 15.853H106.636V13.279H107.417C107.945 13.279 108.352 13.301 108.693 13.554C109.034 13.796 109.177 14.115 109.177 14.566ZM116.262 17.888C116.262 17.316 116.042 16.909 115.8 16.612C115.547 16.315 115.085 16.062 114.942 15.996L113.545 15.413C113.083 15.226 112.566 14.962 112.566 14.258C112.566 13.554 113.138 13.202 113.886 13.202C114.634 13.202 115.184 13.62 115.558 14.016L116.119 13.29C115.91 13.07 115.184 12.311 113.941 12.311C113.204 12.311 112.61 12.52 112.192 12.872C111.785 13.213 111.499 13.719 111.499 14.335C111.499 14.951 111.719 15.369 111.994 15.655C112.269 15.952 112.588 16.117 112.753 16.194C113.039 16.337 113.567 16.546 113.963 16.7C114.348 16.854 115.195 17.162 115.195 17.954C115.195 18.757 114.535 19.23 113.71 19.23C112.885 19.23 112.17 18.658 111.785 18.141L111.158 18.856C111.521 19.274 112.28 20.132 113.611 20.132C114.37 20.132 114.997 19.923 115.47 19.538C115.965 19.131 116.262 18.548 116.262 17.888Z" fill="#BB9009"/>
</svg>
