<svg width="37" height="43" viewBox="0 0 37 43" fill="none" xmlns="http://www.w3.org/2000/svg">
<path d="M18 16.5C13.8579 16.5 10.5 13.1421 10.5 9C10.5 4.85786 13.8579 1.5 18 1.5C22.1421 1.5 25.5 4.85786 25.5 9C25.4955 13.1403 22.1403 16.4955 18 16.5ZM17.25 3.0465C14.1705 3.43446 11.8952 6.10703 12.0036 9.20897C12.112 12.3109 14.5683 14.8182 17.6673 14.9902C20.7664 15.1623 23.4851 12.9424 23.9363 9.8715V9.8595V9.83775V9.81525V9.7935V9.7815V9.77325V9.76275V9.75H17.25V3.0465ZM18.75 3.0465V8.25H23.9535C23.6111 5.53058 21.4694 3.38888 18.75 3.0465Z" fill="#9A9FA6"/>
<path d="M9.00198 28.34H7.64398V32.33H2.50598V28.34H1.14798V38H2.50598V33.492H7.64398V38H9.00198V28.34ZM17.5961 34.696C17.5961 32.638 16.0561 31.224 14.0821 31.224C12.0941 31.224 10.5541 32.638 10.5541 34.696C10.5541 36.768 12.0941 38.154 14.0821 38.154C16.0561 38.154 17.5961 36.768 17.5961 34.696ZM16.2381 34.654C16.2381 35.97 15.4121 37.006 14.0821 37.006C12.7381 37.006 11.9121 35.97 11.9121 34.654C11.9121 33.352 12.7381 32.316 14.0821 32.316C15.4121 32.316 16.2381 33.352 16.2381 34.654ZM28.6322 33.968C28.6322 32.526 28.1562 31.224 26.3782 31.224C25.4402 31.224 24.7122 31.7 24.2642 32.54C23.9562 31.672 23.2702 31.224 22.2902 31.224C21.4082 31.224 20.6802 31.784 20.3722 32.4H20.3302L20.3442 31.35H19.0002V38H20.3442V34.542C20.3442 33.352 20.8762 32.33 21.9402 32.33C22.9062 32.33 23.1442 33.142 23.1442 34.122V38H24.4882V34.542C24.4882 33.352 25.0202 32.33 26.0842 32.33C27.1622 32.33 27.3022 33.352 27.3022 34.122V38H28.6322V33.968ZM36.5059 34.402C36.5059 32.54 35.2039 31.224 33.3559 31.224C31.5079 31.224 29.9819 32.568 29.9819 34.668C29.9819 36.782 31.3399 38.154 33.3139 38.154C35.3019 38.154 36.1559 37.174 36.2399 37.104L35.6799 36.334C35.5259 36.432 34.7279 37.104 33.4819 37.104C32.2499 37.104 31.4099 36.306 31.3399 34.99H36.4639C36.4639 34.99 36.5059 34.654 36.5059 34.402ZM31.3539 34.094C31.3959 33.296 31.9839 32.19 33.3139 32.19C34.6579 32.19 35.2179 33.352 35.2319 34.094H31.3539Z" fill="#9A9FA6"/>
</svg>
