<svg width="18" height="18" viewBox="0 0 18 18" fill="none" xmlns="http://www.w3.org/2000/svg">
<path fill-rule="evenodd" clip-rule="evenodd" d="M1.50003 9C1.50003 4.86 4.86003 1.5 9.00003 1.5C13.14 1.5 16.5 4.86 16.5 9C16.5 13.14 13.14 16.5 9.00003 16.5C4.86003 16.5 1.50003 13.14 1.50003 9ZM9.75003 13.5H8.25003V12H9.75003V13.5ZM9.00005 15C5.69255 15 3.00005 12.3075 3.00005 9C3.00005 5.6925 5.69255 3 9.00005 3C12.3075 3 15 5.6925 15 9C15 12.3075 12.3075 15 9.00005 15ZM6.00003 7.5C6.00003 5.8425 7.34253 4.5 9.00003 4.5C10.6575 4.5 12 5.8425 12 7.5C12 8.46219 11.4075 8.97999 10.8306 9.48415C10.2833 9.96245 9.75003 10.4285 9.75003 11.25H8.25003C8.25003 9.88404 8.95662 9.34244 9.57786 8.86626C10.0652 8.49271 10.5 8.15941 10.5 7.5C10.5 6.675 9.82503 6 9.00003 6C8.17503 6 7.50003 6.675 7.50003 7.5H6.00003Z" fill="#0082FA"/>
</svg>
