<svg width="32" height="43" viewBox="0 0 32 43" fill="none" xmlns="http://www.w3.org/2000/svg">
<path d="M22.25 9.75C22.6642 9.75 23 9.41421 23 9C23 8.58579 22.6642 8.25 22.25 8.25C21.8358 8.25 21.5 8.58579 21.5 9C21.5 9.41421 21.8358 9.75 22.25 9.75Z" stroke="#9A9FA6" stroke-width="2" stroke-linecap="round" stroke-linejoin="round"/>
<path d="M17 9.75C17.4142 9.75 17.75 9.41421 17.75 9C17.75 8.58579 17.4142 8.25 17 8.25C16.5858 8.25 16.25 8.58579 16.25 9C16.25 9.41421 16.5858 9.75 17 9.75Z" stroke="#9A9FA6" stroke-width="2" stroke-linecap="round" stroke-linejoin="round"/>
<path d="M11.75 9.75C12.1642 9.75 12.5 9.41421 12.5 9C12.5 8.58579 12.1642 8.25 11.75 8.25C11.3358 8.25 11 8.58579 11 9C11 9.41421 11.3358 9.75 11.75 9.75Z" stroke="#9A9FA6" stroke-width="2" stroke-linecap="round" stroke-linejoin="round"/>
<path d="M10.5231 28.34H8.8571L6.0711 35.802H6.0431L3.2571 28.34H1.5771L0.709102 38H2.0531L2.6691 30.37H2.7111L5.6651 38.084H6.4351L9.3891 30.37H9.4311L10.0611 38H11.4051L10.5231 28.34ZM19.5463 34.696C19.5463 32.638 18.0063 31.224 16.0323 31.224C14.0443 31.224 12.5043 32.638 12.5043 34.696C12.5043 36.768 14.0443 38.154 16.0323 38.154C18.0063 38.154 19.5463 36.768 19.5463 34.696ZM18.1883 34.654C18.1883 35.97 17.3623 37.006 16.0323 37.006C14.6883 37.006 13.8623 35.97 13.8623 34.654C13.8623 33.352 14.6883 32.316 16.0323 32.316C17.3623 32.316 18.1883 33.352 18.1883 34.654ZM24.6604 31.336C24.6604 31.336 24.4084 31.224 23.9604 31.224C23.2464 31.224 22.6444 31.616 22.3224 32.372H22.2804L22.2944 31.35H20.9504V38H22.2944V34.682C22.2944 33.702 22.5744 33.184 22.7004 33.002C22.8404 32.82 23.2044 32.442 23.7924 32.442C24.1564 32.442 24.3944 32.526 24.5204 32.582H24.5764L24.6604 31.336ZM31.5107 34.402C31.5107 32.54 30.2087 31.224 28.3607 31.224C26.5127 31.224 24.9867 32.568 24.9867 34.668C24.9867 36.782 26.3447 38.154 28.3187 38.154C30.3067 38.154 31.1607 37.174 31.2447 37.104L30.6847 36.334C30.5307 36.432 29.7327 37.104 28.4867 37.104C27.2547 37.104 26.4147 36.306 26.3447 34.99H31.4687C31.4687 34.99 31.5107 34.654 31.5107 34.402ZM26.3587 34.094C26.4007 33.296 26.9887 32.19 28.3187 32.19C29.6627 32.19 30.2227 33.352 30.2367 34.094H26.3587Z" fill="#9A9FA6"/>
</svg>
