<svg width="20" height="20" viewBox="0 0 20 20" fill="none" xmlns="http://www.w3.org/2000/svg">
<path d="M4.58337 9.16674C4.58337 9.38776 4.67116 9.59972 4.82744 9.756C4.98372 9.91228 5.19569 10.0001 5.4167 10.0001C5.63771 10.0001 5.84967 9.91228 6.00595 9.756C6.16223 9.59972 6.25003 9.38776 6.25003 9.16674V4.50841L7.32503 5.59174C7.4025 5.66985 7.49467 5.73185 7.59622 5.77415C7.69777 5.81646 7.80669 5.83824 7.9167 5.83824C8.02671 5.83824 8.13563 5.81646 8.23718 5.77415C8.33873 5.73185 8.4309 5.66985 8.50837 5.59174C8.58647 5.51427 8.64847 5.42211 8.69077 5.32056C8.73308 5.21901 8.75486 5.11009 8.75486 5.00008C8.75486 4.89007 8.73308 4.78114 8.69077 4.6796C8.64847 4.57805 8.58647 4.48588 8.50837 4.40841L6.00837 1.90841C5.92911 1.83254 5.83566 1.77307 5.73337 1.73341C5.53048 1.65006 5.30292 1.65006 5.10003 1.73341C4.99774 1.77307 4.90429 1.83254 4.82503 1.90841L2.32503 4.40841C2.16811 4.56533 2.07996 4.77816 2.07996 5.00008C2.07996 5.22199 2.16811 5.43482 2.32503 5.59174C2.48195 5.74866 2.69478 5.83682 2.9167 5.83682C3.13862 5.83682 3.35145 5.74866 3.50837 5.59174L4.58337 4.50841V9.16674ZM15.4167 5.00008H11.25C11.029 5.00008 10.8171 5.08787 10.6608 5.24415C10.5045 5.40043 10.4167 5.6124 10.4167 5.83341C10.4167 6.05442 10.5045 6.26639 10.6608 6.42267C10.8171 6.57895 11.029 6.66674 11.25 6.66674H15.4167C15.6377 6.66674 15.8497 6.75454 16.006 6.91082C16.1622 7.0671 16.25 7.27906 16.25 7.50008V15.6001L14.9417 14.3917C14.788 14.2479 14.5856 14.1675 14.375 14.1667H7.08337C6.86235 14.1667 6.65039 14.0789 6.49411 13.9227C6.33783 13.7664 6.25003 13.5544 6.25003 13.3334V12.5001C6.25003 12.2791 6.16223 12.0671 6.00595 11.9108C5.84967 11.7545 5.63771 11.6667 5.4167 11.6667C5.19569 11.6667 4.98372 11.7545 4.82744 11.9108C4.67116 12.0671 4.58337 12.2791 4.58337 12.5001V13.3334C4.58337 13.9965 4.84676 14.6323 5.3156 15.1012C5.78444 15.57 6.42032 15.8334 7.08337 15.8334H14.05L16.55 18.1084C16.7037 18.2523 16.9062 18.3327 17.1167 18.3334C17.231 18.3322 17.3441 18.3096 17.45 18.2667C17.5991 18.2017 17.7259 18.0944 17.8147 17.9582C17.9036 17.822 17.9506 17.6627 17.95 17.5001V7.50008C17.9501 7.16895 17.8843 6.84111 17.7566 6.53561C17.6289 6.2301 17.4417 5.95301 17.2061 5.72042C16.9704 5.48783 16.6908 5.30438 16.3836 5.18072C16.0765 5.05707 15.7478 4.99566 15.4167 5.00008Z" fill="black"/>
</svg>
