<svg width="27" height="43" viewBox="0 0 27 43" fill="none" xmlns="http://www.w3.org/2000/svg">
<path d="M6.25 15.75V3.75C6.25 2.92157 6.92157 2.25 7.75 2.25H18.25C19.0784 2.25 19.75 2.92157 19.75 3.75V11.25C19.75 12.0784 19.0784 12.75 18.25 12.75H10.75C10.4253 12.7494 10.1094 12.8547 9.85 13.05L6.25 15.75ZM7.75 3.75V12.75L9.3505 11.55C9.60973 11.3545 9.9258 11.2491 10.2505 11.25H18.25V3.75H7.75ZM13.75 9.75H12.25V8.25H10.75V6.75H12.25V5.25H13.75V6.75H15.25V8.25H13.75V9.75Z" fill="#9A9FA6"/>
<path d="M7.01888 35.312C7.01888 34.584 6.73888 34.066 6.43088 33.688C6.10888 33.31 5.52088 32.988 5.33888 32.904L3.56088 32.162C2.97288 31.924 2.31488 31.588 2.31488 30.692C2.31488 29.796 3.04288 29.348 3.99488 29.348C4.94688 29.348 5.64688 29.88 6.12288 30.384L6.83688 29.46C6.57088 29.18 5.64688 28.214 4.06488 28.214C3.12688 28.214 2.37088 28.48 1.83888 28.928C1.32088 29.362 0.956875 30.006 0.956875 30.79C0.956875 31.574 1.23688 32.106 1.58688 32.47C1.93688 32.848 2.34288 33.058 2.55288 33.156C2.91688 33.338 3.58888 33.604 4.09288 33.8C4.58288 33.996 5.66088 34.388 5.66088 35.396C5.66088 36.418 4.82088 37.02 3.77088 37.02C2.72088 37.02 1.81088 36.292 1.32088 35.634L0.522875 36.544C0.984875 37.076 1.95088 38.168 3.64487 38.168C4.61088 38.168 5.40888 37.902 6.01088 37.412C6.64088 36.894 7.01888 36.152 7.01888 35.312ZM17.9694 28.34H16.3034L13.5174 35.802H13.4894L10.7034 28.34H9.02339L8.15539 38H9.49939L10.1154 30.37H10.1574L13.1114 38.084H13.8814L16.8354 30.37H16.8774L17.5074 38H18.8514L17.9694 28.34ZM26.4466 35.312C26.4466 34.584 26.1666 34.066 25.8586 33.688C25.5366 33.31 24.9486 32.988 24.7666 32.904L22.9886 32.162C22.4006 31.924 21.7426 31.588 21.7426 30.692C21.7426 29.796 22.4706 29.348 23.4226 29.348C24.3746 29.348 25.0746 29.88 25.5506 30.384L26.2646 29.46C25.9986 29.18 25.0746 28.214 23.4926 28.214C22.5546 28.214 21.7986 28.48 21.2666 28.928C20.7486 29.362 20.3846 30.006 20.3846 30.79C20.3846 31.574 20.6646 32.106 21.0146 32.47C21.3646 32.848 21.7706 33.058 21.9806 33.156C22.3446 33.338 23.0166 33.604 23.5206 33.8C24.0106 33.996 25.0886 34.388 25.0886 35.396C25.0886 36.418 24.2486 37.02 23.1986 37.02C22.1486 37.02 21.2386 36.292 20.7486 35.634L19.9506 36.544C20.4126 37.076 21.3786 38.168 23.0726 38.168C24.0386 38.168 24.8366 37.902 25.4386 37.412C26.0686 36.894 26.4466 36.152 26.4466 35.312Z" fill="#9A9FA6"/>
</svg>
